<svg width="22" height="22" viewBox="0 0 22 22" fill="none" xmlns="http://www.w3.org/2000/svg">
<g clip-path="url(#clip0_2312_6417)">
<path d="M11 22C8.05949 22 5.29829 20.9043 3.2229 18.9105C1.14751 16.9168 0 14.2699 0 11.4555V10.5488C0 7.73008 1.14303 5.0832 3.2229 3.08945C5.30277 1.0957 8.05949 0 11 0C13.9405 0 16.7017 1.0957 18.7771 3.08945C20.8525 5.0832 22 7.73008 22 10.5445V11.4512C22 14.2699 20.857 16.9168 18.7771 18.9062C16.6972 20.8957 13.936 22 11 22Z" fill="#1A1818"/>
<path d="M11 0.429688C5.17277 0.429688 0.448242 4.95859 0.448242 10.5445V11.4512C0.448242 17.0414 5.17277 21.5703 11 21.5703C16.8272 21.5703 21.5517 17.0414 21.5517 11.4555V10.5488C21.5517 4.95859 16.8272 0.429688 11 0.429688Z" fill="#995DFE"/>
<path d="M11 20.6594C16.8276 20.6594 21.5517 16.1308 21.5517 10.5445C21.5517 4.95826 16.8276 0.429688 11 0.429688C5.17242 0.429688 0.448242 4.95826 0.448242 10.5445C0.448242 16.1308 5.17242 20.6594 11 20.6594Z" fill="url(#paint0_linear_2312_6417)"/>
<path d="M21.5517 10.5445V10.7508C21.4352 5.25937 16.7555 0.842188 11 0.842188C5.24449 0.842188 0.564787 5.25937 0.448242 10.7508C0.448242 10.682 0.448242 10.6133 0.448242 10.5445C0.448242 4.95859 5.17277 0.429688 11 0.429688C16.8272 0.429688 21.5517 4.95859 21.5517 10.5445Z" fill="#995DFE"/>
<path d="M19.2973 11.0988C19.2973 15.4902 15.5813 19.0523 11.0002 19.0523C6.4191 19.0523 2.70312 15.4902 2.70312 11.0988C2.70312 11.0301 2.70312 10.9613 2.70761 10.8926C2.82415 15.1895 6.49082 18.6398 11.0047 18.6398C15.5185 18.6398 19.1852 15.1895 19.2973 10.8926V11.0988Z" fill="#995DFE"/>
<path d="M11.0002 18.6399C15.5825 18.6399 19.2973 15.079 19.2973 10.6864C19.2973 6.29382 15.5825 2.73291 11.0002 2.73291C6.41785 2.73291 2.70312 6.29382 2.70312 10.6864C2.70312 15.079 6.41785 18.6399 11.0002 18.6399Z" fill="url(#paint1_linear_2312_6417)"/>
<path d="M19.2973 10.6864C19.2973 10.8282 19.2928 10.9657 19.2883 11.1032C19.0597 6.90518 15.4378 3.5708 11.0002 3.5708C6.56254 3.5708 2.9407 6.90518 2.71209 11.1032C2.70312 10.9657 2.70312 10.8239 2.70312 10.6864C2.70312 6.29502 6.4191 2.73291 11.0002 2.73291C15.5813 2.73291 19.2973 6.29502 19.2973 10.6864Z" fill="#1A1818" fill-opacity="0.1"/>
<path d="M14.4365 15C13.9608 15 13.5398 14.6921 13.3957 14.2388L12.8841 12.629H9.11594L8.6045 14.2381C8.46028 14.6918 8.03894 15 7.56283 15C6.80366 15 6.2757 14.2451 6.53614 13.532L9.19197 6.26008C9.46833 5.50338 10.1881 5 10.9937 5C11.7984 5 12.5175 5.50228 12.7945 6.25778L15.4617 13.532C15.7231 14.2447 15.1955 15 14.4365 15ZM12.3623 10.8577L11.6087 8.54254C11.5604 8.38447 11.4976 8.18456 11.4203 7.94282C11.343 7.70107 11.2657 7.45467 11.1884 7.20363C11.1346 7.02899 10.8643 7.02866 10.8102 7.2032C10.8059 7.21717 10.8015 7.23126 10.7971 7.24547C10.7198 7.51511 10.6425 7.77545 10.5652 8.0265C10.4976 8.26825 10.4444 8.44026 10.4058 8.54254L9.66667 10.8577H12.3623Z" fill="white"/>
</g>
<defs>
<linearGradient id="paint0_linear_2312_6417" x1="11" y1="0.429687" x2="11" y2="20.6594" gradientUnits="userSpaceOnUse">
<stop stop-color="#D5BDFF"/>
<stop offset="1" stop-color="#C29EFF"/>
</linearGradient>
<linearGradient id="paint1_linear_2312_6417" x1="11.0002" y1="2.73291" x2="11.0002" y2="18.6399" gradientUnits="userSpaceOnUse">
<stop stop-color="#A169FF"/>
<stop offset="1" stop-color="#792AFF"/>
</linearGradient>
<clipPath id="clip0_2312_6417">
<rect width="22" height="22" fill="white"/>
</clipPath>
</defs>
</svg>
