<svg width="25" height="25" viewBox="0 0 25 25" fill="none" xmlns="http://www.w3.org/2000/svg">
<g clip-path="url(#clip0_2312_6387)">
<path d="M9.04025 17.0781C4.57143 17.0781 0.94873 13.4554 0.94873 8.98654C0.94873 4.51771 4.57143 0.89502 9.04025 0.89502C13.5091 0.89502 17.1318 4.51771 17.1318 8.98654C17.1318 9.36222 17.1062 9.73189 17.0566 10.094" fill="#792AFF" fill-opacity="0.75"/>
<path d="M9.04025 17.0781C4.57143 17.0781 0.94873 13.4554 0.94873 8.98654C0.94873 4.51771 4.57143 0.89502 9.04025 0.89502C13.5091 0.89502 17.1318 4.51771 17.1318 8.98654C17.1318 9.36221 17.1062 9.73189 17.0566 10.094" stroke="#1A1818" stroke-width="1.2" stroke-linecap="round"/>
<path d="M12.4443 24.105V14.7299C12.4443 14.1379 12.6795 13.5702 13.0981 13.1516C13.5167 12.733 14.0845 12.4978 14.6765 12.4978C15.2685 12.4978 15.8362 12.733 16.2548 13.1516C16.6734 13.5702 16.9086 14.1379 16.9086 14.7299V19.6407H20.4801C21.4273 19.6407 22.3357 20.0169 23.0055 20.6868C23.6751 21.3564 24.0516 22.2648 24.0516 23.2121V24.105" fill="white"/>
<path d="M12.4443 24.105V14.7299C12.4443 14.1379 12.6795 13.5702 13.0981 13.1516C13.5167 12.733 14.0845 12.4978 14.6765 12.4978C15.2685 12.4978 15.8362 12.733 16.2548 13.1516C16.6734 13.5702 16.9086 14.1379 16.9086 14.7299V19.6407H20.4801C21.4273 19.6407 22.3357 20.0169 23.0055 20.6868C23.6751 21.3564 24.0516 22.2648 24.0516 23.2121V24.105" stroke="#1A1818" stroke-width="1.2" stroke-linecap="round" stroke-linejoin="round"/>
<path d="M8.57143 5.66667V4M8.57143 14V12.3333M6 9H9.42857C9.88323 9 10.3193 8.8244 10.6408 8.51184C10.9622 8.19928 11.1429 7.77536 11.1429 7.33333C11.1429 6.89131 10.9622 6.46738 10.6408 6.15482C10.3193 5.84226 9.88323 5.66667 9.42857 5.66667H6V9ZM6 9H10.2857C10.7404 9 11.1764 9.17559 11.4979 9.48816C11.8194 9.80072 12 10.2246 12 10.6667C12 11.1087 11.8194 11.5326 11.4979 11.8452C11.1764 12.1577 10.7404 12.3333 10.2857 12.3333H6V9Z" stroke="white" stroke-width="1.2" stroke-linecap="round" stroke-linejoin="round"/>
</g>
<defs>
<clipPath id="clip0_2312_6387">
<rect width="25" height="25" fill="white"/>
</clipPath>
</defs>
</svg>
