<svg width="26" height="23" viewBox="0 0 26 23" fill="none" xmlns="http://www.w3.org/2000/svg">
<path d="M21.752 20H4.25195V21.25C4.25195 21.9404 3.6923 22.5 3.00195 22.5H1.75195C1.0616 22.5 0.501953 21.9404 0.501953 21.25V10L3.64363 1.62219C4.00954 0.646437 4.94234 0 5.98445 0H20.0195C21.0616 0 21.9943 0.646437 22.3603 1.62219L25.502 10V21.25C25.502 21.9404 24.9423 22.5 24.252 22.5H23.002C22.3116 22.5 21.752 21.9404 21.752 21.25V20ZM3.17195 10H22.832L20.0195 2.5H5.98445L3.17195 10ZM6.12695 16.25C7.16249 16.25 8.00195 15.4105 8.00195 14.375C8.00195 13.3395 7.16249 12.5 6.12695 12.5C5.09142 12.5 4.25195 13.3395 4.25195 14.375C4.25195 15.4105 5.09142 16.25 6.12695 16.25ZM19.877 16.25C20.9125 16.25 21.752 15.4105 21.752 14.375C21.752 13.3395 20.9125 12.5 19.877 12.5C18.8415 12.5 18.002 13.3395 18.002 14.375C18.002 15.4105 18.8415 16.25 19.877 16.25Z" fill="#995DFE"/>
</svg>
