<svg width="74" height="40" viewBox="0 0 74 40" fill="none" xmlns="http://www.w3.org/2000/svg">
<path d="M40 36.5C42.4292 36.5 44.7833 35.6577 46.6611 34.1166C48.5389 32.5755 49.8243 30.431 50.2982 28.0484C50.7722 25.6659 50.4053 23.1927 49.2602 21.0503C48.115 18.9079 46.2625 17.2289 44.0182 16.2993C41.7739 15.3696 39.2766 15.247 36.952 15.9521C34.6274 16.6573 32.6192 18.1467 31.2696 20.1665C29.92 22.1863 29.3125 24.6116 29.5506 27.0292C29.7887 29.4467 30.8577 31.7069 32.5754 33.4246" stroke="white" stroke-width="1.2" stroke-linecap="round"/>
<path d="M44.6667 23.6667L40.2355 28.9843C39.5799 29.771 39.2521 30.1643 38.8115 30.1843C38.371 30.2043 38.0089 29.8422 37.2848 29.1181L35.3334 27.1667" stroke="white" stroke-width="1.2" stroke-linecap="round"/>
<g opacity="0.3">
<path d="M66.7892 3.1749C66.9407 3.31915 67.1418 3.3996 67.351 3.3996C67.5601 3.3996 67.7612 3.31915 67.9127 3.1749C67.9925 3.10467 68.0564 3.01824 68.1001 2.92138C68.1439 2.82453 68.1666 2.71945 68.1666 2.61316C68.1666 2.50688 68.1439 2.4018 68.1001 2.30495C68.0564 2.20809 67.9925 2.12166 67.9127 2.05143L66.1151 0.253861C66.0449 0.174084 65.9585 0.110184 65.8616 0.0664115C65.7648 0.0226394 65.6597 0 65.5534 0C65.4471 0 65.342 0.0226394 65.2452 0.0664115C65.1483 0.110184 65.0619 0.174084 64.9917 0.253861C64.9119 0.324098 64.848 0.410522 64.8042 0.507381C64.7604 0.604239 64.7378 0.70931 64.7378 0.8156C64.7378 0.921889 64.7604 1.02696 64.8042 1.12382C64.848 1.22068 64.9119 1.3071 64.9917 1.37734L66.7892 3.1749Z" fill="white"/>
<path d="M72.5198 8.90513C72.6713 9.04937 72.8724 9.12982 73.0815 9.12982C73.2907 9.12982 73.4918 9.04937 73.6433 8.90513C73.7231 8.83489 73.787 8.74847 73.8307 8.65161C73.8745 8.55475 73.8971 8.44968 73.8971 8.34339C73.8971 8.2371 73.8745 8.13203 73.8307 8.03517C73.787 7.93831 73.7231 7.85189 73.6433 7.78165L71.8457 5.98408C71.7755 5.90431 71.6891 5.84041 71.5922 5.79664C71.4953 5.75286 71.3903 5.73022 71.284 5.73022C71.1777 5.73022 71.0726 5.75286 70.9758 5.79664C70.8789 5.84041 70.7925 5.90431 70.7222 5.98408C70.4975 6.32113 70.3852 6.88287 70.7222 7.10756L72.5198 8.90513Z" fill="white"/>
<path d="M65.665 9.13023C65.8733 9.126 66.0729 9.04613 66.2267 8.90553L68.0243 7.10797C68.1668 6.95769 68.2451 6.75769 68.2423 6.55057C68.2396 6.34345 68.1561 6.14559 68.0096 5.99912C67.8632 5.85265 67.6653 5.76916 67.4582 5.76643C67.2511 5.76369 67.0511 5.84194 66.9008 5.98449L65.1032 7.78206C65.0234 7.85229 64.9595 7.93872 64.9158 8.03558C64.872 8.13243 64.8494 8.23751 64.8494 8.3438C64.8494 8.45008 64.872 8.55516 64.9158 8.65201C64.9595 8.74887 65.0234 8.8353 65.1032 8.90553C65.257 9.04613 65.4567 9.126 65.665 9.13023Z" fill="white"/>
<path d="M71.2831 3.3996C71.4914 3.39537 71.6911 3.3155 71.8449 3.1749L73.6424 1.37734C73.7222 1.3071 73.7861 1.22068 73.8299 1.12382C73.8737 1.02696 73.8963 0.921889 73.8963 0.8156C73.8963 0.70931 73.8737 0.604239 73.8299 0.507381C73.7861 0.410522 73.7222 0.324098 73.6424 0.253861C73.5722 0.174084 73.4858 0.110184 73.3889 0.0664115C73.2921 0.0226394 73.187 0 73.0807 0C72.9744 0 72.8693 0.0226394 72.7725 0.0664115C72.6756 0.110184 72.5892 0.174084 72.519 0.253861L70.7214 2.05143C70.6416 2.12166 70.5777 2.20809 70.5339 2.30495C70.4902 2.4018 70.4675 2.50687 70.4675 2.61316C70.4675 2.71945 70.4902 2.82453 70.5339 2.92138C70.5777 3.01824 70.6416 3.10467 70.7214 3.1749C70.788 3.25731 70.8746 3.32125 70.9729 3.36059C71.0713 3.39994 71.1781 3.41337 71.2831 3.3996Z" fill="white"/>
</g>
<path opacity="0.3" d="M68.5925 32.2719C69.69 32.2553 70.7379 31.8119 71.5141 31.0358C72.2902 30.2596 72.7336 29.2117 72.7502 28.1142C72.7502 27.0115 72.3122 25.954 71.5325 25.1743C70.7527 24.3946 69.6952 23.9565 68.5925 23.9565C67.4898 23.9565 66.4323 24.3946 65.6526 25.1743C64.8729 25.954 64.4348 27.0115 64.4348 28.1142C64.4335 28.6606 64.5402 29.2018 64.7486 29.7069C64.9571 30.2119 65.2633 30.6707 65.6497 31.0571C66.036 31.4434 66.4949 31.7496 66.9999 31.9581C67.5049 32.1666 68.0462 32.2732 68.5925 32.2719ZM68.5925 25.6418C69.0815 25.6418 69.5596 25.7868 69.9662 26.0584C70.3728 26.3301 70.6897 26.7163 70.8768 27.1681C71.0639 27.6198 71.1129 28.117 71.0175 28.5966C70.9221 29.0762 70.6866 29.5168 70.3408 29.8625C69.9951 30.2083 69.5545 30.4438 69.0749 30.5392C68.5953 30.6346 68.0981 30.5856 67.6464 30.3985C67.1946 30.2114 66.8084 29.8945 66.5367 29.4879C66.2651 29.0813 66.12 28.6032 66.12 28.1142C66.1257 27.4602 66.3879 26.8346 66.8504 26.3721C67.3129 25.9097 67.9385 25.6474 68.5925 25.6418Z" fill="white"/>
<g opacity="0.3">
<path d="M10.9511 10.7006H26.3461C26.4534 10.7076 26.561 10.6925 26.6623 10.6562C26.7636 10.6199 26.8563 10.5632 26.9348 10.4897C27.0133 10.4161 27.0758 10.3272 27.1186 10.2285C27.1614 10.1298 27.1835 10.0234 27.1835 9.91583C27.1835 9.80826 27.1614 9.70184 27.1186 9.60314C27.0758 9.50444 27.0133 9.41556 26.9348 9.34201C26.8563 9.26845 26.7636 9.21177 26.6623 9.17549C26.561 9.1392 26.4534 9.12408 26.3461 9.13105H10.9511C10.8472 9.12856 10.7438 9.1472 10.6472 9.18584C10.5507 9.22448 10.463 9.28232 10.3895 9.35585C10.3159 9.42937 10.2581 9.51707 10.2195 9.61361C10.1808 9.71015 10.1622 9.81353 10.1647 9.91748C10.0523 10.3702 10.5017 10.7006 10.9511 10.7006Z" fill="white"/>
<path d="M0.837385 10.7009H5.78152C5.88886 10.7078 5.99649 10.6927 6.09775 10.6564C6.19901 10.6201 6.29176 10.5635 6.37024 10.4899C6.44873 10.4163 6.51129 10.3275 6.55406 10.2288C6.59683 10.1301 6.6189 10.0236 6.6189 9.91607C6.6189 9.80851 6.59683 9.70208 6.55406 9.60338C6.51129 9.50468 6.44873 9.41581 6.37024 9.34225C6.29176 9.26869 6.19901 9.21202 6.09775 9.17573C5.99649 9.13945 5.88886 9.12432 5.78152 9.13129H0.837385C0.730043 9.12432 0.622413 9.13945 0.52115 9.17573C0.419887 9.21202 0.327144 9.26869 0.248657 9.34225C0.170169 9.41581 0.107607 9.50468 0.0648369 9.60338C0.0220672 9.70208 0 9.80851 0 9.91607C0 10.0236 0.0220672 10.1301 0.0648369 10.2288C0.107607 10.3275 0.170169 10.4163 0.248657 10.4899C0.327144 10.5635 0.419887 10.6201 0.52115 10.6564C0.622413 10.6927 0.730043 10.7078 0.837385 10.7009Z" fill="white"/>
<path d="M12.4117 15.1985C12.4142 15.0945 12.3955 14.9912 12.3569 14.8946C12.3183 14.7981 12.2604 14.7104 12.1869 14.6369C12.1134 14.5633 12.0257 14.5055 11.9291 14.4668C11.8326 14.4282 11.7292 14.4096 11.6253 14.4121H0.837385C0.730043 14.4051 0.622413 14.4202 0.52115 14.4565C0.419887 14.4928 0.327144 14.5495 0.248657 14.623C0.170169 14.6966 0.107607 14.7854 0.0648369 14.8841C0.0220672 14.9828 0 15.0893 0 15.1968C0 15.3044 0.0220672 15.4108 0.0648369 15.5095C0.107607 15.6082 0.170169 15.6971 0.248657 15.7707C0.327144 15.8442 0.419887 15.9009 0.52115 15.9372C0.622413 15.9735 0.730043 15.9886 0.837385 15.9816H11.6253C11.7289 15.9841 11.832 15.9656 11.9283 15.9271C12.0247 15.8887 12.1122 15.8311 12.1857 15.758C12.2592 15.6848 12.3171 15.5975 12.3559 15.5013C12.3948 15.4052 12.4137 15.3022 12.4117 15.1985Z" fill="white"/>
<path d="M16.2324 14.4121C16.1251 14.4051 16.0174 14.4202 15.9162 14.4565C15.8149 14.4928 15.7222 14.5495 15.6437 14.623C15.5652 14.6966 15.5026 14.7854 15.4599 14.8841C15.4171 14.9828 15.395 15.0893 15.395 15.1968C15.395 15.3044 15.4171 15.4108 15.4599 15.5095C15.5026 15.6082 15.5652 15.6971 15.6437 15.7707C15.7222 15.8442 15.8149 15.9009 15.9162 15.9372C16.0174 15.9735 16.1251 15.9886 16.2324 15.9816H19.716C19.8234 15.9886 19.931 15.9735 20.0322 15.9372C20.1335 15.9009 20.2263 15.8442 20.3047 15.7707C20.3832 15.6971 20.4458 15.6082 20.4886 15.5095C20.5313 15.4108 20.5534 15.3044 20.5534 15.1968C20.5534 15.0893 20.5313 14.9828 20.4886 14.8841C20.4458 14.7854 20.3832 14.6966 20.3047 14.623C20.2263 14.5495 20.1335 14.4928 20.0322 14.4565C19.931 14.4202 19.8234 14.4051 19.716 14.4121H16.2324Z" fill="white"/>
</g>
</svg>
