<svg width="38" height="41" viewBox="0 0 38 41" fill="none" xmlns="http://www.w3.org/2000/svg">
<path d="M37.4993 18.4996C37.4993 8.28246 29.2168 0 18.9996 0C8.78246 0 0.5 8.28246 0.5 18.4996C0.5 27.9735 7.62163 35.7831 16.8033 36.8696L17.8519 38.6855L19.1184 40.8789L20.3849 38.6855L21.4517 36.8375C30.5095 35.6381 37.5 27.8854 37.5 18.4996H37.4993Z" fill="#792AFF" fill-opacity="0.08"/>
<path d="M17.5064 19.8426L17.0721 13.3418C16.9905 12.0753 16.9497 11.1659 16.9497 10.6143C16.9497 9.86372 17.1465 9.27784 17.54 8.85664C17.9335 8.43618 18.4516 8.22559 19.0936 8.22559C19.8711 8.22559 20.3914 8.49448 20.6544 9.03299C20.9168 9.57151 21.0479 10.3468 21.0479 11.3605C21.0479 11.9573 21.0159 12.5643 20.9532 13.1793L20.3695 19.8696C20.3061 20.666 20.1706 21.2767 19.9622 21.7015C19.7538 22.1271 19.4098 22.3391 18.9311 22.3391C18.4523 22.3391 18.1032 22.1337 17.9131 21.7219C17.7229 21.3102 17.5873 20.6835 17.5057 19.8426H17.5064ZM19.0134 28.7722C18.461 28.7722 17.9794 28.5936 17.5684 28.2358C17.1567 27.8788 16.9512 27.3789 16.9512 26.7362C16.9512 26.1751 17.1479 25.6977 17.5414 25.3042C17.9349 24.9107 18.4166 24.714 18.9864 24.714C19.5563 24.714 20.0423 24.9107 20.4453 25.3042C20.8476 25.6977 21.0494 26.1751 21.0494 26.7362C21.0494 27.3694 20.8461 27.8671 20.4387 28.2293C20.0314 28.5914 19.5563 28.7722 19.0141 28.7722H19.0134Z" fill="#792AFF" fill-opacity="0.15"/>
</svg>
