<svg width="106" height="48" viewBox="0 0 106 48" fill="none" xmlns="http://www.w3.org/2000/svg">
<g opacity="0.8" clip-path="url(#clip0_2312_3247)">
<path opacity="0.15" d="M58.316 67.8205C76.1637 67.8205 90.6321 53.3099 90.6321 35.4103C90.6321 17.5106 76.1637 3 58.316 3C40.4684 3 26 17.5106 26 35.4103C26 53.3099 40.4684 67.8205 58.316 67.8205Z" fill="#FF9300"/>
<path opacity="0.5" d="M58.3158 56.5217C69.9415 56.5217 79.366 47.0698 79.366 35.4102C79.366 23.7506 69.9415 14.2986 58.3158 14.2986C46.6901 14.2986 37.2656 23.7506 37.2656 35.4102C37.2656 47.0698 46.6901 56.5217 58.3158 56.5217Z" fill="url(#paint0_linear_2312_3247)"/>
<path fill-rule="evenodd" clip-rule="evenodd" d="M73 16.8974C66.8729 23.6784 58.0564 29.0157 47.431 31.1975C45.6162 28.1562 44.1371 25.0259 43 21.8609C52.2939 20.6059 59.9912 16.4166 65.2751 11C67.5698 13.177 70.1511 15.1616 73 16.8974Z" fill="#792AFF" fill-opacity="0.5"/>
<path fill-rule="evenodd" clip-rule="evenodd" d="M72.0916 16.9952C66.1588 23.3458 57.7945 28.3477 47.7618 30.5006C46.1844 27.8428 44.8613 25.1153 43.8033 22.3577C52.7218 20.9921 60.148 16.9543 65.3599 11.7433C67.3883 13.6558 69.6374 15.4205 72.0916 16.9952Z" fill="url(#paint1_linear_2312_3247)"/>
<path fill-rule="evenodd" clip-rule="evenodd" d="M64.0405 15.7308C63.4036 16.2537 62.5687 16.47 61.7998 16.3763C58.5107 18.7708 54.6711 20.7483 50.3828 22.1078C50.1249 22.8074 49.4651 23.4085 48.4971 23.6597C47.5267 23.9134 46.5371 24.1357 45.5283 24.3257C46.1317 25.66 46.7986 26.9835 47.5267 28.2902C48.5943 28.057 49.6427 27.7913 50.6719 27.4908C51.6663 27.2035 52.7398 27.2275 53.6743 27.4956C58.3764 25.8139 62.5879 23.4674 66.2033 20.6653C66.2668 19.9741 66.6435 19.2697 67.302 18.7071C68.1765 17.9618 69.0089 17.1877 69.8018 16.3871C68.6059 15.5144 67.4639 14.5972 66.3808 13.6367C65.6395 14.3592 64.8574 15.0576 64.0393 15.7308H64.0405Z" fill="#F9F9F9"/>
<path fill-rule="evenodd" clip-rule="evenodd" d="M61.543 20.2243C62.9021 21.6848 62.7774 23.7476 60.9553 24.7778C59.138 25.808 56.4775 25.2129 55.3187 23.5336C54.1576 21.8567 54.7634 19.9021 56.3743 19.0823C57.9937 18.2661 60.172 18.7565 61.543 20.2243Z" fill="#792AFF" fill-opacity="0.5"/>
<path fill-rule="evenodd" clip-rule="evenodd" d="M53.1937 24.6832C53.6328 25.3443 53.2729 26.1557 52.3397 26.4707C51.4088 26.7856 50.2873 26.4526 49.889 25.7566C49.4908 25.0606 49.9346 24.2949 50.8247 24.0148C51.7171 23.7359 52.7547 24.0232 53.1937 24.6832Z" fill="#792AFF" fill-opacity="0.5"/>
<path fill-rule="evenodd" clip-rule="evenodd" d="M65.9021 17.3469C66.4743 17.859 66.4167 18.7281 65.7162 19.2823C65.0181 19.8376 63.9637 19.8304 63.4263 19.2775C62.8818 18.7245 63.0293 17.871 63.695 17.3589C64.362 16.8469 65.3252 16.8384 65.901 17.3481L65.9021 17.3469Z" fill="#792AFF" fill-opacity="0.5"/>
<path d="M59.8316 21.3225C60.0299 21.3837 60.1898 21.5127 60.3118 21.7094C60.51 22.0294 60.5635 22.3425 60.4723 22.6489C60.3811 22.9553 60.1579 23.219 59.8027 23.4404L59.6771 23.5187L59.9806 24.0086L59.7293 24.1653L59.4257 23.6754L58.4807 24.2644L56.6282 21.2748C56.589 21.2115 56.5516 21.1701 56.5163 21.1504C56.4809 21.131 56.4389 21.1155 56.3901 21.1044C56.3598 21.1004 56.3351 21.0925 56.3164 21.0812C56.2977 21.0697 56.2845 21.0503 56.2767 21.0228C56.2509 20.9511 56.2469 20.8716 56.2648 20.7842C56.2826 20.6968 56.3218 20.6343 56.3821 20.5967C56.4457 20.557 56.5213 20.5515 56.6086 20.5801L57.257 20.176L56.9502 19.681L57.2016 19.5243L57.5084 20.0193L57.6189 19.9504C57.9438 19.7479 58.2537 19.6725 58.5485 19.7245C58.843 19.7765 59.0761 19.9409 59.2475 20.2175C59.3734 20.4207 59.4251 20.6091 59.4026 20.7826C59.38 20.9561 59.3002 21.1272 59.1631 21.2956L59.1724 21.3107C59.4134 21.2576 59.6332 21.2616 59.8313 21.3227L59.8316 21.3225ZM57.729 21.9262L58.1713 21.6505L57.5083 20.5807L57.066 20.8564L57.729 21.9262ZM59.1749 23.2704L58.4252 22.0605L57.9829 22.3362L58.7326 23.5461L59.1749 23.2704ZM57.7596 20.4241L58.4226 21.4939L58.4275 21.4908C58.6252 21.3676 58.7526 21.2247 58.8098 21.062C58.8668 20.8995 58.8387 20.7265 58.725 20.5431C58.628 20.3865 58.5013 20.2909 58.3454 20.2565C58.1893 20.2221 58.0191 20.2623 57.8349 20.3771L57.7594 20.4242L57.7596 20.4241ZM59.9108 22.597C59.9556 22.4259 59.9151 22.2386 59.789 22.0352C59.6713 21.8453 59.5193 21.7368 59.3329 21.7097C59.1465 21.6827 58.9428 21.7379 58.7216 21.8757L58.6764 21.9039L59.4261 23.1138L59.5267 23.0511C59.7378 22.9195 59.8657 22.7682 59.9106 22.5969L59.9108 22.597Z" fill="white"/>
<path fill-rule="evenodd" clip-rule="evenodd" d="M83.0931 43.4133C83.7992 42.426 84.8229 41.5883 85.0743 40.4006C85.3732 38.9969 84.4878 37.5832 84.6156 36.155C84.7772 34.3564 86.4334 33.1117 87.2843 31.5217C88.1195 29.9651 87.6674 29.4778 87.6586 27.7104C87.6488 25.048 89.6502 21.5817 92.5938 22.3325C95.5813 23.0955 95.2408 25.8593 94.8303 27.9488C94.5365 29.4362 94.7887 29.6354 95.2208 31.0869C95.7449 32.8415 97.2289 34.4858 96.7345 36.2487C96.429 37.3392 95.4173 38.1155 95.092 39.2012C94.7242 40.431 95.3116 41.7123 95.576 42.9675C96.1356 45.6118 95.6429 47.859 93.8238 50.1579C93.6017 50.3939 93.3685 50.6101 93.123 50.811C90.4441 50.8121 87.4567 50.8421 84.2082 50.8971C84.1613 50.8546 84.1156 50.8106 84.0692 50.7652C82.2021 48.9205 81.5047 45.6301 83.0938 43.4132L83.0931 43.4133Z" fill="#792AFF" fill-opacity="0.5"/>
<path fill-rule="evenodd" clip-rule="evenodd" d="M91.5243 24.8146C91.5629 24.6924 91.6946 24.6255 91.818 24.6655C91.9401 24.7056 92.0068 24.8376 91.9668 24.9599C91.7677 25.5734 91.6075 26.2132 91.4753 26.8783C91.5386 26.8149 91.6048 26.7528 91.6732 26.6914C91.9751 26.4209 92.3241 26.1806 92.7138 25.9708C92.8269 25.9085 92.9672 25.9527 93.0293 26.0653C93.0894 26.1796 93.046 26.3194 92.9335 26.3817C92.5741 26.5747 92.2573 26.7946 91.9822 27.0397C91.7225 27.2733 91.4985 27.5296 91.3113 27.8115C91.0871 29.2476 90.9715 30.7867 90.8789 32.4072C91.1262 31.973 91.3953 31.5825 91.6839 31.2345C92.1847 30.6287 92.7491 30.1484 93.3772 29.796C93.4895 29.7315 93.631 29.772 93.6939 29.8847C93.7559 29.9959 93.7177 30.1384 93.6053 30.2006C93.0293 30.5251 92.5086 30.9697 92.0417 31.5326C91.5789 32.0916 91.1706 32.7695 90.818 33.5626L90.795 34.0019C90.7454 34.9677 90.6936 35.9589 90.6261 36.9712C90.6266 36.9806 90.6264 36.99 90.6233 37.0003C90.5524 38.0577 90.4604 39.1393 90.3317 40.2403C90.7943 39.4365 91.2997 38.7232 91.8487 38.096C92.6515 37.1769 93.5464 36.4471 94.5341 35.9074C94.6465 35.8452 94.7875 35.8879 94.8496 35.9998C94.9103 36.1133 94.8691 36.2545 94.7566 36.316C93.8182 36.8315 92.9642 37.5265 92.1982 38.4024C91.4336 39.2775 90.7542 40.3329 90.1583 41.5673C89.947 43.0295 89.6584 44.521 89.251 46.036L89.2491 46.0412C89.0494 46.7844 88.8211 47.5334 88.5589 48.2856C89.2315 47.6448 89.95 47.0835 90.7188 46.6021C91.7894 45.9299 92.9475 45.4155 94.196 45.0579C94.3192 45.0219 94.4479 45.0935 94.4831 45.2177C94.5199 45.3418 94.4477 45.4708 94.3238 45.5069C93.1159 45.853 91.9944 46.3503 90.9652 46.9957C89.9464 47.6348 89.0133 48.4222 88.1642 49.356C87.9688 49.8578 87.7583 50.3619 87.5304 50.866L87.0155 50.8716C87.7803 49.2114 88.3558 47.5639 88.7945 45.9415C88.8228 44.8001 88.6306 43.6715 88.2164 42.5551C87.7965 41.4238 87.1492 40.2991 86.2721 39.1877C86.1932 39.0868 86.2102 38.9389 86.3095 38.8606C86.4102 38.7801 86.5563 38.7972 86.6367 38.8981C87.5419 40.05 88.2135 41.2133 88.6503 42.3916C88.8985 43.061 89.0718 43.735 89.1685 44.4108C89.7364 41.8526 89.9957 39.366 90.1578 36.9982C89.835 36.014 89.4876 35.186 89.1149 34.5128C88.7453 33.8424 88.3541 33.3302 87.9416 32.98C87.8448 32.8959 87.833 32.7495 87.9168 32.651C88 32.554 88.1468 32.5407 88.2429 32.6248C88.7008 33.0147 89.1266 33.5686 89.5225 34.2869C89.7694 34.734 90.0052 35.2462 90.2322 35.8255C90.2681 35.2001 90.2994 34.5836 90.3312 33.9765L90.3563 33.506C90.3558 33.4966 90.3562 33.49 90.3571 33.4806C90.5234 30.2637 90.7089 27.3363 91.5265 24.8145L91.5243 24.8146Z" fill="white"/>
<path fill-rule="evenodd" clip-rule="evenodd" d="M91.0818 44.2783C91.8668 43.8005 92.8273 43.5207 93.3525 42.768C93.974 41.8785 93.7771 40.6307 94.2875 39.6745C94.9318 38.4688 96.4526 38.0936 97.5182 37.2392C98.5593 36.4006 98.3863 35.9293 98.9034 34.6947C99.6841 32.836 102.104 31.0167 103.933 32.413C105.788 33.8325 104.733 35.6568 103.83 36.9896C103.185 37.9381 103.301 38.1523 103.175 39.2915C103.021 40.6697 103.568 42.2565 102.701 43.3367C102.167 44.0059 101.233 44.2459 100.685 44.9056C100.066 45.6523 100.097 46.7196 99.9103 47.6736C99.6588 48.9576 99.1551 50.001 98.3169 50.864C95.9885 50.8239 93.2897 50.8173 90.2759 50.8385C89.9929 50.4916 89.7584 50.1047 89.5876 49.6891C88.8329 47.8501 89.3207 45.3503 91.0826 44.2783L91.0818 44.2783Z" fill="url(#paint2_linear_2312_3247)"/>
<path fill-rule="evenodd" clip-rule="evenodd" d="M102.36 33.7733C102.423 33.6991 102.534 33.692 102.606 33.7563C102.68 33.8191 102.688 33.9303 102.625 34.0052C102.305 34.3722 102.003 34.7716 101.715 35.1956C101.778 35.1706 101.843 35.147 101.909 35.1248C102.198 35.0266 102.512 34.9612 102.846 34.9302C102.942 34.9209 103.027 34.9933 103.037 35.0913C103.045 35.1872 102.974 35.2727 102.878 35.282C102.569 35.3109 102.284 35.3691 102.019 35.4587C101.768 35.5426 101.538 35.6552 101.324 35.7965C100.742 36.7296 100.207 37.7674 99.6645 38.8679C99.9651 38.641 100.267 38.448 100.571 38.2904C101.1 38.0176 101.635 37.851 102.177 37.7913C102.273 37.7813 102.36 37.8521 102.37 37.9472C102.382 38.0443 102.311 38.1313 102.216 38.1434C101.719 38.1965 101.224 38.3517 100.734 38.605C100.245 38.8583 99.7614 39.2077 99.2813 39.6553L99.1348 39.9547C98.8158 40.6128 98.4861 41.2874 98.1403 41.9729C98.1363 41.9796 98.1338 41.9856 98.1305 41.9922C97.7682 42.7083 97.384 43.4335 96.9697 44.1624C97.5284 43.7403 98.0924 43.3934 98.6587 43.1202C99.4887 42.7182 100.329 42.4758 101.176 42.3916C101.274 42.3822 101.359 42.4546 101.369 42.5511C101.377 42.6471 101.306 42.734 101.211 42.7432C100.406 42.8231 99.6057 43.0555 98.8108 43.4375C98.0203 43.82 97.2361 44.3543 96.4545 45.0384C95.876 45.9923 95.2347 46.9465 94.5013 47.8794L94.4986 47.8839L94.4972 47.884C94.1398 48.342 93.7597 48.7953 93.3533 49.2421C94.012 48.9938 94.6786 48.8175 95.3567 48.7088C96.2994 48.5595 97.2591 48.5456 98.2337 48.6671C98.3311 48.6787 98.3992 48.7665 98.3883 48.8633C98.3766 48.9595 98.2876 49.0286 98.1902 49.0169C97.2454 48.899 96.3189 48.9127 95.4107 49.0579C94.5126 49.2012 93.6289 49.472 92.7626 49.8707C92.4445 50.1942 92.1147 50.5139 91.7689 50.83L91.2371 50.8321C92.3781 49.829 93.3558 48.7676 94.2106 47.6778C94.5678 46.8925 94.7688 46.0478 94.8095 45.1477C94.853 44.2337 94.7315 43.2579 94.4502 42.223C94.4251 42.1287 94.4801 42.0317 94.5742 42.0066C94.6683 41.9808 94.7651 42.0359 94.7902 42.1302C95.0827 43.2 95.2052 44.2105 95.1608 45.163C95.1356 45.7023 95.0567 46.222 94.9248 46.7227C96.0779 45.1085 96.9941 43.4536 97.8068 41.8518C97.8716 41.0721 97.8744 40.3911 97.8143 39.8105C97.7544 39.2335 97.6349 38.7624 97.4506 38.3953C97.4079 38.3084 97.4436 38.2016 97.531 38.1587C97.6169 38.1152 97.7228 38.1503 97.7663 38.2371C97.9685 38.6438 98.1025 39.1577 98.1652 39.7758C98.2059 40.1612 98.2176 40.5878 98.2055 41.0578C98.415 40.6334 98.6197 40.2137 98.8204 39.8L98.9774 39.4783C98.9793 39.4732 98.9833 39.4672 98.9852 39.462C100.052 37.2706 101.046 35.2851 102.362 33.7725L102.36 33.7733Z" fill="white"/>
<path d="M14.8188 26.8811C14.4203 27.8318 13.9771 28.8077 13.4899 29.7905C13.0356 30.7041 12.5614 31.5837 12.0797 32.4198L7.50977 31.9482C8.37001 31.7845 9.63307 30.3817 10.6044 28.4343C11.6155 26.4057 11.9581 24.4602 11.4901 23.7217L14.8188 26.8811Z" fill="url(#paint3_linear_2312_3247)"/>
<path d="M39.0415 37.853C39.0415 37.853 37.7257 43.3779 34.7527 46.1822C33.7497 45.6722 32.7659 45.2006 31.8194 44.7712C31.3607 44.5615 30.9132 44.3588 30.4707 44.1693C33.4437 41.3644 34.991 35.4756 34.991 35.4756C36.2454 36.262 37.5898 37.054 39.0421 37.853H39.0415Z" fill="#792AFF" fill-opacity="0.75"/>
<path d="M18.9355 18.8174C19.0541 18.8083 19.1628 18.8837 19.1953 18.998V18.999C19.1955 18.9996 19.196 19.0008 19.1963 19.002C19.1971 19.0048 19.1983 19.0094 19.2002 19.0156C19.2042 19.0288 19.2106 19.0495 19.2197 19.0771C19.2379 19.1324 19.2676 19.2165 19.3096 19.3271C19.3936 19.5484 19.5295 19.8771 19.7363 20.2998C20.1504 21.1459 20.8477 22.3696 21.9766 23.8652C24.234 26.8561 28.2197 30.938 35.123 35.2627C35.1926 35.3063 35.2352 35.3802 35.2402 35.459L35.2324 35.5381V35.54C35.2322 35.5408 35.2318 35.5417 35.2314 35.543C35.2306 35.546 35.2291 35.5508 35.2275 35.5566C35.2244 35.5683 35.22 35.5853 35.2139 35.6074C35.2015 35.6522 35.1835 35.7184 35.1592 35.8027C35.1105 35.9714 35.037 36.2151 34.9404 36.5156C34.7474 37.1164 34.4585 37.9472 34.0762 38.8662C33.3145 40.6967 32.168 42.9108 30.6416 44.3506C30.5689 44.4189 30.4626 44.4371 30.3711 44.3975C29.2252 43.9013 28.1214 43.4602 27.0605 43.0664L27.0586 43.0654C26.4891 42.8489 25.9351 42.6527 25.3916 42.4697V42.4688C16.0083 39.2827 10.4611 40.0378 8.74219 40.4229C8.63426 40.447 8.52369 40.3973 8.46973 40.3008C8.41585 40.2043 8.43168 40.0841 8.50879 40.0049C10.7154 37.7377 13.015 34.4503 14.9521 30.5439C14.9587 30.5301 14.9652 30.5153 14.9727 30.499H14.9736C14.9755 30.4948 14.9784 30.4913 14.9805 30.4873C14.9815 30.4851 14.9823 30.4827 14.9834 30.4805C17.0248 26.3596 18.2873 22.3289 18.6982 19.1006L18.7061 19.0361L18.7158 18.9932C18.7455 18.8963 18.8317 18.8254 18.9355 18.8174Z" fill="url(#paint4_linear_2312_3247)" stroke="#1A1818" stroke-width="0.5" stroke-linejoin="round"/>
<mask id="mask0_2312_3247" style="mask-type:luminance" maskUnits="userSpaceOnUse" x="34" y="37" width="11" height="12">
<path style="mix-blend-mode:multiply" d="M43.3557 45.7092C41.8792 48.392 38.239 48.035 38.239 48.035C37.0429 47.3658 35.8835 46.7506 34.7539 46.1815C37.7269 43.3765 39.0427 37.8523 39.0427 37.8523C40.15 38.4555 41.3106 39.0649 42.5377 39.67C43.4203 40.3311 44.8385 43.0277 43.3557 45.7092Z" fill="url(#paint5_linear_2312_3247)"/>
</mask>
<g mask="url(#mask0_2312_3247)">
<path d="M43.3556 45.7094C41.8791 48.3921 38.2388 48.0352 38.2388 48.0352C37.0428 47.3659 35.8834 46.7507 34.7538 46.1816C37.7268 43.3766 39.0426 37.8524 39.0426 37.8524C40.1499 38.4556 41.3105 39.0651 42.5376 39.6701C43.4202 40.3312 44.8384 43.0278 43.3556 45.7094Z" fill="url(#paint6_linear_2312_3247)"/>
</g>
<path d="M15.2138 30.5575L15.1797 30.6101L15.1911 30.6177L15.2252 30.5652L15.2138 30.5575Z" fill="url(#paint7_linear_2312_3247)"/>
<path d="M11.2614 23.4582L11.2188 23.5039L11.4681 23.7431L11.5108 23.6974L11.2614 23.4582Z" fill="url(#paint8_linear_2312_3247)"/>
<path d="M31.8206 44.7706L24.3776 55.1951C24.0002 55.719 23.2926 55.8713 22.7396 55.5389L18.6178 53.0979C17.9009 52.6723 17.7861 51.6643 18.3993 51.0894L23.6576 46.1249L27.1489 42.832C28.2139 43.2274 29.3224 43.6707 30.4719 44.1687C30.9151 44.3582 31.3626 44.5609 31.8206 44.7706Z" fill="#792AFF"/>
<path d="M27.1465 42.8318L23.6553 46.1247L22.9757 45.587C22.6771 45.354 22.6579 44.9095 22.931 44.6489L23.2183 44.3718L24.9587 42.7216L25.4707 42.2324C26.0169 42.4163 26.5743 42.614 27.1465 42.8318Z" fill="url(#paint9_linear_2312_3247)"/>
<path d="M24.9599 42.7219L23.2195 44.3727L22.9297 44.1713L24.675 42.5273L24.9599 42.7219Z" fill="#792AFF"/>
<path d="M17.2603 12.2682C14.1551 10.6766 8.17928 16.3318 3.92211 24.8983C-0.340634 33.4642 -1.27288 41.692 1.83791 43.2849C3.51868 44.1487 6.04666 42.8838 8.6876 40.1796C10.9158 37.8904 13.2297 34.5805 15.1761 30.6555C15.1841 30.6385 15.1922 30.6208 15.2003 30.6032C15.2009 30.5969 15.2071 30.5982 15.2077 30.5919C17.2584 26.4522 18.5314 22.3949 18.9466 19.1329L18.9547 19.0668C19.3848 15.6291 18.8504 13.0779 17.2603 12.2682ZM13.4897 29.7904C13.0354 30.7039 12.5612 31.5835 12.0796 32.4196L7.50958 31.9481C8.36982 31.7844 9.63288 30.3816 10.6042 28.4342C11.6153 26.4056 11.9579 24.4601 11.4899 23.7215L14.8186 26.8809C14.4201 27.8316 13.9769 28.8076 13.4897 29.7904Z" fill="url(#paint10_linear_2312_3247)"/>
<path d="M14.8187 26.8819L11.4901 23.7225C11.9581 24.461 11.6155 26.4065 10.6044 28.4352C9.63307 30.3826 8.37 31.7853 7.50976 31.949L12.0797 32.4206C8.54441 38.5486 4.43249 42.4277 2.34704 41.3605C-0.0232879 40.1479 1.11874 33.0005 4.89675 25.3998C8.68158 17.7934 13.6693 12.6111 16.039 13.83C18.1015 14.8884 17.5019 20.446 14.8187 26.8819Z" fill="#1A1818" fill-opacity="0.35"/>
<path d="M10.6033 28.4345C9.63198 30.3819 8.36892 31.7846 7.50867 31.9483C7.3355 31.9823 7.18654 31.9641 7.05496 31.8986C6.24561 31.4856 6.52988 29.2693 7.68494 26.9454C8.84062 24.6222 10.4295 23.0695 11.2389 23.4826C11.3419 23.5323 11.4282 23.616 11.4884 23.7218C11.9564 24.4604 11.6138 26.4059 10.6027 28.4345H10.6033Z" fill="url(#paint11_linear_2312_3247)"/>
<path d="M9.98637 28.1202C10.8726 26.3381 11.1737 24.68 10.6589 24.4165C10.1442 24.1531 9.00845 25.3842 8.12222 27.1662C7.236 28.9482 6.93488 30.6064 7.44965 30.8698C7.96442 31.1332 9.10015 29.9022 9.98637 28.1202Z" fill="white"/>
<path fill-rule="evenodd" clip-rule="evenodd" d="M92.2309 18.1755C87.7051 18.665 82.6545 17.7219 77.973 15.0012C78.3022 13.2641 78.7861 11.6056 79.4088 10.0478C83.2876 12.6711 87.5415 13.6698 91.3018 13.4084C91.4372 14.9829 91.7431 16.5811 92.2309 18.1755Z" fill="#792AFF" fill-opacity="0.5"/>
<path fill-rule="evenodd" clip-rule="evenodd" d="M91.859 17.9095C87.548 18.3032 82.7767 17.3855 78.3257 14.8511C78.6166 13.336 79.0254 11.8794 79.5429 10.4998C83.3183 12.957 87.4211 13.922 91.0867 13.7132C91.2102 15.1006 91.465 16.5064 91.859 17.9095Z" fill="url(#paint12_linear_2312_3247)"/>
<path fill-rule="evenodd" clip-rule="evenodd" d="M89.2759 14.7602C88.8656 14.7433 88.4829 14.5462 88.2273 14.2556C86.2097 14.0541 84.1248 13.5141 82.0771 12.5945C81.7496 12.7695 81.305 12.7741 80.8612 12.5458C80.4156 12.3176 79.9733 12.0713 79.5345 11.8066C79.3182 12.5046 79.1291 13.2196 78.9684 13.9488C79.4434 14.2169 79.922 14.4666 80.4049 14.6969C80.8705 14.9205 81.2627 15.2866 81.5223 15.6972C83.8308 16.6343 86.1763 17.1605 88.4503 17.3186C88.7025 17.0821 89.0758 16.9449 89.5073 16.9542C90.0796 16.9673 90.6458 16.9556 91.206 16.921C91.0489 16.198 90.9266 15.4763 90.8405 14.7581C90.3253 14.7808 89.8029 14.781 89.2754 14.7598L89.2759 14.7602Z" fill="#F9F9F9"/>
<path fill-rule="evenodd" clip-rule="evenodd" d="M86.8601 15.6048C86.8836 16.6011 86.1551 17.3284 85.1354 17.1063C84.1174 16.8859 83.3226 15.7793 83.446 14.768C83.5678 13.7569 84.4398 13.2299 85.3113 13.4601C86.1847 13.6945 86.8344 14.6017 86.8601 15.6048Z" fill="#792AFF" fill-opacity="0.5"/>
<path fill-rule="evenodd" clip-rule="evenodd" d="M82.274 14.4896C82.219 14.882 81.8166 15.0647 81.3646 14.8717C80.9136 14.6795 80.6057 14.1824 80.6874 13.7906C80.7691 13.3987 81.1877 13.261 81.612 13.4526C82.0369 13.6455 82.3286 14.0976 82.274 14.4896Z" fill="#792AFF" fill-opacity="0.5"/>
<path fill-rule="evenodd" clip-rule="evenodd" d="M89.4384 15.9835C89.4823 16.3647 89.1734 16.6694 88.7291 16.643C88.2853 16.6178 87.8947 16.2644 87.8773 15.8796C87.8572 15.4924 88.1944 15.2234 88.6118 15.2539C89.0297 15.2849 89.3915 15.6021 89.4375 15.9836L89.4384 15.9835Z" fill="#792AFF" fill-opacity="0.5"/>
<path d="M85.8598 15.4444C85.9135 15.5332 85.9304 15.6345 85.9108 15.7483C85.8789 15.9335 85.7953 16.068 85.66 16.1518C85.5247 16.2357 85.3543 16.2598 85.1487 16.2241L85.076 16.2115L85.0272 16.4951L84.8817 16.4699L84.9305 16.1863L84.3836 16.0916L84.6817 14.3612C84.688 14.3246 84.6878 14.2968 84.6811 14.2777C84.6744 14.2587 84.6638 14.2389 84.6493 14.2186C84.6393 14.2069 84.6327 14.1958 84.6295 14.1854C84.6263 14.1748 84.6278 14.1633 84.634 14.1504C84.6481 14.1151 84.6729 14.0842 84.7085 14.0575C84.744 14.0309 84.7793 14.0206 84.8142 14.0266C84.851 14.033 84.881 14.0561 84.9041 14.0958L85.2794 14.1608L85.3287 13.8743L85.4742 13.8995L85.4249 14.1861L85.4888 14.1971C85.6769 14.2297 85.8173 14.3047 85.91 14.4221C86.0025 14.5394 86.0351 14.6782 86.0075 14.8383C85.9872 14.9559 85.9442 15.0434 85.8784 15.1005C85.8127 15.1577 85.7264 15.1949 85.6195 15.2121L85.618 15.2208C85.7254 15.2811 85.806 15.3557 85.8597 15.4444L85.8598 15.4444ZM84.8766 14.9701L85.1326 15.0145L85.2392 14.3953L84.9832 14.3509L84.8766 14.9701ZM84.971 15.952L85.0916 15.2517L84.8356 15.2074L84.715 15.9076L84.971 15.952ZM85.3847 14.4205L85.278 15.0397L85.2809 15.0402C85.3953 15.06 85.49 15.0491 85.5651 15.0075C85.6401 14.9659 85.6868 14.8921 85.7051 14.7859C85.7207 14.6953 85.7051 14.6175 85.6584 14.5529C85.6116 14.4881 85.5349 14.4465 85.4282 14.428L85.3846 14.4204L85.3847 14.4205ZM85.4679 15.9458C85.5412 15.8969 85.588 15.8136 85.6083 15.6959C85.6272 15.586 85.6064 15.495 85.5459 15.4228C85.4854 15.3508 85.3912 15.3036 85.2632 15.2814L85.237 15.2769L85.1164 15.9772L85.1746 15.9872C85.2968 16.0084 85.3945 15.9946 85.4678 15.9457L85.4679 15.9458Z" fill="white"/>
<path d="M28.371 12.7365C29.9121 11.1909 29.9121 8.68488 28.371 7.13924C26.83 5.59359 24.3314 5.59359 22.7903 7.13924C21.2493 8.68488 21.2493 11.1909 22.7903 12.7365C24.3314 14.2821 26.83 14.2821 28.371 12.7365Z" fill="#792AFF" fill-opacity="0.5"/>
<path d="M44.5721 19.9514C47.9797 19.9514 50.742 17.1808 50.742 13.7632C50.742 10.3455 47.9797 7.57495 44.5721 7.57495C41.1646 7.57495 38.4022 10.3455 38.4022 13.7632C38.4022 17.1808 41.1646 19.9514 44.5721 19.9514Z" fill="#792AFF" fill-opacity="0.5"/>
<path d="M27.4724 10.9564C27.4723 10.9564 27.4723 10.9564 27.4722 10.9563C27.4244 10.8761 26.5374 10.5909 26.2905 10.4227C26.2854 10.4193 26.285 10.412 26.2896 10.4081C26.6699 10.0838 26.9227 9.53921 26.9227 9.05836C26.9227 8.31509 26.3198 7.71069 25.5787 7.71069C24.8377 7.71069 24.235 8.31537 24.235 9.05836C24.235 9.53956 24.4882 10.084 24.8683 10.4082C24.8728 10.4121 24.8724 10.4192 24.8675 10.4227C24.6205 10.591 23.7323 10.8764 23.6852 10.9564C23.4595 11.34 23.7833 11.7687 24.2283 11.7687H27.1983C27.5078 11.7687 27.7333 11.4723 27.599 11.1934C27.5603 11.113 27.5182 11.0341 27.4726 10.9565C27.4726 10.9564 27.4725 10.9564 27.4724 10.9564Z" fill="white"/>
<path d="M62.6567 7.05082C63.9509 5.75281 63.9509 3.64832 62.6567 2.3503C61.3626 1.05229 59.2643 1.05229 57.9701 2.3503C56.676 3.64831 56.676 5.75281 57.9701 7.05082C59.2643 8.34883 61.3626 8.34883 62.6567 7.05082Z" fill="#792AFF" fill-opacity="0.5"/>
<path d="M61.9052 5.55607C61.8655 5.48876 61.1202 5.24921 60.9129 5.10779C60.9087 5.10484 60.9083 5.09891 60.9122 5.09558C61.2316 4.82324 61.4439 4.36608 61.4439 3.96207C61.4439 3.33787 60.9377 2.8302 60.3154 2.8302C59.693 2.8302 59.1869 3.33787 59.1869 3.96207C59.1869 4.36608 59.3992 4.82324 59.7186 5.09558C59.7225 5.09891 59.7221 5.10484 59.7179 5.10779C59.5103 5.24921 58.7645 5.48876 58.725 5.55607C58.5355 5.87816 58.8074 6.23825 59.1811 6.23825H61.4493C61.823 6.23825 62.0945 5.87832 61.9052 5.55607Z" fill="white"/>
<path d="M47.5087 15.3306C47.4357 15.2065 46.0593 14.7641 45.6763 14.5031C45.6686 14.4979 45.668 14.4866 45.6751 14.4805C46.2647 13.9776 46.6568 13.1336 46.6568 12.3875C46.6568 11.2353 45.722 10.2977 44.5729 10.2977C43.4238 10.2977 42.4893 11.235 42.4893 12.3875C42.4893 13.1336 42.8814 13.9776 43.471 14.4805C43.4781 14.4866 43.4775 14.4978 43.4698 14.5031C43.0866 14.7641 41.7096 15.2065 41.6366 15.3306C41.287 15.9254 41.7888 16.59 42.4787 16.59H46.6669C47.3568 16.59 47.8586 15.9251 47.5087 15.3306Z" fill="white"/>
<path d="M29.8594 10.983L38.3049 13.6396" stroke="#792AFF" stroke-opacity="0.5" stroke-width="0.5" stroke-dasharray="2 2"/>
<path d="M50.1948 11.1568L58.0451 6.7558" stroke="#792AFF" stroke-opacity="0.5" stroke-width="0.5" stroke-dasharray="2 2"/>
<g clip-path="url(#clip1_2312_3247)">
<path d="M76.3066 43.1653C75.5785 42.0147 74.4353 41.7035 74.4353 41.7035L71.6956 40.6658H69.0806L66.3409 41.7035C66.3409 41.7035 65.1977 42.0147 64.4696 43.1653H76.3066Z" fill="#FFEBDF"/>
<path d="M66.8135 48.6131H62.5807C62.5807 47.8749 62.6275 46.8212 62.6275 46.8212C62.8768 42.3982 66.0301 41.7035 66.0301 41.7035C68.4893 41.0956 67.1492 44.9817 67.1492 44.9817C67.213 45.9181 67.077 47.1787 66.8121 48.6116L66.8135 48.6131Z" fill="url(#paint13_linear_2312_3247)"/>
<path d="M68.5925 38.0417H72.1836V41.6181H68.5925V38.0417Z" fill="#FFEBDF"/>
<path d="M68.5925 39.7047V38.0417H72.1836V38.8653C71.1594 39.7366 69.9255 39.8466 68.5925 39.7047Z" fill="#EAB894"/>
<path d="M64.7686 48.6132C64.6992 46.6853 64.7205 46.1556 64.7375 45.497C64.7743 44.0323 65.0817 42.7934 66.0266 41.705C66.028 41.705 66.0308 41.705 66.0308 41.705L68.5906 40.8525C68.5906 40.8525 68.0523 41.815 70.4052 41.815C70.4052 41.815 71.955 41.7528 72.1816 40.8525L74.7811 41.705C74.7811 41.705 77.0037 42.2637 77.3848 44.6533L76.0787 47.1079L76.1254 48.6146H64.77L64.7686 48.6132Z" fill="url(#paint14_linear_2312_3247)"/>
<path d="M66.1151 32.7142C66.1151 31.8646 66.1505 31.0165 66.1307 30.1669C66.1179 29.6241 66.0697 29.7645 66.6845 29.7052C67.5373 29.6227 67.8221 31.2408 67.8816 31.9413C67.9637 32.9067 67.7597 33.9459 67.6025 34.8867C67.5458 35.2268 67.5614 35.907 67.2129 36.0677C66.9154 36.2037 66.6038 35.868 66.448 35.619C66.0882 35.0473 66.1519 34.1717 66.1278 33.5233C66.1179 33.2541 66.1151 32.9849 66.1151 32.7157V32.7142Z" fill="#1A1818"/>
<path d="M66.4808 37.544C66.8435 38.9942 67.4823 39.3951 67.4823 39.3951L68.3394 39.5659C68.8324 39.5022 69.6837 39.2967 69.6837 39.2967C71.6415 38.6165 72.2095 38.4326 72.5127 37.6728C72.5254 37.6409 74.0567 32.212 74.0567 32.212C74.3075 29.4172 71.4445 28.8368 71.0125 28.763C70.5847 28.6617 67.8592 27.8888 67.0545 30.5707C67.0545 30.5707 65.8646 33.6781 66.4808 37.544Z" fill="#FFEBDF"/>
<path d="M74.3532 29.647C75.3051 30.1159 75.3377 30.9828 75.2924 31.9699C75.2584 32.7356 75.026 33.3869 74.7583 34.1294C74.4542 34.9727 74.1671 35.637 73.897 36.1223C73.897 36.1223 73.2666 37.1239 72.4549 37.8099C72.6901 36.8576 72.7567 36.147 72.9706 35.4146C73.2284 34.5361 73.1533 33.3608 72.7708 32.4591C72.7708 32.4591 72.5541 31.8585 71.6645 31.6877L74.3546 29.6455" fill="#1A1818"/>
<path d="M72.788 35.2267C72.788 35.2267 73.2725 34.1499 74.0332 34.7881C74.0332 34.7881 74.3802 35.0646 73.9524 35.7854C73.9524 35.7854 73.3334 36.8216 72.5911 36.2471L72.788 35.2267Z" fill="#FFEBDF"/>
<path d="M72.8659 32.7141C72.8659 32.7141 72.863 34.6434 72.516 35.6667L72.8843 35.7419C72.8843 35.7419 73.0783 34.4191 73.7441 34.4032L72.8659 32.7156V32.7141Z" fill="#1A1818"/>
<path d="M65.6416 28.5833C62.5818 31.7674 71.842 31.7356 71.842 31.7356C71.842 31.7356 72.8138 32.1944 74.3508 29.6471C74.3508 29.6471 74.7658 27.6555 70.3872 27.0274C70.3872 27.0274 67.4931 26.6641 65.6416 28.5833Z" fill="#1A1818"/>
<path d="M73.7544 48.6131H77.7109C77.7109 48.6131 77.6968 47.6535 77.6954 47.5855C77.6656 46.6418 77.6075 45.6909 77.4404 44.7617C77.2024 43.433 76.5706 42.2535 75.1795 41.9162C74.5434 41.7614 73.9768 42.155 73.6326 42.6906C73.6326 42.6906 73.0036 43.4837 73.7544 48.6145V48.6131Z" fill="url(#paint15_linear_2312_3247)"/>
</g>
<g clip-path="url(#clip2_2312_3247)">
<path d="M46.6348 31.203C46.6348 31.203 46.9861 30.8888 47.6547 31.4577L47.9664 30.9857C47.9664 30.9857 47.2156 30.4057 46.6348 31.203Z" fill="#1A1818"/>
<path d="M47.8608 29.8228C47.8608 29.8228 47.4458 30.3266 48.0436 30.9011L47.6398 31.2997C47.6398 31.2997 46.7148 30.1923 47.8608 29.8241V29.8228Z" fill="#1A1818"/>
<path d="M46.1562 43.4035C46.8844 42.3031 48.0276 42.0054 48.0276 42.0054L50.7672 41.0129H53.3823L56.122 42.0054C56.122 42.0054 57.2651 42.3031 57.9933 43.4035H46.1562Z" fill="#FFEBDF"/>
<path d="M55.6494 48.6125H59.8822C59.8822 47.9065 59.8354 46.8988 59.8354 46.8988C59.5861 42.6685 56.4328 42.0041 56.4328 42.0041C53.9736 41.4227 55.3137 45.1394 55.3137 45.1394C55.2499 46.035 55.3859 47.2407 55.6508 48.6111L55.6494 48.6125Z" fill="url(#paint16_linear_2312_3247)"/>
<path d="M53.8704 38.5022H50.2793V41.9227H53.8704V38.5022Z" fill="#FFEBDF"/>
<path d="M53.8704 40.0927V38.5022H50.2793V39.2898C51.3035 40.1231 52.5373 40.2283 53.8704 40.0927Z" fill="#EAB894"/>
<path d="M57.6943 48.6125C57.7637 46.7687 57.7424 46.262 57.7254 45.6322C57.6886 44.2314 57.3812 43.0465 56.4363 42.0055C56.4349 42.0055 56.4321 42.0055 56.4321 42.0055L53.8723 41.1902C53.8723 41.1902 54.4106 42.1107 52.0577 42.1107C52.0577 42.1107 50.5079 42.0512 50.2813 41.1902L47.6818 42.0055C47.6818 42.0055 45.4592 42.5398 45.0781 44.8252L46.3842 47.1729L46.3375 48.6139H57.6929L57.6943 48.6125Z" fill="url(#paint17_linear_2312_3247)"/>
<path d="M56.6633 34.2262C56.7653 33.4399 56.5939 32.6855 56.6024 31.9103C56.6081 31.3899 56.5047 30.605 55.8417 30.5385C54.9238 30.4472 54.6404 31.9948 54.5866 32.6661C54.5115 33.5908 54.7467 34.5902 54.9294 35.4955C54.9946 35.8222 54.9889 36.4756 55.3643 36.6334C55.6859 36.7676 56.016 36.4506 56.1803 36.2139C56.5769 35.6436 56.5783 34.8851 56.6619 34.2262H56.6633Z" fill="#1A1818"/>
<path d="M55.9821 38.0259C55.6194 39.4129 54.9805 39.7963 54.9805 39.7963L54.1235 39.9596C53.6305 39.8987 52.7792 39.7022 52.7792 39.7022C50.8214 39.0516 50.2534 38.8758 49.9502 38.1491C49.9375 38.1186 48.4062 32.9263 48.4062 32.9263C48.1554 30.2533 51.0183 29.6983 51.4504 29.6277C51.8782 29.5308 54.6037 28.7916 55.4084 31.3566C55.4084 31.3566 56.5983 34.3286 55.9821 38.0259Z" fill="#FFEBDF"/>
<path d="M56.8807 28.7707C57.0351 29.5998 56.8906 30.7487 56.2333 31.2789C55.5193 31.8534 54.9059 31.6969 54.0461 31.8838C53.1522 32.0776 52.2371 32.1551 51.339 32.324C50.71 32.443 49.9833 32.5109 49.6943 33.1628C49.3118 34.0252 49.2368 35.1492 49.4946 35.9895C49.7085 36.6885 49.7751 37.3696 50.0102 38.2804C49.1985 37.6243 48.5681 36.6664 48.5681 36.6664C48.298 36.2022 48.0109 35.5668 47.7068 34.7603C47.4391 34.0501 47.2082 33.4272 47.1728 32.695C47.1289 31.7509 47.5963 31.3398 48.112 30.4733C48.5965 29.6593 49.2764 29.0946 50.1632 28.8371C50.1632 28.8371 54.6566 29.0835 54.5731 28.0813C54.5731 28.0813 55.6525 28.3512 55.4471 29.0517C55.4471 29.0517 56.5761 28.8496 56.3367 28.0813C56.3367 28.0813 56.7928 28.2917 56.8835 28.772L56.8807 28.7707Z" fill="#1A1818"/>
<path d="M49.6749 35.8096C49.6749 35.8096 49.1904 34.7797 48.4297 35.3902C48.4297 35.3902 48.0827 35.6546 48.5105 36.3439C48.5105 36.3439 49.1295 37.335 49.8718 36.7855L49.6749 35.8096Z" fill="#FFEBDF"/>
<path d="M49.597 33.4067C49.597 33.4067 49.5999 35.2519 49.9469 36.2306L49.5786 36.3026C49.5786 36.3026 49.3845 35.0374 48.7188 35.0221L49.597 33.4081V33.4067Z" fill="#1A1818"/>
<path d="M48.7085 48.6125H44.752C44.752 48.6125 44.7661 47.6947 44.7675 47.6297C44.7973 46.7271 44.8554 45.8177 45.0225 44.929C45.2605 43.6583 45.8923 42.5301 47.2834 42.2076C47.9194 42.0595 48.4861 42.436 48.8303 42.9482C48.8303 42.9482 49.4593 43.7067 48.7085 48.6139V48.6125Z" fill="url(#paint18_linear_2312_3247)"/>
</g>
<g clip-path="url(#clip3_2312_3247)">
<path d="M83.9875 28.3726C83.9875 28.3726 80.5937 29.3625 80.9139 34.5761V45.8138H84.7748L83.9875 28.3726Z" fill="#1A1818"/>
<path d="M83.6016 31.7417V47.8853H90.9842V34.2864C90.9842 34.2864 91.4689 29.07 87.9412 28.4289C87.9412 28.4289 83.6016 27.6663 83.6016 31.7417Z" fill="#1A1818"/>
<path d="M88.5489 42.0786H83.4161V44.5442H88.5489V42.0786Z" fill="#FFEBDF"/>
<path d="M94.2102 48.6125H90.7394L90.1194 46.1808C90.1194 46.1808 89.6144 42.4895 92.2237 42.4373C92.2237 42.4373 93.5772 43.358 93.9468 45.5256C93.9468 45.5256 94.2393 47.2569 94.2117 48.6125H94.2102Z" fill="#FFEBDF"/>
<path d="M82.1527 48.6125L82.6213 46.7781C82.6213 46.7781 83.4509 42.6815 80.8415 42.6293C80.8415 42.6293 78.9526 44.1403 79.0894 48.6125H82.1527Z" fill="#FFEBDF"/>
<path d="M87.9421 37.0994H84.7754V41.5984H87.9421V37.0994Z" fill="#FFEBDF"/>
<path d="M87.9421 38.9364V37.1006H84.7754V39.7455C85.8203 39.7144 87.0602 39.5309 87.9421 38.9364Z" fill="#EAB894"/>
<path d="M80.5762 43.0346C81.2864 41.967 82.404 41.679 82.404 41.679L85.0803 40.7173H87.6343L90.9073 41.679C90.9073 41.679 92.0249 41.9684 92.7351 43.0346H80.5762Z" fill="#FFEBDF"/>
<path d="M81.2318 46.6905V48.6124H91.512L91.3912 46.3798C91.2631 42.0785 91.7594 42.0771 91.7594 42.0771C91.2966 41.7777 90.9095 41.6774 90.9095 41.6774L88.3322 40.9657C88.3322 40.9657 87.7733 43.2971 85.6472 43.2971C85.6472 43.2971 83.9998 42.4357 84.4465 40.9431L82.4048 41.6774C82.4048 41.6774 81.5956 41.9175 80.8418 42.6278C80.8418 42.6278 81.2056 42.8439 81.2318 46.6891V46.6905Z" fill="url(#paint19_linear_2312_3247)"/>
<path d="M88.2873 37.4581C88.1796 37.701 88.0283 37.9255 87.8173 38.1232C87.2919 38.6146 86.6763 39.0128 86.0011 39.2811C85.173 39.6116 83.9229 39.6525 83.2637 38.9917C82.7296 38.455 82.4371 37.6431 82.2057 36.9455C81.756 35.5898 81.7618 34.1099 81.8753 32.7034C81.9015 32.3829 81.935 32.0609 81.9903 31.7432C82.5069 28.6746 85.2137 28.6802 85.2137 28.6802C87.257 28.5941 89.1226 29.5303 89.437 31.6203C89.5578 32.421 89.3992 33.2796 89.3569 34.0802C89.3264 34.6677 89.2522 35.2551 89.0586 35.8158C88.8607 36.3877 88.5347 36.9045 88.2888 37.4567L88.2873 37.4581Z" fill="#FFEBDF"/>
<path d="M88.5521 35.1181C88.5521 35.1181 88.8228 34.0266 89.6872 34.477C89.6872 34.477 90.0773 34.6691 89.7964 35.4189C89.7964 35.4189 89.386 36.4978 88.5507 36.1038V35.1181H88.5521Z" fill="#FFEBDF"/>
<path d="M81.6719 32.0949C81.5263 27.8811 85.6462 28.0816 85.6462 28.0816C89.6963 28.2426 89.8986 30.0233 89.8986 30.0233C90.389 32.2827 89.6876 34.4772 89.6876 34.4772C88.8261 34.295 88.6805 35.412 88.6805 35.412C88.7708 33.6214 88.6194 33.5127 88.6194 33.5127C87.3053 33.5 86.3579 33.363 86.3579 33.363L86.2997 32.1147L85.9824 33.298C85.9824 33.298 84.1197 33.2571 82.1856 32.8122C82.1856 32.8122 81.6704 32.8476 81.6704 34.3684V32.0949H81.6719Z" fill="#1A1818"/>
</g>
<g clip-path="url(#clip4_2312_3247)">
<path d="M34.3206 40.4408C34.99 40.2011 35.4119 39.6484 36.2079 39.7173C37.6223 39.8408 38.6249 41.4084 39.9869 40.3446C41.6342 39.0556 41.202 31.3052 40.4875 29.5496C39.8822 28.0609 38.7646 29.5166 37.1727 29.0156C35.3217 28.4342 33.7254 29.8754 32.7679 31.3712C31.7726 32.9288 31.259 34.9127 31.4059 36.7415C31.5413 38.4297 31.8512 41.3251 34.322 40.4394L34.3206 40.4408Z" fill="#1A1818"/>
<path d="M28.0011 48.6332H31.4716L32.0915 46.1613C32.0915 46.1613 32.5965 42.4088 29.9874 42.3557C29.9874 42.3557 28.6341 43.2917 28.2645 45.4952C28.2645 45.4952 27.972 47.2551 27.9997 48.6332H28.0011Z" fill="url(#paint20_linear_2312_3247)"/>
<path d="M40.0573 48.6332L39.5888 46.7684C39.5888 46.7684 39.0839 43.016 41.6929 42.9629C41.6929 42.9629 43.2572 44.0869 43.1204 48.6332H40.0573Z" fill="url(#paint21_linear_2312_3247)"/>
<path d="M34.2691 36.9294H37.4355V41.503H34.2691V36.9294Z" fill="#FFEBDF"/>
<path d="M34.2691 38.7971V36.9309H37.4355V39.6196C36.3908 39.588 35.151 39.4014 34.2691 38.7971Z" fill="#EAB894"/>
<path d="M41.6328 42.9629C40.9227 41.8776 39.8051 41.5848 39.8051 41.5848L37.1291 40.6072H34.5753L31.3027 41.5848C31.3027 41.5848 30.1852 41.879 29.475 42.9629H41.6328Z" fill="#FFEBDF"/>
<path d="M40.9776 48.6333H30.4321L30.499 46.6795L28.9479 44.3655C29.2927 42.1117 31.3008 41.5849 31.3008 41.5849L33.8779 40.8614C33.8779 40.8614 33.7236 41.6897 35.8511 41.6897C35.8511 41.6897 37.5594 41.6897 37.7631 40.8398L39.8047 41.5863C39.8047 41.5863 41.3006 42.0371 42.1169 43.5286L40.9761 46.681V48.6347L40.9776 48.6333Z" fill="url(#paint22_linear_2312_3247)"/>
<path d="M33.9243 37.2939C34.0319 37.5408 34.1833 37.7691 34.3943 37.97C34.9196 38.4696 35.5351 38.8744 36.2103 39.1472C37.0383 39.4831 38.2882 39.5247 38.9474 38.8529C39.4815 38.3074 39.7739 37.482 40.0053 36.7728C40.455 35.3947 40.4491 33.8903 40.3356 32.4605C40.3094 32.1347 40.276 31.8074 40.2207 31.4844C39.7056 28.365 36.999 28.3708 36.999 28.3708C34.9559 28.2832 33.0905 29.2349 32.7761 31.3595C32.6554 32.1734 32.814 33.0462 32.8562 33.8602C32.8867 34.4573 32.9609 35.0545 33.1545 35.6244C33.3524 36.2058 33.6783 36.7312 33.9243 37.2925V37.2939Z" fill="#FFEBDF"/>
<path d="M40.5514 34.2995C41.3154 31.9668 40.6984 29.2235 39.786 28.3651C37.2002 25.9319 32.4244 26.8578 30.9664 30.6619C30.5153 31.8361 30.7277 36.2188 30.9315 37.5653C31.205 39.3697 31.8773 40.6057 33.2655 40.6057C33.2291 39.1185 33.3441 37.4691 33.2102 35.6503C33.0778 33.8459 33.3208 33.8014 34.8429 32.9616C35.5996 32.5439 36.0405 32.1075 36.5105 31.4299C37.0926 30.5901 36.6546 30.2973 37.807 30.3346C37.807 30.3346 40.4845 30.2442 40.55 34.2981L40.5514 34.2995Z" fill="#1A1818"/>
<path d="M33.6588 34.9153C33.6588 34.9153 33.3882 33.8057 32.5238 34.2636C32.5238 34.2636 32.1338 34.4589 32.4147 35.2211C32.4147 35.2211 32.825 36.3178 33.6603 35.9173V34.9153H33.6588Z" fill="#FFEBDF"/>
</g>
<path d="M24.5371 38.8154C24.5928 38.8091 24.6498 38.8221 24.6982 38.8525C26.8083 40.1773 28.1319 41.7816 28.7188 43.4385C29.2848 45.0365 29.1571 46.6664 28.4111 48.1055L29.3975 49.0967C29.4683 49.1682 29.4888 49.2751 29.4502 49.3682C29.4114 49.4614 29.3207 49.5225 29.2197 49.5225C28.13 49.5225 27.182 49.7 26.2109 49.8828C25.2435 50.0649 24.2528 50.2529 23.1104 50.2529C21.9677 50.2529 20.9765 50.0649 20.0088 49.8828C19.159 49.7229 18.327 49.5668 17.4023 49.5303L17 49.5225C16.899 49.5225 16.8083 49.4614 16.7695 49.3682C16.731 49.2752 16.7514 49.1682 16.8223 49.0967L17.8076 48.1055C17.0618 46.6664 16.935 45.0363 17.501 43.4385C18.0879 41.7815 19.4121 40.1774 21.5225 38.8525L21.5742 38.8271C21.6292 38.8084 21.6898 38.8097 21.7451 38.8311C22.6788 39.1916 23.5831 39.1448 24.4824 38.8281L24.5371 38.8154ZM22.2842 35.75C22.5961 35.7501 22.9157 35.8306 23.2471 36.0352C24.0233 35.8164 24.4695 36.1204 24.667 36.1455L24.7881 36.1553C24.908 36.1599 25.0251 36.1489 25.1475 36.1328C25.3009 36.1126 25.491 36.0783 25.6719 36.0693C25.8638 36.0598 26.0697 36.0759 26.292 36.1582C26.5128 36.24 26.7365 36.3815 26.9727 36.6045C27.0408 36.6688 27.0671 36.7665 27.041 36.8564C27.0149 36.9463 26.9405 37.0143 26.8486 37.0322C26.505 37.0993 26.1641 37.3619 25.7686 37.7246C25.4406 38.0254 25.0765 38.3943 24.6826 38.6709L24.5117 38.7832C24.4988 38.7912 24.4849 38.7982 24.4707 38.8037C23.5946 39.142 22.6846 39.1753 21.7461 38.8027C21.7198 38.7923 21.6951 38.7774 21.6738 38.7588C21.4944 38.6022 21.3061 38.4572 21.1104 38.3076C20.9164 38.1594 20.7146 38.0059 20.5205 37.8389C20.1781 37.5443 19.852 37.2008 19.5967 36.7383L19.4912 36.5332C19.4489 36.4431 19.4644 36.3364 19.5303 36.2617C19.5962 36.187 19.7002 36.1587 19.7949 36.1895C20.3121 36.357 20.7588 36.1481 21.3525 35.9414C21.635 35.8431 21.9478 35.7499 22.2842 35.75Z" fill="url(#paint23_linear_2312_3247)" stroke="#1A1818" stroke-width="0.5" stroke-linejoin="round"/>
<path fill-rule="evenodd" clip-rule="evenodd" d="M19.7891 36.4819C20.1084 36.8995 21.3726 36.8909 21.7807 36.8864C21.9876 36.8842 22.2112 36.9024 22.4017 36.989C22.5225 37.0443 22.6 37.1157 22.7058 37.188C22.954 37.3572 23.266 37.2833 23.5365 37.212C23.9156 37.1121 24.2826 37.0225 24.6698 36.9557C25.3433 36.8392 26.0271 36.7851 26.7087 36.7742C26.7167 36.772 26.7248 36.7697 26.7323 36.7679C26.4011 36.4672 26.0809 36.3174 25.6198 36.3555C25.2759 36.3842 24.9854 36.4702 24.631 36.4252C24.4454 36.4017 24.2621 36.3083 24.0762 36.2665C23.7817 36.1991 23.5029 36.2433 23.2193 36.3386L23.2041 36.3438L23.1907 36.3345C22.8258 36.082 22.4547 35.9861 22.0157 36.0543C21.2474 36.1738 20.5957 36.6963 19.7893 36.4815L19.7891 36.4819Z" fill="url(#paint24_linear_2312_3247)"/>
<path fill-rule="evenodd" clip-rule="evenodd" d="M21.839 38.5702C21.7215 38.7674 21.657 38.9334 21.6464 39.0688C21.6493 39.0674 21.6519 39.0654 21.6551 39.0636C22.049 39.216 22.4379 39.2996 22.8225 39.325C23.4128 39.3639 23.9928 39.2648 24.5653 39.0636C24.5421 38.9069 24.481 38.7422 24.3812 38.5704C23.871 38.7672 23.3521 38.8538 22.8225 38.8078C22.499 38.7799 22.1716 38.7022 21.839 38.5704V38.5702Z" fill="#F9F9F9"/>
<path d="M24.6736 44.9745C24.834 45.1607 24.9141 45.3912 24.9141 45.6661C24.9141 46.1131 24.7735 46.4623 24.4923 46.7138C24.2111 46.9653 23.8243 47.0909 23.3317 47.0909H23.1575V47.7754H22.8089V47.0909H21.4984V42.9139C21.4984 42.8255 21.4868 42.7603 21.4636 42.7183C21.4403 42.6765 21.4079 42.6345 21.3659 42.5927C21.3381 42.5695 21.3183 42.5461 21.3066 42.5229C21.2949 42.4995 21.2938 42.4718 21.3031 42.4391C21.3216 42.3507 21.3669 42.2681 21.4391 42.1912C21.5111 42.1143 21.589 42.0759 21.6726 42.0759C21.7608 42.0759 21.8399 42.1179 21.9095 42.2015H22.8087V41.5099H23.1573V42.2015H23.3106C23.7612 42.2015 24.118 42.3202 24.3806 42.5578C24.643 42.7952 24.7743 43.1073 24.7743 43.4937C24.7743 43.7777 24.7092 44.0001 24.5791 44.1608C24.449 44.3215 24.2631 44.4438 24.0215 44.5274V44.5484C24.2955 44.6463 24.5128 44.7884 24.6732 44.9745H24.6736ZM22.1959 44.262H22.8093V42.7673H22.1959V44.262ZM22.8091 46.5251V44.8347H22.1957V46.5251H22.8091ZM23.1577 42.7673V44.262H23.1646C23.4387 44.262 23.6548 44.198 23.8128 44.07C23.9706 43.942 24.0497 43.75 24.0497 43.4937C24.0497 43.275 23.9823 43.099 23.8476 42.9664C23.7128 42.8336 23.5176 42.7673 23.2621 42.7673H23.1575H23.1577ZM23.9627 46.3087C24.1136 46.1645 24.1891 45.9502 24.1891 45.6661C24.1891 45.4007 24.1043 45.1958 23.9346 45.0513C23.765 44.9071 23.5269 44.8347 23.2202 44.8347H23.1575V46.5251H23.2969C23.5898 46.5251 23.8114 46.453 23.9625 46.3085L23.9627 46.3087Z" fill="white"/>
</g>
<defs>
<linearGradient id="paint0_linear_2312_3247" x1="58.3158" y1="14.2986" x2="58.3158" y2="56.5217" gradientUnits="userSpaceOnUse">
<stop stop-color="#FFBF69"/>
<stop offset="1" stop-color="#FF9300"/>
</linearGradient>
<linearGradient id="paint1_linear_2312_3247" x1="57.9475" y1="11.7433" x2="57.9475" y2="30.5006" gradientUnits="userSpaceOnUse">
<stop stop-color="#EEE5FF"/>
<stop offset="1" stop-color="#DECBFF"/>
</linearGradient>
<linearGradient id="paint2_linear_2312_3247" x1="96.6456" y1="32.2173" x2="97.6077" y2="50.9005" gradientUnits="userSpaceOnUse">
<stop stop-color="#A169FF"/>
<stop offset="1" stop-color="#792AFF"/>
</linearGradient>
<linearGradient id="paint3_linear_2312_3247" x1="11.1643" y1="23.7217" x2="11.1643" y2="32.4198" gradientUnits="userSpaceOnUse">
<stop stop-color="#FFBF69"/>
<stop offset="1" stop-color="#FF9300"/>
</linearGradient>
<linearGradient id="paint4_linear_2312_3247" x1="9.93213" y1="29.7927" x2="35.3052" y2="32.8372" gradientUnits="userSpaceOnUse">
<stop stop-color="white"/>
<stop offset="0.37" stop-color="#F2F2FF"/>
<stop offset="1" stop-color="#D2D2FF"/>
</linearGradient>
<linearGradient id="paint5_linear_2312_3247" x1="32.5734" y1="40.0301" x2="41.269" y2="44.0896" gradientUnits="userSpaceOnUse">
<stop stop-color="white"/>
<stop offset="0.17" stop-color="#C5C5C5"/>
<stop offset="0.4" stop-color="#808080"/>
<stop offset="0.6" stop-color="#494949"/>
<stop offset="0.78" stop-color="#212121"/>
<stop offset="0.92" stop-color="#080808"/>
<stop offset="1"/>
</linearGradient>
<linearGradient id="paint6_linear_2312_3247" x1="32.5733" y1="40.0302" x2="41.2689" y2="44.0897" gradientUnits="userSpaceOnUse">
<stop stop-color="#FFD571"/>
<stop offset="0.28" stop-color="#FFAC54"/>
<stop offset="0.59" stop-color="#FF8538"/>
<stop offset="0.85" stop-color="#FF6C27"/>
<stop offset="1" stop-color="#FF6421"/>
</linearGradient>
<linearGradient id="paint7_linear_2312_3247" x1="15.1821" y1="30.5846" x2="15.2216" y2="30.5894" gradientUnits="userSpaceOnUse">
<stop stop-color="#808080"/>
<stop offset="0.64" stop-color="#51514C"/>
<stop offset="1" stop-color="#3C3C35"/>
</linearGradient>
<linearGradient id="paint8_linear_2312_3247" x1="11.2101" y1="23.5806" x2="11.5208" y2="23.6178" gradientUnits="userSpaceOnUse">
<stop stop-color="#808080"/>
<stop offset="0.64" stop-color="#51514C"/>
<stop offset="1" stop-color="#3C3C35"/>
</linearGradient>
<linearGradient id="paint9_linear_2312_3247" x1="24.9424" y1="42.2324" x2="24.9424" y2="46.1247" gradientUnits="userSpaceOnUse">
<stop stop-color="#FFBF69"/>
<stop offset="1" stop-color="#FF9300"/>
</linearGradient>
<linearGradient id="paint10_linear_2312_3247" x1="9.54878" y1="12" x2="9.54878" y2="43.5539" gradientUnits="userSpaceOnUse">
<stop stop-color="#A169FF"/>
<stop offset="1" stop-color="#792AFF"/>
</linearGradient>
<linearGradient id="paint11_linear_2312_3247" x1="9.14417" y1="23.416" x2="9.14417" y2="31.9651" gradientUnits="userSpaceOnUse">
<stop stop-color="#FFBF69"/>
<stop offset="1" stop-color="#FF9300"/>
</linearGradient>
<linearGradient id="paint12_linear_2312_3247" x1="88.3241" y1="11.248" x2="82.1017" y2="18.2208" gradientUnits="userSpaceOnUse">
<stop stop-color="#EEE5FF"/>
<stop offset="1" stop-color="#DECBFF"/>
</linearGradient>
<linearGradient id="paint13_linear_2312_3247" x1="65.0472" y1="41.6389" x2="65.0472" y2="48.6131" gradientUnits="userSpaceOnUse">
<stop stop-color="#FFBF69"/>
<stop offset="1" stop-color="#FF9300"/>
</linearGradient>
<linearGradient id="paint14_linear_2312_3247" x1="71.0526" y1="40.8525" x2="71.0526" y2="48.6146" gradientUnits="userSpaceOnUse">
<stop stop-color="#FFBF69"/>
<stop offset="1" stop-color="#FF9300"/>
</linearGradient>
<linearGradient id="paint15_linear_2312_3247" x1="75.5484" y1="41.8822" x2="75.5484" y2="48.6145" gradientUnits="userSpaceOnUse">
<stop stop-color="#FFBF69"/>
<stop offset="1" stop-color="#FF9300"/>
</linearGradient>
<linearGradient id="paint16_linear_2312_3247" x1="57.4157" y1="41.9424" x2="57.4157" y2="48.6125" gradientUnits="userSpaceOnUse">
<stop stop-color="#A169FF"/>
<stop offset="1" stop-color="#792AFF"/>
</linearGradient>
<linearGradient id="paint17_linear_2312_3247" x1="51.4102" y1="41.1902" x2="51.4102" y2="48.6139" gradientUnits="userSpaceOnUse">
<stop stop-color="#A169FF"/>
<stop offset="1" stop-color="#792AFF"/>
</linearGradient>
<linearGradient id="paint18_linear_2312_3247" x1="46.9145" y1="42.175" x2="46.9145" y2="48.6139" gradientUnits="userSpaceOnUse">
<stop stop-color="#A169FF"/>
<stop offset="1" stop-color="#792AFF"/>
</linearGradient>
<linearGradient id="paint19_linear_2312_3247" x1="86.3006" y1="40.9431" x2="86.3006" y2="48.6124" gradientUnits="userSpaceOnUse">
<stop stop-color="#A169FF"/>
<stop offset="1" stop-color="#792AFF"/>
</linearGradient>
<linearGradient id="paint20_linear_2312_3247" x1="30.0643" y1="42.3557" x2="30.0643" y2="48.6332" gradientUnits="userSpaceOnUse">
<stop stop-color="#FFBF69"/>
<stop offset="1" stop-color="#FF9300"/>
</linearGradient>
<linearGradient id="paint21_linear_2312_3247" x1="41.3392" y1="42.9629" x2="41.3392" y2="48.6332" gradientUnits="userSpaceOnUse">
<stop stop-color="#FFBF69"/>
<stop offset="1" stop-color="#FF9300"/>
</linearGradient>
<linearGradient id="paint22_linear_2312_3247" x1="35.5324" y1="40.8398" x2="35.5324" y2="48.6347" gradientUnits="userSpaceOnUse">
<stop stop-color="#FFBF69"/>
<stop offset="1" stop-color="#FF9300"/>
</linearGradient>
<linearGradient id="paint23_linear_2312_3247" x1="23.1099" y1="36" x2="23.1099" y2="50.0025" gradientUnits="userSpaceOnUse">
<stop stop-color="#FFBF69"/>
<stop offset="1" stop-color="#FF9300"/>
</linearGradient>
<linearGradient id="paint24_linear_2312_3247" x1="23.2607" y1="36.033" x2="23.2607" y2="37.2911" gradientUnits="userSpaceOnUse">
<stop stop-color="#FFBF69"/>
<stop offset="1" stop-color="#FF9300"/>
</linearGradient>
<clipPath id="clip0_2312_3247">
<rect width="106" height="48" fill="white"/>
</clipPath>
<clipPath id="clip1_2312_3247">
<rect width="15.1292" height="21.6131" fill="white" transform="matrix(-1 0 0 1 77.7109 27)"/>
</clipPath>
<clipPath id="clip2_2312_3247">
<rect width="15.1292" height="20.5325" fill="white" transform="translate(44.752 28.0801)"/>
</clipPath>
<clipPath id="clip3_2312_3247">
<rect width="15.1292" height="20.5325" fill="white" transform="translate(79.082 28.0801)"/>
</clipPath>
<clipPath id="clip4_2312_3247">
<rect width="15.1292" height="21.6131" fill="white" transform="matrix(-1 0 0 1 43.1289 27.02)"/>
</clipPath>
</defs>
</svg>
