<svg width="24" height="26" viewBox="0 0 24 26" fill="none" xmlns="http://www.w3.org/2000/svg">
<path fill-rule="evenodd" clip-rule="evenodd" d="M5.75 6.75C5.75 3.29822 8.54822 0.5 12 0.5C15.4517 0.5 18.25 3.29822 18.25 6.75C18.25 9.7737 16.1027 12.2959 13.25 12.875V19.25C13.25 19.9404 12.6904 20.5 12 20.5C11.3096 20.5 10.75 19.9404 10.75 19.25V12.875C7.8972 12.2959 5.75 9.7737 5.75 6.75ZM7.78463 16.2786C8.07891 16.5159 8.25 16.8736 8.25 17.2517V19.25C8.25 21.3211 9.92887 23 12 23C14.0711 23 15.75 21.3211 15.75 19.25V17.2517C15.75 16.8736 15.9211 16.5159 16.2154 16.2786C16.5096 16.0414 16.8955 15.95 17.265 16.0301C18.842 16.3722 20.2471 16.8792 21.2919 17.5439C22.2895 18.1785 23.25 19.1565 23.25 20.5C23.25 21.8436 22.2895 22.8215 21.2919 23.4562C20.2471 24.1209 18.842 24.6279 17.265 24.9699C15.6989 25.3096 13.9017 25.5 12 25.5C10.0983 25.5 8.30116 25.3096 6.735 24.9699C5.15798 24.6279 3.75287 24.1209 2.70817 23.4562C1.71046 22.8215 0.75 21.8436 0.75 20.5C0.75 19.1565 1.71046 18.1785 2.70817 17.5439C3.75287 16.8792 5.15798 16.3722 6.735 16.0301C7.10446 15.95 7.49032 16.0414 7.78463 16.2786Z" fill="#995DFE"/>
</svg>
