<svg width="120" height="79" viewBox="0 0 120 79" fill="none" xmlns="http://www.w3.org/2000/svg">
<g clip-path="url(#clip0_2312_6904)">
<path opacity="0.15" d="M60.4642 79.5C82.3185 79.5 100.035 61.8152 100.035 40C100.035 18.1848 82.3185 0.5 60.4642 0.5C38.6099 0.5 20.8936 18.1848 20.8936 40C20.8936 61.8152 38.6099 79.5 60.4642 79.5Z" fill="#FF9300"/>
<path opacity="0.5" d="M60.4633 65.7295C74.6988 65.7295 86.239 54.2099 86.239 39.9998C86.239 25.7896 74.6988 14.27 60.4633 14.27C46.2277 14.27 34.6875 25.7896 34.6875 39.9998C34.6875 54.2099 46.2277 65.7295 60.4633 65.7295Z" fill="url(#paint0_linear_2312_6904)"/>
<path fill-rule="evenodd" clip-rule="evenodd" d="M27.6287 7.4359C27.4981 7.78338 27.4255 8.16498 27.3705 8.61276C27.3436 8.83717 27.3177 9.14845 27.2886 9.5135C27.1694 11.0316 26.9683 13.5384 26.2218 14.1992C25.9501 14.4412 25.5178 14.3244 24.8418 13.5663C24.0912 12.7245 23.4546 11.5528 22.79 10.3346C22.2581 9.35631 21.7096 8.34802 21.0647 7.43694H20.3203V6.70166H28.8324V7.43694H27.6287V7.4359Z" fill="#792AFF" fill-opacity="0.1"/>
<path d="M28.582 6.95166V7.18701H27.6289V7.39014L27.3945 7.34814C27.289 7.62893 27.2204 7.92638 27.1689 8.24951L27.1221 8.58252C27.1082 8.69758 27.0947 8.83455 27.0811 8.98779L27.0391 9.49365C26.9793 10.2545 26.9002 11.249 26.7441 12.1343C26.6661 12.5769 26.5702 12.9848 26.4512 13.3179C26.3601 13.5727 26.2614 13.767 26.1592 13.8999L26.0557 14.0122C26.0216 14.0426 25.9892 14.0567 25.9551 14.061C25.9187 14.0655 25.8623 14.0612 25.7793 14.0269C25.6489 13.9729 25.4773 13.8553 25.2607 13.644L25.0283 13.3999C24.4827 12.788 23.9963 11.9919 23.5049 11.1147L23.0098 10.2153C22.4791 9.23934 21.9234 8.21766 21.2686 7.29248L21.1943 7.18701H20.5703V6.95166H28.582Z" stroke="#792AFF" stroke-opacity="0.5" stroke-width="0.5"/>
<path fill-rule="evenodd" clip-rule="evenodd" d="M32.5246 6.6139C32.6884 6.73076 32.9197 6.69249 33.0378 6.52599C33.155 6.36053 33.1177 6.12992 32.9518 6.01306C32.45 5.65628 31.746 5.49495 31.0462 5.50012C30.3152 5.50633 29.5708 5.69557 29.0545 6.03064C28.4977 6.39569 28.1504 6.76591 27.9192 7.20646C27.6921 7.63873 27.5895 8.11444 27.5169 8.70701C27.4899 8.93142 27.464 9.24269 27.435 9.60775C27.3158 11.1259 27.1146 13.6326 26.3681 14.2935C26.0965 14.5355 25.6641 14.4186 24.9881 13.6606C24.2375 12.8188 23.6009 11.6471 22.9363 10.4289C22.28 9.22201 21.5999 7.97069 20.7435 6.90863C20.6149 6.7504 20.3837 6.72558 20.2241 6.85175C20.0654 6.97998 20.0405 7.21267 20.167 7.36986C20.982 8.38332 21.6465 9.60361 22.2873 10.7805C22.9726 12.039 23.631 13.2479 24.4345 14.1508C25.4703 15.31 26.2561 15.3804 26.8596 14.8447C27.829 13.9863 28.0436 11.2955 28.1722 9.66566C28.1991 9.31302 28.225 9.01001 28.2509 8.79801C28.3152 8.28197 28.3971 7.88072 28.5713 7.5467C28.7434 7.22301 29.013 6.94069 29.4578 6.64802C29.8601 6.38845 30.4541 6.24057 31.0503 6.23643C31.6071 6.2323 32.1503 6.34916 32.5215 6.61286L32.5246 6.6139Z" fill="#1A1818"/>
<path d="M31.0483 5.75C31.6321 5.74573 32.2003 5.86374 32.6313 6.10547L32.8071 6.2168L32.8081 6.21777C32.8582 6.25337 32.872 6.32609 32.8335 6.38086C32.7951 6.43496 32.7203 6.44643 32.6694 6.41016L32.6392 6.38867L32.6284 6.38477C32.2557 6.13455 31.7641 6.01486 31.2681 5.99121L31.0483 5.98633C30.4979 5.99018 29.9358 6.10944 29.5005 6.33496L29.3218 6.4375L29.3208 6.43945C28.9106 6.70938 28.6259 6.98073 28.4292 7.29297L28.3501 7.42969V7.43066C28.203 7.71276 28.1178 8.03086 28.0571 8.3916L28.0024 8.76758C27.9891 8.87681 27.9767 9.00869 27.9634 9.15723L27.9233 9.64648C27.8589 10.4635 27.7732 11.5296 27.5854 12.4971C27.4916 12.9805 27.3737 13.432 27.2231 13.8105C27.0903 14.1445 26.9383 14.4068 26.7681 14.5859L26.6938 14.6572C26.4427 14.8802 26.1761 14.9633 25.8667 14.8896C25.5378 14.8112 25.1242 14.548 24.6206 13.9844H24.6216C24.0361 13.3266 23.5267 12.498 23.0181 11.5908L22.5073 10.6611C21.9487 9.63503 21.3614 8.55661 20.6665 7.61035L20.3618 7.21289C20.3229 7.16443 20.329 7.09026 20.3794 7.04785C20.4323 7.00625 20.5075 7.01492 20.5493 7.06641V7.06543C21.179 7.84639 21.7128 8.73403 22.2183 9.63965L22.7163 10.5479L22.7173 10.5488C23.2949 11.6075 23.8652 12.6588 24.5171 13.4863L24.8013 13.8271C25.1472 14.215 25.4549 14.4675 25.7339 14.583C25.877 14.6422 26.0224 14.6692 26.1646 14.6514C26.3089 14.6331 26.433 14.571 26.5347 14.4805L26.5337 14.4795C26.768 14.2718 26.939 13.9435 27.0688 13.5801C27.2011 13.2099 27.3029 12.7717 27.3833 12.3154C27.5442 11.4029 27.6246 10.385 27.6841 9.62793C27.6986 9.44487 27.7128 9.27652 27.7261 9.12695L27.7651 8.7373C27.8276 8.22728 27.9101 7.8265 28.0679 7.47168L28.1401 7.32227C28.3473 6.92753 28.6618 6.58728 29.1909 6.24023C29.5994 5.97527 30.1821 5.80356 30.7876 5.76074L31.0483 5.75Z" stroke="#792AFF" stroke-opacity="0.5" stroke-width="0.5"/>
<path fill-rule="evenodd" clip-rule="evenodd" d="M28.1734 9.66591C28.2004 9.31326 28.2263 9.01026 28.2522 8.79826C28.3165 8.28222 28.3984 7.88097 28.5726 7.54694C28.6296 7.44146 28.696 7.34011 28.7738 7.24083C28.9396 7.03814 29.1605 6.84476 29.4601 6.64827C29.8624 6.3887 30.4565 6.24081 31.0526 6.23668C31.6094 6.23254 32.1527 6.3494 32.5239 6.61311C32.5394 6.62448 32.5591 6.63689 32.5767 6.64413L32.6161 6.66585L32.7727 6.75789C33.797 7.20567 34.67 7.95026 35.2776 8.87582C35.8655 9.77036 36.2097 10.8428 36.2097 11.9927V14.7384C33.4425 14.7808 30.2595 14.8697 26.6545 15C26.7271 14.9556 26.7955 14.9028 26.8619 14.8439C27.8313 13.9855 28.0459 11.2947 28.1745 9.66487L28.1734 9.66591Z" fill="url(#paint1_linear_2312_6904)"/>
<path d="M31.054 6.48657H31.0549C31.5177 6.48319 31.9457 6.56884 32.2542 6.73853L32.3792 6.81665C32.3976 6.82999 32.4259 6.84508 32.4573 6.8606L32.4563 6.86353L32.4954 6.88501V6.88403L32.6458 6.97388L32.6584 6.98071L32.6721 6.98657C33.5292 7.36121 34.2763 7.95403 34.8391 8.6897L35.0686 9.01294C35.6306 9.86809 35.9592 10.8931 35.9592 11.9924V14.4924C33.4175 14.5335 30.532 14.6138 27.2981 14.7278C27.4531 14.5157 27.583 14.2651 27.6907 13.9944C27.857 13.5761 27.9823 13.0913 28.0793 12.5911C28.2733 11.5914 28.36 10.4975 28.4241 9.68481L28.4524 9.31763C28.4688 9.12465 28.4844 8.95879 28.5002 8.82935C28.5637 8.32 28.6413 7.95751 28.7922 7.66626C28.8415 7.57504 28.8993 7.48659 28.967 7.39966C29.1128 7.22155 29.3127 7.04451 29.5959 6.85864C29.9035 6.66018 30.3579 6.52711 30.844 6.49438L31.054 6.48657Z" stroke="#792AFF" stroke-opacity="0.5" stroke-width="0.5"/>
<path fill-rule="evenodd" clip-rule="evenodd" d="M39.7925 75.3083C39.9332 75.0046 40.2965 74.7508 40.3543 74.3564C40.3837 74.1609 40.412 73.8863 40.4414 73.5668C40.5716 72.2355 40.7879 70.0381 41.5848 69.4582C41.8777 69.2468 42.6946 69.2169 43.4191 69.8817C44.6024 70.4242 127.867 71.0058 91.5712 72.8479C92.1298 73.6858 94.7253 73.5377 95.3951 74.3223C95.4109 74.3398 96.1826 74.5844 96.1973 74.6027C94.7914 75.8882 94.8208 75.9548 92.4479 76.6371L37.2443 76.5414L36.481 76.5081L39.089 75.4955L39.7915 75.3091L39.7925 75.3083Z" fill="url(#paint2_linear_2312_6904)"/>
<path d="M41.731 69.6609C41.8062 69.6066 42.0098 69.5451 42.3032 69.5886C42.585 69.6305 42.9249 69.7674 43.2505 70.0662L43.2788 70.0925L43.3149 70.1091C43.3711 70.1349 43.4454 70.1464 43.4976 70.1541C43.562 70.1635 43.6443 70.1727 43.7417 70.1814C43.9375 70.1989 44.2066 70.2168 44.5405 70.2341C45.2092 70.2688 46.1491 70.3039 47.3091 70.3396C49.6294 70.4111 52.8381 70.4854 56.5405 70.5652C63.9467 70.7248 73.3308 70.906 81.5435 71.1277C89.7622 71.3496 96.7901 71.611 99.4966 71.9314C99.6239 71.9465 99.7409 71.9632 99.8472 71.9783C98.6291 72.1654 95.9933 72.3733 91.5581 72.5984L91.1187 72.6208L91.3628 72.9871C91.55 73.2678 91.8852 73.4375 92.228 73.5574C92.5787 73.6799 92.993 73.7681 93.3911 73.8503C93.7969 73.9342 94.187 74.0122 94.5181 74.1169C94.814 74.2106 95.0264 74.3152 95.1548 74.4333L95.2046 74.4851L95.2095 74.49C95.2332 74.5163 95.2575 74.5314 95.2632 74.5349C95.2726 74.5408 95.281 74.5453 95.2856 74.5476C95.295 74.5523 95.3036 74.556 95.3091 74.5583C95.3207 74.5632 95.3339 74.5684 95.3462 74.573C95.3718 74.5825 95.4061 74.5942 95.4438 74.6072C95.5198 74.6333 95.6195 74.6663 95.7173 74.699L95.7202 74.7C95.211 75.1671 94.9279 75.422 94.562 75.6287C94.1316 75.8717 93.5823 76.0495 92.4116 76.3865L37.7261 76.2917L39.1646 75.7332L39.856 75.5505L39.9058 75.5378L39.9468 75.5046H39.9478L39.9946 75.4675L40.019 75.4138C40.0739 75.2954 40.1686 75.1938 40.3032 75.0183C40.4237 74.8612 40.5634 74.656 40.6021 74.3923L40.6011 74.3914C40.6315 74.1884 40.6607 73.9089 40.6899 73.5916C40.7553 72.9235 40.8409 72.0548 41.0073 71.283C41.0905 70.8974 41.1927 70.5447 41.3179 70.2576C41.4446 69.9667 41.5845 69.7679 41.731 69.6609Z" stroke="#792AFF" stroke-opacity="0.5" stroke-width="0.5"/>
<path fill-rule="evenodd" clip-rule="evenodd" d="M34.4087 65.1282H88.8404V9.83685C88.8404 7.7596 86.7055 6.06152 84.0985 6.06152H30.7944V6.46368C32.918 7.20643 34.4087 8.89795 34.4087 10.8554V65.129V65.1282Z" fill="white"/>
<path d="M84.0981 5.81152L84.3491 5.81641C86.9289 5.92167 89.0903 7.64211 89.0903 9.83691V65.1279C89.0903 65.266 88.9784 65.3779 88.8403 65.3779H34.4185C34.4152 65.3781 34.412 65.3789 34.4087 65.3789C34.2706 65.3789 34.1587 65.267 34.1587 65.1289V10.8555C34.1587 9.14919 32.9365 7.62159 31.0894 6.84473L30.7114 6.69922C30.6115 6.664 30.5445 6.56985 30.5444 6.46387V6.06152L30.5493 6.01074C30.5728 5.89699 30.6737 5.81152 30.7944 5.81152H84.0981Z" stroke="#792AFF" stroke-opacity="0.5" stroke-width="0.5" stroke-linejoin="round"/>
<path fill-rule="evenodd" clip-rule="evenodd" d="M88.8407 65.1292H34.176V73.4919C34.176 74.4669 34.68 75.3557 35.4931 75.9999C35.7917 76.2362 36.129 76.436 36.5 76.5985C36.6068 76.5752 36.7252 76.5877 36.8237 76.6424C37.1967 76.8522 37.7457 76.9467 38.3084 76.9425C38.9108 76.94 39.5133 76.8223 39.9177 76.6126C40.3662 76.3788 40.6428 76.1532 40.8146 75.8937C40.9906 75.6268 41.0734 75.3051 41.1384 74.8906L41.217 74.1933C41.3469 72.8876 41.5669 70.7295 42.5424 70.0422C42.9175 69.781 43.3554 69.6998 43.8814 69.8863H88.8407V65.13V65.1292Z" fill="white"/>
<path d="M88.5911 65.3792V69.636H43.9153C43.4089 69.4692 42.9601 69.5178 42.5686 69.7317L42.3997 69.8372L42.3987 69.8381C41.8296 70.2391 41.5137 71.0339 41.3196 71.8264C41.1711 72.4327 41.0843 73.0811 41.0227 73.6418L40.968 74.1682L40.8899 74.8616C40.8344 75.213 40.7693 75.467 40.6575 75.6711L40.6057 75.7561C40.5014 75.9135 40.343 76.066 40.0891 76.2268L39.802 76.3909C39.4444 76.5762 38.8848 76.6902 38.3069 76.6926L38.1057 76.6897C37.7087 76.6747 37.3458 76.6056 37.0745 76.4875L36.9465 76.4241H36.9456C36.8184 76.3534 36.6753 76.3297 36.5413 76.3411C36.212 76.1915 35.9123 76.0133 35.6477 75.804H35.6487C34.883 75.1973 34.4262 74.3761 34.426 73.4924V65.3792H88.5911Z" stroke="#792AFF" stroke-opacity="0.5" stroke-width="0.5"/>
<path fill-rule="evenodd" clip-rule="evenodd" d="M36.4479 76.0387C36.2827 75.9418 36.0515 75.9738 35.9338 76.1086C35.8171 76.2434 35.8543 76.4321 36.0195 76.5273C36.5212 76.8162 37.2221 76.9484 37.9158 76.9434C38.6456 76.9383 39.3847 76.7867 39.8988 76.5112C40.4532 76.2156 40.8 75.914 41.0292 75.5551C41.2553 75.203 41.3585 74.8138 41.4297 74.3311C41.4566 74.15 41.4824 73.8965 41.5092 73.5974C41.63 72.3608 41.8302 70.3188 42.5735 69.7805C42.844 69.5851 43.2734 69.6803 43.9454 70.296C44.6949 70.9834 45.3287 71.9362 45.9904 72.9285C46.6438 73.9125 47.321 74.9326 48.1726 75.7952C48.3017 75.9258 48.5329 75.9468 48.6909 75.8415C48.8488 75.7388 48.8736 75.5492 48.7466 75.4195C47.9352 74.5956 47.2725 73.5999 46.6335 72.6421C45.9522 71.6161 45.2967 70.6313 44.4977 69.8967C43.4664 68.9507 42.684 68.8935 42.0832 69.3298C41.12 70.029 40.9043 72.2209 40.7752 73.5477C40.7484 73.8366 40.7226 74.0826 40.6978 74.2561C40.6338 74.6773 40.5512 75.0042 40.3788 75.2754C40.2095 75.5391 39.9391 75.7699 39.4952 76.0041C39.0957 76.2181 38.5032 76.3377 37.9096 76.3402C37.3573 76.3453 36.8143 76.2484 36.4468 76.0353L36.4479 76.0387Z" fill="#792AFF" fill-opacity="0.75"/>
<path d="M42.2302 69.5317C42.4788 69.3513 42.7548 69.2767 43.0808 69.3403C43.3758 69.3979 43.7294 69.572 44.1462 69.9204L44.3289 70.0806C44.9081 70.6132 45.4118 71.2852 45.9167 72.0229L46.4255 72.7808C47.0619 73.7346 47.7372 74.7515 48.5681 75.5952V75.5942C48.5755 75.6018 48.5775 75.6069 48.5779 75.6079L48.575 75.6128L48.5544 75.6323L48.5525 75.6333C48.5054 75.6647 48.4382 75.6647 48.3904 75.645L48.3503 75.6196C47.7265 74.9878 47.1965 74.2678 46.6941 73.5308L46.199 72.7905L46.198 72.7896C45.6233 71.9277 45.0535 71.0691 44.4001 70.3911L44.114 70.1118C43.7674 69.7942 43.462 69.5901 43.1892 69.4976C42.941 69.4134 42.708 69.4188 42.5095 69.5259L42.4275 69.5776H42.4265C42.1882 69.7502 42.0142 70.0263 41.8816 70.3296C41.7472 70.6372 41.6441 70.9999 41.5632 71.3745C41.4421 71.9359 41.3661 72.5453 41.3103 73.0747L41.2605 73.5728V73.5747C41.2471 73.7243 41.2333 73.8611 41.2205 73.9819L41.1824 74.2944C41.1218 74.7047 41.0404 75.0227 40.8884 75.3022L40.8191 75.4204H40.8181C40.6439 75.6932 40.3863 75.9386 39.9695 76.1851L39.781 76.2905C39.3134 76.5411 38.6171 76.689 37.9138 76.6938L37.6648 76.689C37.169 76.6676 36.6951 76.5716 36.322 76.4019L36.1443 76.311C36.1306 76.3031 36.1233 76.2951 36.1199 76.2905C36.1165 76.286 36.116 76.2829 36.116 76.2827L36.1218 76.2729C36.1534 76.2368 36.2499 76.2128 36.321 76.2544L36.8738 76.5776L36.8376 76.4604C37.1701 76.5529 37.5439 76.5926 37.9099 76.5894L37.9109 76.5903C38.529 76.5877 39.1642 76.463 39.6111 76.2241L39.6121 76.2251C40.0195 76.0101 40.3081 75.7869 40.5085 75.5249L40.5896 75.4106V75.4097C40.7408 75.1718 40.8286 74.9039 40.8904 74.604L40.9451 74.2935V74.2915C40.9708 74.1116 40.9973 73.8606 41.0242 73.5718C41.0889 72.9059 41.1742 72.0431 41.3601 71.2612C41.4529 70.8708 41.5687 70.5089 41.7156 70.2065C41.8448 69.9407 41.9921 69.7323 42.158 69.5894L42.2302 69.5317Z" stroke="#792AFF" stroke-opacity="0.5" stroke-width="0.5"/>
<path fill-rule="evenodd" clip-rule="evenodd" d="M88.4611 69.0679H43.7559C44.0903 69.1903 44.4591 69.4242 44.8634 69.7949C45.6708 70.532 46.3324 71.5182 47.0211 72.5466C47.6629 73.5066 48.3329 74.5038 49.1518 75.3304C49.2789 75.4604 49.2539 75.6504 49.0955 75.7534C49.0382 75.7914 48.9715 75.8125 48.9028 75.8184H104.62C104.526 75.8108 104.433 75.7728 104.369 75.707C103.512 74.8415 102.824 73.8199 102.165 72.8337C101.804 72.2924 101.447 71.7622 101.077 71.2809C100.544 70.5877 99.3258 69.2038 98.3246 69.0687H88.4611V69.0679Z" fill="white" stroke="#792AFF" stroke-opacity="0.5" stroke-width="0.5" stroke-linejoin="round"/>
<path fill-rule="evenodd" clip-rule="evenodd" d="M61.5319 69.0687H43.7559C44.0959 69.1902 44.4732 69.4248 44.8855 69.7952C45.7111 70.5317 46.3859 71.5189 47.0883 72.5457C47.7451 73.5058 48.4262 74.5031 49.2636 75.3282C49.3932 75.459 49.3677 75.6472 49.2051 75.7518C49.1478 75.7906 49.0787 75.8125 49.0075 75.8184H69.6793C67.7889 74.2314 66.1226 72.4284 63.9707 70.7216C63.1621 70.0778 62.3523 69.5336 61.5319 69.0679V69.0687Z" fill="#792AFF" fill-opacity="0.15"/>
<path d="M61.4639 69.3188C62.0515 69.6552 62.6348 70.0314 63.2158 70.4585L63.8154 70.9175C64.8828 71.7641 65.8308 72.6357 66.752 73.4976C67.5048 74.2019 68.2439 74.8996 69.0088 75.5688H49.5918C49.604 75.4543 49.5774 75.3426 49.5166 75.2466L49.4414 75.1519L49.4395 75.1499L49.1396 74.8403C48.6508 74.312 48.2133 73.7258 47.793 73.1265L47.2949 72.4048C46.5967 71.3841 45.9044 70.3696 45.0518 69.6089H45.0527C44.9339 69.5021 44.8164 69.4059 44.7012 69.3188H61.4639Z" stroke="#792AFF" stroke-opacity="0.5" stroke-width="0.5"/>
<path fill-rule="evenodd" clip-rule="evenodd" d="M88.7761 70.8327V10.1814C88.7761 7.93911 86.4682 6.10352 83.6502 6.10352H64.6654C87.6253 24.6104 52.455 21.9317 52.455 57.8524C52.455 63.6224 51.8961 66.0751 53.2782 70.8336H88.7771L88.7761 70.8327Z" fill="#FF9300" fill-opacity="0.2"/>
<mask id="path-21-inside-1_2312_6904" fill="white">
<path fill-rule="evenodd" clip-rule="evenodd" d="M50.7328 28.2639H83.0872C83.3547 28.2639 83.5765 28.3766 83.5765 28.51C83.5765 28.6424 83.3557 28.7531 83.0872 28.7531H50.7328C50.4664 28.7531 50.2466 28.6434 50.2466 28.51C50.2466 28.3756 50.4653 28.2639 50.7328 28.2639Z"/>
</mask>
<path fill-rule="evenodd" clip-rule="evenodd" d="M50.7328 28.2639H83.0872C83.3547 28.2639 83.5765 28.3766 83.5765 28.51C83.5765 28.6424 83.3557 28.7531 83.0872 28.7531H50.7328C50.4664 28.7531 50.2466 28.6434 50.2466 28.51C50.2466 28.3756 50.4653 28.2639 50.7328 28.2639Z" fill="#FF9300" fill-opacity="0.5"/>
<path d="M50.7328 28.7639H83.0872V27.7639H50.7328V28.7639ZM83.0872 28.7639C83.1195 28.7639 83.148 28.7674 83.1706 28.7723C83.1818 28.7747 83.1907 28.7773 83.1972 28.7795C83.2004 28.7806 83.2028 28.7816 83.2045 28.7823C83.2062 28.783 83.207 28.7834 83.2069 28.7834C83.2069 28.7833 83.2058 28.7828 83.2038 28.7816C83.2018 28.7804 83.1987 28.7783 83.1945 28.7753C83.1867 28.7695 83.1729 28.7581 83.1571 28.7395C83.125 28.7019 83.0765 28.6232 83.0765 28.51H84.0765C84.0765 28.1497 83.7944 27.9597 83.6574 27.8906C83.4867 27.8044 83.2846 27.7639 83.0872 27.7639V28.7639ZM83.0765 28.51C83.0765 28.3959 83.1257 28.3163 83.1585 28.2781C83.1747 28.2592 83.1889 28.2477 83.1969 28.2419C83.2011 28.2388 83.2044 28.2367 83.2064 28.2355C83.2085 28.2342 83.2096 28.2336 83.2097 28.2336C83.2097 28.2336 83.209 28.234 83.2072 28.2347C83.2055 28.2354 83.2031 28.2363 83.1998 28.2374C83.1933 28.2397 83.1842 28.2422 83.1728 28.2447C83.1497 28.2496 83.1205 28.2531 83.0872 28.2531V29.2531C83.2835 29.2531 83.4849 29.2137 83.6554 29.1288C83.7918 29.0609 84.0765 28.8719 84.0765 28.51H83.0765ZM83.0872 28.2531H50.7328V29.2531H83.0872V28.2531ZM50.7328 28.2531C50.7 28.2531 50.6712 28.2496 50.6485 28.2448C50.6374 28.2424 50.6286 28.2399 50.6223 28.2378C50.6159 28.2356 50.613 28.2342 50.6132 28.2343C50.6133 28.2343 50.6183 28.2368 50.6267 28.243C50.635 28.2491 50.6492 28.2608 50.6655 28.2798C50.6987 28.3187 50.7466 28.3978 50.7466 28.51H49.7466C49.7466 28.8706 50.0283 29.0599 50.1664 29.1289C50.3368 29.214 50.5378 29.2531 50.7328 29.2531V28.2531ZM50.7466 28.51C50.7466 28.6199 50.7003 28.6978 50.6677 28.7366C50.6518 28.7555 50.6377 28.7673 50.6294 28.7734C50.621 28.7797 50.6159 28.7823 50.6157 28.7824C50.6153 28.7826 50.618 28.7813 50.6242 28.7791C50.6303 28.777 50.6388 28.7745 50.6497 28.7722C50.6719 28.7674 50.7002 28.7639 50.7328 28.7639V27.7639C50.5361 27.7639 50.3341 27.8039 50.1631 27.8907C50.0226 27.962 49.7466 28.1529 49.7466 28.51H50.7466Z" fill="#792AFF" fill-opacity="0.5" mask="url(#path-21-inside-1_2312_6904)"/>
<mask id="path-23-inside-2_2312_6904" fill="white">
<path fill-rule="evenodd" clip-rule="evenodd" d="M50.733 30.5435H61.5779C61.8454 30.5435 62.0662 30.6541 62.0662 30.7865C62.0662 30.9188 61.8454 31.0305 61.5779 31.0305H50.733C50.4655 31.0305 50.2446 30.9209 50.2446 30.7865C50.2446 30.652 50.4634 30.5435 50.733 30.5435Z"/>
</mask>
<path fill-rule="evenodd" clip-rule="evenodd" d="M50.733 30.5435H61.5779C61.8454 30.5435 62.0662 30.6541 62.0662 30.7865C62.0662 30.9188 61.8454 31.0305 61.5779 31.0305H50.733C50.4655 31.0305 50.2446 30.9209 50.2446 30.7865C50.2446 30.652 50.4634 30.5435 50.733 30.5435Z" fill="#FF9300" fill-opacity="0.5"/>
<path d="M50.733 31.0435H61.5779V30.0435H50.733V31.0435ZM61.5779 31.0435C61.6108 31.0435 61.6398 31.0469 61.6627 31.0518C61.674 31.0542 61.683 31.0568 61.6895 31.059C61.6927 31.0601 61.6951 31.061 61.6968 31.0617C61.6985 31.0624 61.6993 31.0628 61.6992 31.0628C61.6991 31.0627 61.698 31.0622 61.6959 31.0609C61.6939 31.0597 61.6906 31.0576 61.6864 31.0545C61.6784 31.0486 61.6643 31.0372 61.6481 31.0183C61.6154 30.9802 61.5662 30.9006 61.5662 30.7865H62.5662C62.5662 30.4247 62.2817 30.2358 62.1455 30.1679C61.9752 30.0829 61.774 30.0435 61.5779 30.0435V31.0435ZM61.5662 30.7865C61.5662 30.6726 61.6152 30.5932 61.6476 30.5554C61.6636 30.5367 61.6776 30.5253 61.6855 30.5194C61.6897 30.5164 61.6929 30.5143 61.6949 30.5131C61.697 30.5118 61.6981 30.5113 61.6982 30.5112C61.6982 30.5112 61.6975 30.5116 61.6958 30.5123C61.6941 30.513 61.6917 30.5139 61.6885 30.515C61.682 30.5172 61.6731 30.5198 61.6619 30.5222C61.6392 30.5271 61.6105 30.5305 61.5779 30.5305V31.5305C61.7747 31.5305 61.9762 31.4905 62.1465 31.4051C62.2828 31.3367 62.5662 31.1474 62.5662 30.7865H61.5662ZM61.5779 30.5305H50.733V31.5305H61.5779V30.5305ZM50.733 30.5305C50.6997 30.5305 50.6706 30.5271 50.6476 30.5222C50.6363 30.5198 50.6274 30.5173 50.621 30.5151C50.6144 30.5129 50.6115 30.5114 50.6116 30.5115C50.6116 30.5115 50.6166 30.5139 50.625 30.5201C50.6333 30.5262 50.6475 30.5379 50.6638 30.5569C50.6971 30.5959 50.7446 30.6748 50.7446 30.7865H49.7446C49.7446 31.1473 50.0263 31.337 50.1653 31.4064C50.3362 31.4916 50.5377 31.5305 50.733 31.5305V30.5305ZM50.7446 30.7865C50.7446 30.8969 50.6979 30.9758 50.664 31.0156C50.6476 31.0349 50.633 31.0469 50.6245 31.0531C50.6158 31.0595 50.6106 31.0621 50.6103 31.0623C50.6099 31.0625 50.6127 31.0611 50.6192 31.0589C50.6255 31.0568 50.6344 31.0542 50.6458 31.0518C50.6689 31.047 50.6986 31.0435 50.733 31.0435V30.0435C50.5378 30.0435 50.3363 30.0817 50.1651 30.1668C50.0243 30.2369 49.7446 30.4266 49.7446 30.7865H50.7446Z" fill="#792AFF" fill-opacity="0.5" mask="url(#path-23-inside-2_2312_6904)"/>
<mask id="path-25-inside-3_2312_6904" fill="white">
<path fill-rule="evenodd" clip-rule="evenodd" d="M50.733 32.8149H54.3742C54.6438 32.8149 54.8625 32.9266 54.8625 33.059C54.8625 33.1934 54.6438 33.3041 54.3742 33.3041H50.733C50.4655 33.3041 50.2446 33.1934 50.2446 33.059C50.2446 32.9266 50.4634 32.8149 50.733 32.8149Z"/>
</mask>
<path fill-rule="evenodd" clip-rule="evenodd" d="M50.733 32.8149H54.3742C54.6438 32.8149 54.8625 32.9266 54.8625 33.059C54.8625 33.1934 54.6438 33.3041 54.3742 33.3041H50.733C50.4655 33.3041 50.2446 33.1934 50.2446 33.059C50.2446 32.9266 50.4634 32.8149 50.733 32.8149Z" fill="#FF9300" fill-opacity="0.5"/>
<path d="M50.733 33.3149H54.3742V32.3149H50.733V33.3149ZM54.3742 33.3149C54.4076 33.3149 54.4366 33.3184 54.4593 33.3233C54.4705 33.3257 54.4793 33.3283 54.4856 33.3304C54.492 33.3326 54.4949 33.3341 54.4947 33.334C54.4947 33.334 54.4898 33.3315 54.4814 33.3254C54.4733 33.3193 54.4592 33.3077 54.4432 33.2888C54.4106 33.2505 54.3625 33.1716 54.3625 33.059H55.3625C55.3625 32.6999 55.0822 32.5101 54.9442 32.4407C54.7734 32.3548 54.5715 32.3149 54.3742 32.3149V33.3149ZM54.3625 33.059C54.3625 32.9489 54.409 32.8706 54.4421 32.8314C54.4582 32.8123 54.4725 32.8005 54.4809 32.7943C54.4894 32.788 54.4945 32.7854 54.4947 32.7853C54.4951 32.7851 54.4923 32.7865 54.486 32.7887C54.4798 32.7908 54.471 32.7933 54.4598 32.7957C54.4371 32.8006 54.4079 32.8041 54.3742 32.8041V33.8041C54.5707 33.8041 54.7728 33.7648 54.9442 33.6786C55.085 33.6077 55.3625 33.4172 55.3625 33.059H54.3625ZM54.3742 32.8041H50.733V33.8041H54.3742V32.8041ZM50.733 32.8041C50.7 32.8041 50.6712 32.8006 50.6484 32.7958C50.6372 32.7934 50.6284 32.7908 50.622 32.7886C50.6155 32.7864 50.6125 32.785 50.6127 32.785C50.6127 32.785 50.6176 32.7875 50.6259 32.7936C50.6341 32.7997 50.6482 32.8113 50.6643 32.8302C50.6972 32.8689 50.7446 32.9475 50.7446 33.059H49.7446C49.7446 33.4191 50.0252 33.6091 50.1643 33.6789C50.3352 33.7646 50.537 33.8041 50.733 33.8041V32.8041ZM50.7446 33.059C50.7446 33.1716 50.6966 33.2505 50.664 33.2888C50.6479 33.3077 50.6338 33.3193 50.6257 33.3254C50.6174 33.3315 50.6125 33.334 50.6124 33.334C50.6122 33.3341 50.6151 33.3326 50.6216 33.3304C50.6279 33.3283 50.6367 33.3257 50.6479 33.3233C50.6706 33.3184 50.6996 33.3149 50.733 33.3149V32.3149C50.5356 32.3149 50.3337 32.3548 50.163 32.4407C50.025 32.5101 49.7446 32.6999 49.7446 33.059H50.7446Z" fill="#792AFF" fill-opacity="0.5" mask="url(#path-25-inside-3_2312_6904)"/>
<mask id="path-27-inside-4_2312_6904" fill="white">
<path fill-rule="evenodd" clip-rule="evenodd" d="M56.0026 32.8149H83.0868C83.3543 32.8149 83.5762 32.9266 83.5762 33.059C83.5762 33.1934 83.3554 33.3041 83.0868 33.3041H56.0026C55.7351 33.3041 55.5132 33.1934 55.5132 33.059C55.5132 32.9266 55.734 32.8149 56.0026 32.8149Z"/>
</mask>
<path fill-rule="evenodd" clip-rule="evenodd" d="M56.0026 32.8149H83.0868C83.3543 32.8149 83.5762 32.9266 83.5762 33.059C83.5762 33.1934 83.3554 33.3041 83.0868 33.3041H56.0026C55.7351 33.3041 55.5132 33.1934 55.5132 33.059C55.5132 32.9266 55.734 32.8149 56.0026 32.8149Z" fill="#FF9300" fill-opacity="0.5"/>
<path d="M56.0026 33.3149H83.0868V32.3149H56.0026V33.3149ZM83.0868 33.3149C83.1194 33.3149 83.1483 33.3184 83.1712 33.3233C83.1825 33.3258 83.1915 33.3283 83.1981 33.3306C83.2014 33.3317 83.2039 33.3327 83.2056 33.3334C83.2073 33.3341 83.2082 33.3345 83.2082 33.3345C83.2082 33.3345 83.2071 33.334 83.2051 33.3328C83.2031 33.3316 83.2 33.3296 83.1958 33.3265C83.188 33.3208 83.1741 33.3094 83.158 33.2908C83.1257 33.2532 83.0762 33.1736 83.0762 33.059H84.0762C84.0762 32.697 83.791 32.5079 83.6555 32.4401C83.4852 32.3549 83.2836 32.3149 83.0868 32.3149V33.3149ZM83.0762 33.059C83.0762 32.9475 83.1237 32.8688 83.1566 32.8301C83.1727 32.8111 83.1869 32.7995 83.195 32.7935C83.1993 32.7903 83.2027 32.7882 83.2048 32.7869C83.2069 32.7856 83.2081 32.785 83.2083 32.7849C83.2084 32.7848 83.2054 32.7863 83.1989 32.7885C83.1925 32.7907 83.1836 32.7933 83.1723 32.7957C83.1493 32.8006 83.1202 32.8041 83.0868 32.8041V33.8041C83.2831 33.8041 83.485 33.7647 83.6562 33.679C83.7954 33.6093 84.0762 33.4192 84.0762 33.059H83.0762ZM83.0868 32.8041H56.0026V33.8041H83.0868V32.8041ZM56.0026 32.8041C55.9696 32.8041 55.9406 32.8006 55.9177 32.7957C55.9063 32.7933 55.8974 32.7907 55.8909 32.7885C55.8843 32.7863 55.8812 32.7848 55.8812 32.7848C55.8813 32.7848 55.8825 32.7854 55.8846 32.7867C55.8866 32.7879 55.8899 32.79 55.8942 32.7931C55.9022 32.7991 55.9163 32.8106 55.9324 32.8295C55.9652 32.868 56.0132 32.9468 56.0132 33.059H55.0132C55.0132 33.4201 55.2956 33.6099 55.4339 33.6791C55.6048 33.7646 55.8066 33.8041 56.0026 33.8041V32.8041ZM56.0132 33.059C56.0132 33.173 55.9641 33.2523 55.9317 33.2902C55.9157 33.3089 55.9017 33.3203 55.8937 33.3262C55.8896 33.3293 55.8863 33.3313 55.8843 33.3326C55.8823 33.3338 55.8812 33.3344 55.8811 33.3344C55.881 33.3344 55.8818 33.334 55.8835 33.3333C55.8852 33.3326 55.8877 33.3317 55.8909 33.3306C55.8974 33.3283 55.9063 33.3258 55.9177 33.3233C55.9406 33.3184 55.9696 33.3149 56.0026 33.3149V32.3149C55.8055 32.3149 55.6038 32.3549 55.4332 32.4403C55.2968 32.5086 55.0132 32.6979 55.0132 33.059H56.0132Z" fill="#792AFF" fill-opacity="0.5" mask="url(#path-27-inside-4_2312_6904)"/>
<mask id="path-29-inside-5_2312_6904" fill="white">
<path fill-rule="evenodd" clip-rule="evenodd" d="M63.7782 30.5435H83.0875C83.3571 30.5435 83.5769 30.6541 83.5769 30.7865C83.5769 30.9188 83.354 31.0305 83.0875 31.0305H63.7782C63.5128 31.0305 63.2888 30.9209 63.2888 30.7865C63.2888 30.652 63.5097 30.5435 63.7782 30.5435Z"/>
</mask>
<path fill-rule="evenodd" clip-rule="evenodd" d="M63.7782 30.5435H83.0875C83.3571 30.5435 83.5769 30.6541 83.5769 30.7865C83.5769 30.9188 83.354 31.0305 83.0875 31.0305H63.7782C63.5128 31.0305 63.2888 30.9209 63.2888 30.7865C63.2888 30.652 63.5097 30.5435 63.7782 30.5435Z" fill="#FF9300" fill-opacity="0.5"/>
<path d="M63.7782 31.0435H83.0875V30.0435H63.7782V31.0435ZM83.0875 31.0435C83.1212 31.0435 83.1506 31.047 83.1737 31.0519C83.1851 31.0543 83.1941 31.0569 83.2006 31.0591C83.2072 31.0613 83.2102 31.0628 83.2101 31.0628C83.21 31.0627 83.2089 31.0621 83.2067 31.0608C83.2046 31.0596 83.2013 31.0575 83.197 31.0543C83.1889 31.0484 83.1747 31.0368 83.1585 31.0178C83.1256 30.9794 83.0769 30.8999 83.0769 30.7865H84.0769C84.0769 30.4255 83.7937 30.2364 83.6564 30.1679C83.4857 30.0828 83.2841 30.0435 83.0875 30.0435V31.0435ZM83.0769 30.7865C83.0769 30.6712 83.1269 30.5914 83.1591 30.5541C83.1892 30.5192 83.2127 30.5088 83.2087 30.5108C83.2008 30.5148 83.1575 30.5305 83.0875 30.5305V31.5305C83.284 31.5305 83.4854 31.4904 83.6555 31.4055C83.7901 31.3382 84.0769 31.1493 84.0769 30.7865H83.0769ZM83.0875 30.5305H63.7782V31.5305H83.0875V30.5305ZM63.7782 30.5305C63.7457 30.5305 63.7168 30.5271 63.6936 30.5222C63.6821 30.5198 63.673 30.5172 63.6663 30.5149C63.663 30.5138 63.6605 30.5128 63.6587 30.5121C63.6578 30.5118 63.6572 30.5115 63.6567 30.5113C63.6563 30.5111 63.6561 30.511 63.6561 30.511C63.6561 30.511 63.6563 30.5111 63.6568 30.5114C63.6573 30.5116 63.6581 30.5121 63.6591 30.5127C63.6611 30.5139 63.6643 30.5159 63.6685 30.519C63.6764 30.5247 63.6906 30.5362 63.7068 30.555C63.7398 30.5933 63.7888 30.6728 63.7888 30.7865H62.7888C62.7888 31.1502 63.0754 31.3392 63.2119 31.4069C63.3824 31.4914 63.5835 31.5305 63.7782 31.5305V30.5305ZM63.7888 30.7865C63.7888 30.8983 63.7411 30.9776 63.7073 31.017C63.6909 31.0361 63.6765 31.0479 63.6682 31.054C63.6597 31.0602 63.6546 31.0626 63.6546 31.0626C63.6545 31.0627 63.6575 31.0612 63.6641 31.059C63.6707 31.0568 63.6797 31.0543 63.6912 31.0518C63.7146 31.0469 63.7442 31.0435 63.7782 31.0435V30.0435C63.5834 30.0435 63.382 30.0818 63.211 30.1665C63.0718 30.2354 62.7888 30.4246 62.7888 30.7865H63.7888Z" fill="#792AFF" fill-opacity="0.5" mask="url(#path-29-inside-5_2312_6904)"/>
<path fill-rule="evenodd" clip-rule="evenodd" d="M42.8376 27.3765H47.1444C47.8132 27.3765 48.3616 27.9225 48.3616 28.5906V32.9795C48.3616 33.6486 47.8121 34.1936 47.1444 34.1936H42.8376C42.1657 34.1936 41.6204 33.6475 41.6204 32.9795V28.5906C41.6204 27.9225 42.1657 27.3765 42.8376 27.3765Z" fill="#792AFF" fill-opacity="0.1"/>
<path d="M42.8372 27.6265H47.1448C47.676 27.6267 48.1115 28.0613 48.1116 28.5903V32.979C48.1116 33.5089 47.6753 33.9437 47.1448 33.9438H42.8372C42.3032 33.9436 41.8704 33.5085 41.8704 32.979V28.5903C41.8705 28.0609 42.3033 27.6267 42.8372 27.6265Z" stroke="#792AFF" stroke-opacity="0.5" stroke-width="0.5"/>
<path fill-rule="evenodd" clip-rule="evenodd" d="M42.4211 37.085H70.9777C71.2566 37.085 71.4836 37.1987 71.4836 37.3383C71.4836 37.4748 71.2534 37.5907 70.9777 37.5907H42.4211C42.1401 37.5907 41.9131 37.4779 41.9131 37.3383C41.9131 37.1987 42.1401 37.085 42.4211 37.085Z" fill="#FF9300" fill-opacity="0.5"/>
<path d="M42.4209 37.335H70.9775C70.9971 37.335 71.0161 37.3356 71.0342 37.3369C71.016 37.3383 70.9971 37.3408 70.9775 37.3408H42.4209C42.4005 37.3408 42.381 37.3393 42.3623 37.3379C42.381 37.3365 42.4005 37.335 42.4209 37.335Z" stroke="#792AFF" stroke-opacity="0.5" stroke-width="0.5"/>
<path fill-rule="evenodd" clip-rule="evenodd" d="M42.419 39.448H62.3194C62.5983 39.448 62.8274 39.5638 62.8274 39.7014C62.8274 39.8379 62.5962 39.9547 62.3194 39.9547H42.419C42.1391 39.9547 41.9131 39.8399 41.9131 39.7014C41.9131 39.5607 42.1401 39.448 42.419 39.448Z" fill="#FF9300" fill-opacity="0.5"/>
<path d="M42.4189 39.698H62.3193C62.3425 39.698 62.3647 39.699 62.3857 39.7009C62.3646 39.7029 62.3424 39.7048 62.3193 39.7048H42.4189C42.395 39.7048 42.3722 39.7029 42.3506 39.7009C42.3722 39.699 42.395 39.698 42.4189 39.698Z" stroke="#792AFF" stroke-opacity="0.5" stroke-width="0.5"/>
<path fill-rule="evenodd" clip-rule="evenodd" d="M52.2904 23.1545H48.9229V15.2878H47.1116V24.6799H52.2893V23.1535L52.2904 23.1545ZM57.0565 15.1399C54.5941 15.1399 53.0389 17.2061 53.0389 20.0138C53.0389 22.8215 54.4459 24.8143 56.9342 24.8143C59.2732 24.8143 60.9383 23.1421 60.9383 19.868C60.9383 17.3633 59.6641 15.1399 57.0576 15.1399H57.0565ZM57.0047 16.6187C58.3899 16.6187 59.0399 18.2196 59.0399 19.9404C59.0399 21.835 58.3401 23.3355 56.9933 23.3355C55.6465 23.3355 54.9363 21.8236 54.9363 19.9776C54.9363 18.2547 55.5843 16.6187 57.0047 16.6187ZM66.5837 15.2878H64.3058L61.6361 24.6799H63.4733L64.1223 22.201H66.6449L67.3188 24.6799H69.2151L66.5837 15.2878ZM64.3795 20.8329L64.9424 18.6829C65.0762 18.1337 65.2358 17.3633 65.3592 16.7769H65.3966C65.5179 17.3499 65.6775 18.1079 65.8248 18.6943L66.3877 20.8329H64.3805H64.3795ZM77.3 15.2878H75.6577V18.1079C75.6577 19.6343 75.7054 20.9673 75.8164 22.1638H75.7925C75.412 21.1876 74.8864 20.0397 74.3846 19.0976L72.398 15.2867H70.4406V24.6789H72.0818V21.7967C72.0818 20.1224 72.0455 18.8049 71.9709 17.6436H72.0196C72.4115 18.6684 72.9631 19.8297 73.466 20.7946L75.4856 24.6789H77.299V15.2867L77.3 15.2878Z" fill="#FF9300" fill-opacity="0.15"/>
<path fill-rule="evenodd" clip-rule="evenodd" d="M85.1315 36.4293C75.5497 46.9839 61.7623 55.2913 45.1461 58.6872C42.308 53.9535 39.9951 49.0813 38.2168 44.1548C52.7508 42.2015 64.788 35.6809 73.0511 27.25C76.6396 30.6385 80.6764 33.7275 85.1315 36.4293Z" fill="#792AFF" fill-opacity="0.5"/>
<path fill-rule="evenodd" clip-rule="evenodd" d="M83.7105 36.5811C74.4327 46.4658 61.3524 54.2512 45.6629 57.6022C43.1962 53.4653 41.1271 49.2199 39.4727 44.9278C53.4195 42.8023 65.0328 36.5174 73.1833 28.4065C76.3554 31.3833 79.8726 34.13 83.7105 36.5811Z" fill="url(#paint3_linear_2312_6904)"/>
<path fill-rule="evenodd" clip-rule="evenodd" d="M71.1197 34.6134C70.1237 35.4273 68.8181 35.764 67.6157 35.6181C62.4721 39.3452 56.4676 42.4231 49.7614 44.5392C49.3581 45.6282 48.3264 46.5637 46.8126 46.9547C45.2951 47.3495 43.7475 47.6957 42.1699 47.9913C43.1135 50.0682 44.1564 52.1282 45.2951 54.162C46.9646 53.799 48.604 53.3855 50.2135 52.9177C51.7686 52.4706 53.4475 52.508 54.9087 52.9252C62.262 50.3076 68.8481 46.6554 74.5019 42.294C74.6013 41.2181 75.1903 40.1217 76.2201 39.2461C77.5876 38.086 78.8895 36.8811 80.1294 35.6349C78.2592 34.2766 76.4734 32.849 74.7795 31.354C73.6202 32.4785 72.3972 33.5656 71.1179 34.6134H71.1197Z" fill="#F9F9F9"/>
<path fill-rule="evenodd" clip-rule="evenodd" d="M67.2153 41.6076C69.3406 43.8809 69.1455 47.0916 66.2961 48.6951C63.4542 50.2985 59.2936 49.3724 57.4815 46.7585C55.6657 44.1484 56.613 41.1061 59.1323 39.8301C61.6647 38.5596 65.0712 39.323 67.2153 41.6076Z" fill="#792AFF" fill-opacity="0.5"/>
<path fill-rule="evenodd" clip-rule="evenodd" d="M54.1556 48.5475C54.8422 49.5766 54.2794 50.8395 52.82 51.3297C51.3644 51.82 49.6104 51.3017 48.9877 50.2184C48.3649 49.135 49.0589 47.9432 50.4508 47.5072C51.8464 47.0731 53.469 47.5203 54.1556 48.5475Z" fill="#792AFF" fill-opacity="0.5"/>
<path fill-rule="evenodd" clip-rule="evenodd" d="M74.0348 37.1284C74.9296 37.9255 74.8395 39.2782 73.744 40.1408C72.6523 41.0052 71.0034 40.994 70.1631 40.1333C69.3114 39.2726 69.5422 37.9442 70.5833 37.1471C71.6262 36.35 73.1325 36.3369 74.0329 37.1303L74.0348 37.1284Z" fill="#792AFF" fill-opacity="0.5"/>
<path d="M64.5389 43.3175C64.8489 43.4128 65.0991 43.6135 65.2897 43.9197C65.5998 44.4178 65.6834 44.9051 65.5408 45.382C65.3981 45.8588 65.0491 46.2694 64.4936 46.614L64.2972 46.7358L64.7719 47.4984L64.3788 47.7422L63.9041 46.9797L62.4263 47.8965L59.5292 43.2432C59.4679 43.1447 59.4095 43.0803 59.3543 43.0496C59.299 43.0194 59.2333 42.9953 59.157 42.978C59.1095 42.9717 59.071 42.9595 59.0417 42.9418C59.0124 42.9239 58.9918 42.8938 58.9796 42.8509C58.9392 42.7394 58.933 42.6157 58.9611 42.4796C58.9889 42.3435 59.0501 42.2462 59.1444 42.1877C59.2439 42.126 59.3622 42.1175 59.4987 42.1619L60.5126 41.5329L60.0329 40.7625L60.426 40.5186L60.9057 41.289L61.0785 41.1818C61.5867 40.8666 62.0713 40.7493 62.5322 40.8302C62.9928 40.9112 63.3573 41.167 63.6254 41.5975C63.8223 41.9138 63.9032 42.2071 63.8679 42.4771C63.8327 42.7472 63.7079 43.0134 63.4934 43.2756L63.508 43.299C63.8849 43.2164 64.2285 43.2226 64.5384 43.3177L64.5389 43.3175ZM61.2507 44.2571L61.9424 43.828L60.9057 42.1628L60.214 42.5919L61.2507 44.2571ZM63.5119 46.3493L62.3394 44.4662L61.6477 44.8953L62.8202 46.7784L63.5119 46.3493ZM61.2986 41.9191L62.3353 43.5843L62.3431 43.5794C62.6522 43.3877 62.8515 43.1652 62.9409 42.9121C63.0301 42.6591 62.9861 42.3898 62.8083 42.1044C62.6566 41.8606 62.4585 41.7118 62.2147 41.6583C61.9705 41.6047 61.7044 41.6673 61.4163 41.846L61.2984 41.9192L61.2986 41.9191ZM64.6627 45.3012C64.7327 45.0349 64.6693 44.7434 64.4722 44.4268C64.2882 44.1312 64.0504 43.9623 63.7589 43.9201C63.4675 43.878 63.1489 43.964 62.803 44.1786L62.7323 44.2224L63.9048 46.1056L64.062 46.008C64.3922 45.8032 64.5922 45.5677 64.6623 45.3011L64.6627 45.3012Z" fill="white"/>
<path fill-rule="evenodd" clip-rule="evenodd" d="M77.5629 66.5975C78.4275 65.3943 79.6811 64.3733 79.989 62.9259C80.3549 61.2151 79.2708 59.4921 79.4273 57.7515C79.6251 55.5595 81.6532 54.0424 82.695 52.1046C83.7177 50.2075 83.1642 49.6136 83.1534 47.4596C83.1414 44.2148 85.5921 39.9902 89.1965 40.9053C92.8547 41.8352 92.4377 45.2035 91.9351 47.7501C91.5753 49.563 91.8842 49.8057 92.4132 51.5748C93.055 53.7132 94.8721 55.7172 94.2667 57.8657C93.8926 59.1947 92.6538 60.1408 92.2555 61.464C91.8052 62.9628 92.5244 64.5244 92.8482 66.0542C93.5334 69.2769 92.9301 72.0158 90.7026 74.8176C90.4307 75.1051 90.1452 75.3686 89.8445 75.6135C86.5642 75.6148 82.9062 75.6514 78.9285 75.7184C78.8709 75.6666 78.8151 75.613 78.7582 75.5577C76.472 73.3094 75.618 69.2992 77.5638 66.5975L77.5629 66.5975Z" fill="#792AFF" fill-opacity="0.5"/>
<path fill-rule="evenodd" clip-rule="evenodd" d="M87.888 43.9304C87.9352 43.7815 88.0965 43.6999 88.2477 43.7487C88.3971 43.7975 88.4788 43.9584 88.4298 44.1074C88.186 44.8551 87.9898 45.6349 87.828 46.4455C87.9054 46.3682 87.9865 46.2926 88.0702 46.2177C88.44 45.8881 88.8674 45.5952 89.3445 45.3395C89.483 45.2635 89.6548 45.3174 89.7309 45.4547C89.8044 45.5939 89.7512 45.7644 89.6136 45.8403C89.1735 46.0755 88.7855 46.3434 88.4487 46.6423C88.1306 46.9269 87.8564 47.2393 87.6272 47.5829C87.3527 49.3331 87.2111 51.2089 87.0976 53.1839C87.4005 52.6547 87.73 52.1788 88.0834 51.7547C88.6967 51.0163 89.3878 50.431 90.1568 50.0014C90.2943 49.9229 90.4676 49.9722 90.5446 50.1095C90.6206 50.2451 90.5738 50.4187 90.4361 50.4946C89.7308 50.89 89.0933 51.432 88.5215 52.1179C87.9548 52.7992 87.4548 53.6254 87.0232 54.592L86.995 55.1274C86.9343 56.3044 86.8707 57.5125 86.7882 58.7462C86.7888 58.7577 86.7885 58.7692 86.7847 58.7817C86.6979 60.0704 86.5852 61.3886 86.4277 62.7304C86.9941 61.7508 87.613 60.8814 88.2852 60.117C89.2682 58.9969 90.364 58.1075 91.5734 57.4498C91.7111 57.3739 91.8837 57.4259 91.9597 57.5624C92.0341 57.7007 91.9836 57.8727 91.8459 57.9477C90.6969 58.5759 89.6511 59.423 88.7132 60.4905C87.777 61.5571 86.9449 62.8433 86.2153 64.3477C85.9565 66.1297 85.6031 67.9475 85.1043 69.794L85.102 69.8003C84.8575 70.706 84.5779 71.6189 84.2569 72.5356C85.0804 71.7547 85.9602 71.0705 86.9017 70.4839C88.2125 69.6647 89.6307 69.0377 91.1595 68.6019C91.3103 68.558 91.4679 68.6452 91.5111 68.7966C91.556 68.9479 91.4676 69.1051 91.3159 69.1491C89.8368 69.5709 88.4637 70.177 87.2033 70.9636C85.9558 71.7425 84.8132 72.7022 83.7736 73.8402C83.5343 74.4518 83.2765 75.0661 82.9975 75.6806L82.3669 75.6873C83.3035 73.664 84.0082 71.656 84.5454 69.6788C84.58 68.2877 84.3447 66.9123 83.8375 65.5516C83.3233 64.1728 82.5307 62.8021 81.4567 61.4476C81.3601 61.3246 81.3809 61.1443 81.5025 61.0489C81.6258 60.9508 81.8047 60.9717 81.9031 61.0946C83.0115 62.4986 83.834 63.9163 84.3688 65.3523C84.6727 66.1682 84.8849 66.9896 85.0034 67.8132C85.6987 64.6954 86.0162 61.6649 86.2147 58.7791C85.8194 57.5796 85.3941 56.5705 84.9377 55.7501C84.4851 54.933 84.0061 54.3088 83.501 53.8819C83.3825 53.7794 83.368 53.601 83.4707 53.481C83.5725 53.3628 83.7522 53.3465 83.8699 53.449C84.4306 53.9243 84.952 54.5993 85.4368 55.4747C85.7392 56.0197 86.0279 56.6439 86.3058 57.3499C86.3498 56.5877 86.3881 55.8364 86.427 55.0965L86.4577 54.523C86.4571 54.5115 86.4576 54.5036 86.4588 54.492C86.6624 50.5715 86.8895 47.0037 87.8906 43.9303L87.888 43.9304Z" fill="white"/>
<path fill-rule="evenodd" clip-rule="evenodd" d="M87.3449 67.6518C88.3061 67.0694 89.4822 66.7285 90.1253 65.8111C90.8863 64.7271 90.6453 63.2063 91.2702 62.041C92.0592 60.5715 93.9214 60.1142 95.2262 59.0729C96.501 58.0508 96.2891 57.4765 96.9223 55.9718C97.8783 53.7065 100.842 51.4892 103.081 53.191C105.353 54.921 104.061 57.1444 102.954 58.7686C102.165 59.9247 102.308 60.1858 102.153 61.5741C101.964 63.2538 102.634 65.1877 101.573 66.5043C100.919 67.3198 99.7749 67.6123 99.1039 68.4164C98.3454 69.3264 98.384 70.6272 98.1553 71.7899C97.8473 73.3547 97.2305 74.6264 96.2041 75.6781C93.3531 75.6292 90.0485 75.6212 86.358 75.647C86.0115 75.2243 85.7244 74.7527 85.5152 74.2462C84.5911 72.0049 85.1884 68.9583 87.3458 67.6518L87.3449 67.6518Z" fill="url(#paint4_linear_2312_6904)"/>
<path fill-rule="evenodd" clip-rule="evenodd" d="M101.154 54.8489C101.231 54.7585 101.367 54.7497 101.456 54.8281C101.546 54.9047 101.555 55.0402 101.478 55.1315C101.086 55.5788 100.717 56.0655 100.364 56.5823C100.441 56.5519 100.521 56.5231 100.602 56.496C100.956 56.3763 101.34 56.2966 101.75 56.2588C101.867 56.2475 101.97 56.3358 101.983 56.4552C101.992 56.5721 101.906 56.6763 101.788 56.6876C101.41 56.7229 101.06 56.7937 100.737 56.903C100.43 57.0052 100.147 57.1424 99.8855 57.3147C99.1732 58.4518 98.518 59.7167 97.8534 61.0579C98.2214 60.7814 98.5907 60.5462 98.9631 60.3541C99.6114 60.0217 100.266 59.8186 100.93 59.7458C101.048 59.7336 101.154 59.8199 101.166 59.9358C101.181 60.0542 101.095 60.1601 100.978 60.1749C100.369 60.2397 99.7625 60.4288 99.1625 60.7375C98.5642 61.0462 97.972 61.472 97.3842 62.0176L97.2047 62.3825C96.8141 63.1845 96.4104 64.0066 95.9871 64.8421C95.9822 64.8503 95.979 64.8576 95.975 64.8657C95.5314 65.7384 95.061 66.6222 94.5536 67.5105C95.2377 66.9962 95.9283 66.5733 96.6218 66.2404C97.6381 65.7505 98.6671 65.455 99.7042 65.3524C99.824 65.341 99.9285 65.4292 99.9408 65.5469C99.9503 65.6638 99.8637 65.7697 99.7466 65.781C98.7614 65.8783 97.7814 66.1615 96.808 66.6271C95.84 67.0933 94.8798 67.7445 93.9227 68.5782C93.2144 69.7408 92.4291 70.9037 91.531 72.0407L91.5278 72.0461L91.526 72.0462C91.0884 72.6044 90.623 73.157 90.1254 73.7015C90.9319 73.3989 91.7483 73.184 92.5785 73.0515C93.7328 72.8696 94.908 72.8526 96.1014 73.0007C96.2207 73.0148 96.3041 73.1218 96.2907 73.2399C96.2763 73.3571 96.1674 73.4412 96.0481 73.4271C94.8912 73.2833 93.7567 73.3 92.6447 73.477C91.5449 73.6517 90.4628 73.9816 89.402 74.4676C89.0126 74.8618 88.6088 75.2514 88.1853 75.6368L87.5341 75.6393C88.9313 74.4167 90.1284 73.1232 91.1751 71.795C91.6125 70.8379 91.8587 69.8085 91.9085 68.7115C91.9618 67.5975 91.813 66.4083 91.4685 65.147C91.4378 65.032 91.5052 64.9138 91.6204 64.8832C91.7356 64.8517 91.8541 64.9189 91.8848 65.0338C92.243 66.3377 92.393 67.5692 92.3386 68.73C92.3078 69.3874 92.2112 70.0208 92.0497 70.631C93.4617 68.6636 94.5835 66.6467 95.5786 64.6945C95.658 63.7442 95.6614 62.9144 95.5878 62.2067C95.5145 61.5035 95.3681 60.9293 95.1425 60.4819C95.0901 60.3761 95.1339 60.2458 95.2409 60.1936C95.3461 60.1405 95.4758 60.1833 95.529 60.2891C95.7766 60.7848 95.9407 61.4111 96.0175 62.1644C96.0673 62.6341 96.0816 63.1541 96.0668 63.7268C96.3234 63.2097 96.5741 62.6981 96.8198 62.1939L97.012 61.8019C97.0144 61.7956 97.0193 61.7883 97.0216 61.782C98.3284 59.1112 99.5446 56.6914 101.157 54.8479L101.154 54.8489Z" fill="white"/>
<path d="M22.8188 58.0478C22.4203 58.9985 21.9771 59.9744 21.4899 60.9573C21.0356 61.8708 20.5614 62.7504 20.0797 63.5865L15.5098 63.115C16.37 62.9513 17.6331 61.5485 18.6044 59.6011C19.6155 57.5725 19.9581 55.627 19.4901 54.8884L22.8188 58.0478Z" fill="url(#paint5_linear_2312_6904)"/>
<path d="M47.0415 69.0195C47.0415 69.0195 45.7257 74.5444 42.7527 77.3487C41.7497 76.8387 40.7659 76.3671 39.8194 75.9377C39.3607 75.728 38.9132 75.5253 38.4707 75.3358C41.4437 72.5309 42.991 66.6421 42.991 66.6421C44.2454 67.4285 45.5898 68.2205 47.0421 69.0195H47.0415Z" fill="#792AFF" fill-opacity="0.75"/>
<path d="M26.9355 49.9841C27.0541 49.9751 27.1628 50.0504 27.1953 50.1648V50.1658C27.1955 50.1663 27.196 50.1676 27.1963 50.1687C27.1971 50.1716 27.1983 50.1762 27.2002 50.1824C27.2042 50.1955 27.2106 50.2163 27.2197 50.2439C27.2379 50.2991 27.2676 50.3833 27.3096 50.4939C27.3936 50.7151 27.5295 51.0439 27.7363 51.4666C28.1504 52.3126 28.8477 53.5364 29.9766 55.032C32.234 58.0229 36.2197 62.1048 43.123 66.4294C43.1926 66.473 43.2352 66.5469 43.2402 66.6257L43.2324 66.7048V66.7068C43.2322 66.7075 43.2318 66.7085 43.2314 66.7097C43.2306 66.7128 43.2291 66.7175 43.2275 66.7234C43.2244 66.735 43.22 66.752 43.2139 66.7742C43.2015 66.819 43.1835 66.8852 43.1592 66.9695C43.1105 67.1381 43.037 67.3818 42.9404 67.6824C42.7474 68.2832 42.4585 69.1139 42.0762 70.033C41.3145 71.8635 40.168 74.0776 38.6416 75.5173C38.5689 75.5856 38.4626 75.6038 38.3711 75.5642C37.2252 75.068 36.1214 74.627 35.0605 74.2332L35.0586 74.2322C34.4891 74.0156 33.9351 73.8194 33.3916 73.6365V73.6355C24.0083 70.4495 18.4611 71.2046 16.7422 71.5896C16.6343 71.6138 16.5237 71.5641 16.4697 71.4675C16.4159 71.371 16.4317 71.2509 16.5088 71.1716C18.7154 68.9044 21.015 65.617 22.9521 61.7107C22.9587 61.6968 22.9652 61.682 22.9727 61.6658H22.9736C22.9755 61.6616 22.9784 61.658 22.9805 61.6541C22.9815 61.6518 22.9823 61.6494 22.9834 61.6472C25.0248 57.5263 26.2873 53.4957 26.6982 50.2673L26.7061 50.2029L26.7158 50.1599C26.7455 50.0631 26.8317 49.9921 26.9355 49.9841Z" fill="url(#paint6_linear_2312_6904)" stroke="#1A1818" stroke-width="0.5" stroke-linejoin="round"/>
<mask id="mask0_2312_6904" style="mask-type:luminance" maskUnits="userSpaceOnUse" x="42" y="69" width="11" height="11">
<path style="mix-blend-mode:multiply" d="M51.3557 76.876C49.8792 79.5588 46.239 79.2018 46.239 79.2018C45.0429 78.5325 43.8835 77.9174 42.7539 77.3482C45.7269 74.5433 47.0427 69.019 47.0427 69.019C48.15 69.6222 49.3106 70.2317 50.5377 70.8367C51.4203 71.4978 52.8385 74.1945 51.3557 76.876Z" fill="url(#paint7_linear_2312_6904)"/>
</mask>
<g mask="url(#mask0_2312_6904)">
<path d="M51.3557 76.876C49.8792 79.5588 46.239 79.2018 46.239 79.2018C45.0429 78.5325 43.8835 77.9174 42.7539 77.3482C45.7269 74.5433 47.0427 69.019 47.0427 69.019C48.15 69.6222 49.3106 70.2317 50.5377 70.8367C51.4203 71.4978 52.8385 74.1945 51.3557 76.876Z" fill="url(#paint8_linear_2312_6904)"/>
</g>
<path d="M23.2138 61.7243L23.1797 61.7769L23.1911 61.7845L23.2252 61.7319L23.2138 61.7243Z" fill="url(#paint9_linear_2312_6904)"/>
<path d="M19.2614 54.6249L19.2188 54.6707L19.4681 54.9099L19.5108 54.8641L19.2614 54.6249Z" fill="url(#paint10_linear_2312_6904)"/>
<path d="M39.8206 75.9374L32.3776 86.3619C32.0002 86.8857 31.2926 87.0381 30.7396 86.7056L26.6178 84.2646C25.9009 83.839 25.7861 82.831 26.3993 82.2562L31.6576 77.2917L35.1489 73.9988C36.2139 74.3942 37.3224 74.8374 38.4719 75.3354C38.9151 75.525 39.3626 75.7277 39.8206 75.9374Z" fill="#792AFF"/>
<path d="M35.1465 73.9986L31.6553 77.2914L30.9757 76.7538C30.6771 76.5208 30.6579 76.0763 30.931 75.8156L31.2183 75.5386L32.9587 73.8884L33.4707 73.3992C34.0169 73.583 34.5743 73.7807 35.1465 73.9986Z" fill="url(#paint11_linear_2312_6904)"/>
<path d="M32.9599 73.8886L31.2195 75.5395L30.9297 75.338L32.675 73.6941L32.9599 73.8886Z" fill="#792AFF"/>
<path d="M25.2603 43.435C22.1551 41.8433 16.1793 47.4985 11.9221 56.065C7.65937 64.6309 6.72712 72.8587 9.83791 74.4516C11.5187 75.3155 14.0467 74.0506 16.6876 71.3464C18.9158 69.0571 21.2297 65.7472 23.1761 61.8222C23.1841 61.8052 23.1922 61.7876 23.2003 61.77C23.2009 61.7637 23.2071 61.7649 23.2077 61.7586C25.2584 57.6189 26.5314 53.5617 26.9466 50.2997L26.9547 50.2335C27.3848 46.7959 26.8504 44.2447 25.2603 43.435ZM21.4897 60.9571C21.0354 61.8707 20.5612 62.7503 20.0796 63.5864L15.5096 63.1148C16.3698 62.9511 17.6329 61.5483 18.6042 59.6009C19.6153 57.5723 19.9579 55.6268 19.4899 54.8883L22.8186 58.0477C22.4201 58.9984 21.9769 59.9743 21.4897 60.9571Z" fill="url(#paint12_linear_2312_6904)"/>
<path d="M22.8187 58.0487L19.4901 54.8893C19.9581 55.6278 19.6155 57.5733 18.6044 59.6019C17.6331 61.5493 16.37 62.9521 15.5098 63.1158L20.0797 63.5874C16.5444 69.7154 12.4325 73.5944 10.347 72.5272C7.97671 71.3146 9.11874 64.1672 12.8967 56.5665C16.6816 48.9602 21.6693 43.7778 24.039 44.9968C26.1015 46.0551 25.5019 51.6127 22.8187 58.0487Z" fill="#1A1818" fill-opacity="0.35"/>
<path d="M18.6033 59.6012C17.632 61.5486 16.3689 62.9514 15.5087 63.1151C15.3355 63.1491 15.1865 63.1308 15.055 63.0654C14.2456 62.6523 14.5299 60.4361 15.6849 58.1122C16.8406 55.7889 18.4295 54.2363 19.2389 54.6493C19.3419 54.699 19.4282 54.7828 19.4884 54.8886C19.9564 55.6271 19.6138 57.5726 18.6027 59.6012H18.6033Z" fill="url(#paint13_linear_2312_6904)"/>
<path d="M17.9864 59.2869C18.8726 57.5049 19.1737 55.8467 18.6589 55.5833C18.1442 55.3198 17.0084 56.5509 16.1222 58.3329C15.236 60.115 14.9349 61.7731 15.4497 62.0366C15.9644 62.3 17.1001 61.0689 17.9864 59.2869Z" fill="white"/>
<path d="M77.5537 57.3655C77.6093 57.3592 77.6665 57.3724 77.7148 57.4026C81.4979 59.7666 83.8545 62.619 84.8965 65.5471C85.9175 68.4162 85.6663 71.3393 84.2842 73.9094L86.168 75.7952C86.2394 75.8667 86.2613 75.9742 86.2227 76.0676C86.1839 76.161 86.0923 76.2219 85.9912 76.2219C84.0011 76.222 82.2715 76.5459 80.5186 76.8743C78.769 77.2021 76.996 77.5344 74.9531 77.5344C72.9103 77.5344 71.1374 77.202 69.3877 76.8743C67.8535 76.5869 66.337 76.303 64.6484 76.2366L63.9141 76.2219C63.813 76.2219 63.7223 76.1609 63.6836 76.0676C63.6449 75.9742 63.6658 75.8667 63.7373 75.7952L65.6201 73.9094C64.2383 71.3393 63.9879 68.4158 65.0088 65.5471C66.0509 62.619 68.408 59.7666 72.1914 57.4026L72.2441 57.3772C72.2988 57.3588 72.3591 57.36 72.4141 57.3811C74.1533 58.0496 75.8368 57.9606 77.499 57.3782L77.5537 57.3655ZM73.4609 51.8547C74.0091 51.8549 74.5741 52.0011 75.1689 52.385C76.5714 51.9561 77.2612 52.5032 77.7412 52.5637L77.9775 52.5833C78.2109 52.5921 78.4349 52.5709 78.6611 52.5413C78.9531 52.5029 79.2758 52.4446 79.5918 52.429C79.9186 52.4128 80.2613 52.4403 80.6309 52.5764C80.9992 52.7121 81.3802 52.9503 81.792 53.3372C81.8604 53.4014 81.8874 53.499 81.8613 53.5891C81.8417 53.6567 81.7945 53.7116 81.7334 53.7424L81.6689 53.7649C80.9849 53.8978 80.3302 54.4107 79.6191 55.0598C78.9287 55.6901 78.1882 56.445 77.3789 56.9397C77.3661 56.9475 77.3529 56.9548 77.3389 56.9602C75.7999 57.5518 74.209 57.6089 72.5645 56.9592C72.5381 56.9488 72.5136 56.9338 72.4922 56.9153C72.1622 56.6287 71.8161 56.3647 71.4629 56.0959C71.1115 55.8286 70.7516 55.5568 70.4062 55.261C69.7124 54.6667 69.0645 53.9685 68.5977 52.9788C68.5553 52.8888 68.5702 52.7821 68.6357 52.7073C68.7014 52.6325 68.8057 52.6036 68.9004 52.634C69.9157 52.9617 70.8026 52.5475 71.8438 52.1868C72.35 52.0113 72.8889 51.8546 73.4609 51.8547Z" fill="url(#paint14_linear_2312_6904)" stroke="#1A1818" stroke-width="0.5" stroke-linejoin="round"/>
<path fill-rule="evenodd" clip-rule="evenodd" d="M68.9531 52.9711C69.5301 53.722 71.8141 53.7066 72.5515 53.6985C72.9252 53.6945 73.3293 53.7273 73.6733 53.883C73.8916 53.9825 74.0316 54.1107 74.2228 54.2408C74.6711 54.5451 75.2349 54.4122 75.7236 54.2839C76.4085 54.1043 77.0716 53.9433 77.7711 53.8232C78.988 53.6136 80.2234 53.5164 81.4549 53.4968C81.4692 53.4928 81.4838 53.4886 81.4974 53.4854C80.899 52.9448 80.3206 52.6754 79.4874 52.7438C78.8661 52.7955 78.3413 52.9501 77.7011 52.8692C77.3656 52.8268 77.0344 52.659 76.6986 52.5838C76.1667 52.4626 75.6629 52.5421 75.1506 52.7135L75.1231 52.7228L75.0988 52.706C74.4396 52.252 73.769 52.0796 72.9759 52.2021C71.588 52.417 70.4104 53.3567 68.9535 52.9704L68.9531 52.9711Z" fill="url(#paint15_linear_2312_6904)"/>
<path fill-rule="evenodd" clip-rule="evenodd" d="M72.6566 56.7266C72.4444 57.0811 72.3279 57.3798 72.3086 57.6231C72.314 57.6206 72.3186 57.6171 72.3243 57.6139C73.036 57.8879 73.7387 58.0383 74.4336 58.0839C75.5 58.1537 76.5479 57.9756 77.5822 57.6139C77.5404 57.332 77.43 57.0359 77.2496 56.7269C76.3278 57.0808 75.3904 57.2365 74.4336 57.1538C73.8491 57.1036 73.2575 56.9639 72.6566 56.7269V56.7266Z" fill="#F9F9F9"/>
<path d="M77.7785 68.2428C78.0682 68.5777 78.2129 68.9922 78.2129 69.4864C78.2129 70.2904 77.9589 70.9182 77.4509 71.3705C76.9428 71.8227 76.244 72.0486 75.3541 72.0486H75.0393V73.2794H74.4095V72.0486H72.0419V64.5374C72.0419 64.3785 72.0208 64.2613 71.979 64.1857C71.9368 64.1105 71.8783 64.035 71.8025 63.9598C71.7521 63.9181 71.7164 63.8761 71.6953 63.8344C71.6743 63.7923 71.6721 63.7424 71.6889 63.6836C71.7225 63.5247 71.8043 63.3761 71.9347 63.2378C72.0647 63.0996 72.2055 63.0304 72.3566 63.0304C72.516 63.0304 72.6589 63.106 72.7846 63.2564H74.4091V62.0127H75.039V63.2564H75.3158C76.1301 63.2564 76.7746 63.4698 77.249 63.8971C77.7231 64.324 77.9603 64.8852 77.9603 65.5801C77.9603 66.0908 77.8428 66.4906 77.6077 66.7796C77.3726 67.0686 77.0368 67.2885 76.6002 67.4388V67.4766C77.0954 67.6527 77.488 67.9082 77.7778 68.2428H77.7785ZM73.302 66.9617H74.4102V64.2737H73.302V66.9617ZM74.4098 71.0312V67.9915H73.3016V71.0312H74.4098ZM75.0397 64.2737V66.9617H75.0522C75.5474 66.9617 75.9378 66.8466 76.2233 66.6164C76.5084 66.3862 76.6513 66.0409 76.6513 65.5801C76.6513 65.1867 76.5295 64.8703 76.2862 64.6319C76.0425 64.3931 75.6899 64.2737 75.2283 64.2737H75.0393H75.0397ZM76.4941 70.6421C76.7667 70.3827 76.9032 69.9974 76.9032 69.4864C76.9032 69.0093 76.7499 68.6408 76.4434 68.381C76.1368 68.1216 75.7067 67.9915 75.1526 67.9915H75.0393V71.0312H75.2912C75.8203 71.0312 76.2208 70.9015 76.4938 70.6417L76.4941 70.6421Z" fill="white"/>
<path fill-rule="evenodd" clip-rule="evenodd" d="M42.2092 32.2286C34.2813 33.0819 25.4338 31.4377 17.233 26.694C17.8098 23.6653 18.6573 20.7736 19.7482 18.0575C26.5428 22.6313 33.9947 24.3726 40.5818 23.9169C40.819 26.6621 41.3547 29.4486 42.2092 32.2286Z" fill="#792AFF" fill-opacity="0.5"/>
<path fill-rule="evenodd" clip-rule="evenodd" d="M41.5594 31.7648C34.0075 32.4512 25.6495 30.8512 17.8524 26.4324C18.362 23.7906 19.0781 21.251 19.9847 18.8456C26.5982 23.1299 33.7854 24.8124 40.2065 24.4484C40.423 26.8674 40.8692 29.3183 41.5594 31.7648Z" fill="url(#paint16_linear_2312_6904)"/>
<path fill-rule="evenodd" clip-rule="evenodd" d="M37.0353 26.274C36.3165 26.2445 35.6462 25.9009 35.1985 25.3942C31.6641 25.0429 28.0119 24.1013 24.4248 22.4981C23.8511 22.8031 23.0723 22.8111 22.2948 22.4131C21.5143 22.0152 20.7394 21.5858 19.9708 21.1243C19.5918 22.3412 19.2606 23.588 18.9791 24.8593C19.8112 25.3268 20.6495 25.7621 21.4955 26.1636C22.3112 26.5536 22.9981 27.1917 23.4529 27.9078C27.4969 29.5416 31.6056 30.459 35.589 30.7347C36.0309 30.3224 36.6848 30.0831 37.4406 30.0994C38.4432 30.1221 39.4351 30.1018 40.4165 30.0414C40.1412 28.7808 39.9269 27.5226 39.7761 26.2704C38.8736 26.31 37.9585 26.3103 37.0345 26.2733L37.0353 26.274Z" fill="#F9F9F9"/>
<path fill-rule="evenodd" clip-rule="evenodd" d="M32.8024 27.7461C32.8437 29.4833 31.5674 30.7513 29.7811 30.3642C27.998 29.9798 26.6056 28.0504 26.8218 26.2872C27.0351 24.5242 28.5627 23.6054 30.0893 24.0068C31.6193 24.4154 32.7574 25.9973 32.8024 27.7461Z" fill="#792AFF" fill-opacity="0.5"/>
<path fill-rule="evenodd" clip-rule="evenodd" d="M24.7678 25.8019C24.6715 26.4861 23.9665 26.8047 23.1748 26.4682C22.3847 26.1331 21.8453 25.2664 21.9885 24.5832C22.1316 23.9 22.8649 23.6597 23.6082 23.9939C24.3524 24.3301 24.8634 25.1185 24.7678 25.8019Z" fill="#792AFF" fill-opacity="0.5"/>
<path fill-rule="evenodd" clip-rule="evenodd" d="M37.3167 28.4066C37.3937 29.0711 36.8527 29.6025 36.0743 29.5564C35.2969 29.5124 34.6127 28.8963 34.5821 28.2254C34.5469 27.5503 35.1375 27.0813 35.8688 27.1345C36.6008 27.1885 37.2346 27.7416 37.3152 28.4067L37.3167 28.4066Z" fill="#792AFF" fill-opacity="0.5"/>
<path d="M31.0493 27.4665C31.1433 27.6212 31.173 27.7978 31.1387 27.9963C31.0828 28.3192 30.9363 28.5537 30.6993 28.6999C30.4623 28.846 30.1638 28.888 29.8037 28.8259L29.6763 28.804L29.5908 29.2983L29.3359 29.2544L29.4214 28.76L28.4634 28.5948L28.9855 25.5778C28.9966 25.514 28.9962 25.4654 28.9845 25.4322C28.9727 25.399 28.9542 25.3646 28.9288 25.3291C28.9113 25.3088 28.8998 25.2895 28.8942 25.2713C28.8886 25.2529 28.8912 25.2327 28.902 25.2103C28.9267 25.1488 28.9701 25.0948 29.0325 25.0484C29.0947 25.0019 29.1565 24.9839 29.2176 24.9945C29.2821 25.0056 29.3347 25.0459 29.3751 25.1151L30.0325 25.2285L30.119 24.7289L30.3738 24.7729L30.2874 25.2724L30.3994 25.2918C30.7289 25.3486 30.9749 25.4793 31.1372 25.684C31.2993 25.8886 31.3563 26.1306 31.308 26.4097C31.2725 26.6148 31.1972 26.7672 31.0819 26.8668C30.9667 26.9665 30.8155 27.0314 30.6284 27.0613L30.6258 27.0765C30.8139 27.1818 30.955 27.3118 31.049 27.4664L31.0493 27.4665ZM29.3269 26.6395L29.7754 26.7168L29.9622 25.6372L29.5138 25.5599L29.3269 26.6395ZM29.4923 28.3514L29.7036 27.1305L29.2552 27.0531L29.0439 28.274L29.4923 28.3514ZM30.2169 25.6811L30.0301 26.7608L30.0352 26.7616C30.2355 26.7962 30.4015 26.7772 30.5331 26.7047C30.6644 26.6321 30.7463 26.5034 30.7783 26.3183C30.8056 26.1603 30.7783 26.0247 30.6965 25.912C30.6145 25.7991 30.4801 25.7265 30.2933 25.6943L30.2168 25.6811L30.2169 25.6811ZM30.3628 28.3405C30.4911 28.2554 30.5731 28.1102 30.6087 27.9049C30.6418 27.7133 30.6054 27.5546 30.4994 27.4288C30.3934 27.3032 30.2284 27.221 30.0042 27.1823L29.9584 27.1744L29.747 28.3953L29.849 28.4129C30.0631 28.4498 30.2342 28.4257 30.3627 28.3404L30.3628 28.3405Z" fill="white"/>
</g>
<defs>
<linearGradient id="paint0_linear_2312_6904" x1="60.4633" y1="14.27" x2="60.4633" y2="65.7295" gradientUnits="userSpaceOnUse">
<stop stop-color="#FFBF69"/>
<stop offset="1" stop-color="#FF9300"/>
</linearGradient>
<linearGradient id="paint1_linear_2312_6904" x1="31.4321" y1="6.23657" x2="31.4321" y2="15" gradientUnits="userSpaceOnUse">
<stop stop-color="#FFBF69"/>
<stop offset="1" stop-color="#FF9300"/>
</linearGradient>
<linearGradient id="paint2_linear_2312_6904" x1="68.6035" y1="69.324" x2="68.6035" y2="76.6371" gradientUnits="userSpaceOnUse">
<stop stop-color="#FFBF69"/>
<stop offset="1" stop-color="#FF9300"/>
</linearGradient>
<linearGradient id="paint3_linear_2312_6904" x1="61.5916" y1="28.4065" x2="61.5916" y2="57.6022" gradientUnits="userSpaceOnUse">
<stop stop-color="#EEE5FF"/>
<stop offset="1" stop-color="#DECBFF"/>
</linearGradient>
<linearGradient id="paint4_linear_2312_6904" x1="94.1577" y1="52.9524" x2="95.3247" y2="75.7232" gradientUnits="userSpaceOnUse">
<stop stop-color="#A169FF"/>
<stop offset="1" stop-color="#792AFF"/>
</linearGradient>
<linearGradient id="paint5_linear_2312_6904" x1="19.1643" y1="54.8884" x2="19.1643" y2="63.5865" gradientUnits="userSpaceOnUse">
<stop stop-color="#FFBF69"/>
<stop offset="1" stop-color="#FF9300"/>
</linearGradient>
<linearGradient id="paint6_linear_2312_6904" x1="17.9321" y1="60.9594" x2="43.3052" y2="64.004" gradientUnits="userSpaceOnUse">
<stop stop-color="white"/>
<stop offset="0.37" stop-color="#F2F2FF"/>
<stop offset="1" stop-color="#D2D2FF"/>
</linearGradient>
<linearGradient id="paint7_linear_2312_6904" x1="40.5734" y1="71.1969" x2="49.269" y2="75.2563" gradientUnits="userSpaceOnUse">
<stop stop-color="white"/>
<stop offset="0.17" stop-color="#C5C5C5"/>
<stop offset="0.4" stop-color="#808080"/>
<stop offset="0.6" stop-color="#494949"/>
<stop offset="0.78" stop-color="#212121"/>
<stop offset="0.92" stop-color="#080808"/>
<stop offset="1"/>
</linearGradient>
<linearGradient id="paint8_linear_2312_6904" x1="40.5734" y1="71.1969" x2="49.269" y2="75.2563" gradientUnits="userSpaceOnUse">
<stop stop-color="#FFD571"/>
<stop offset="0.28" stop-color="#FFAC54"/>
<stop offset="0.59" stop-color="#FF8538"/>
<stop offset="0.85" stop-color="#FF6C27"/>
<stop offset="1" stop-color="#FF6421"/>
</linearGradient>
<linearGradient id="paint9_linear_2312_6904" x1="23.1821" y1="61.7514" x2="23.2216" y2="61.7561" gradientUnits="userSpaceOnUse">
<stop stop-color="#808080"/>
<stop offset="0.64" stop-color="#51514C"/>
<stop offset="1" stop-color="#3C3C35"/>
</linearGradient>
<linearGradient id="paint10_linear_2312_6904" x1="19.2101" y1="54.7473" x2="19.5208" y2="54.7845" gradientUnits="userSpaceOnUse">
<stop stop-color="#808080"/>
<stop offset="0.64" stop-color="#51514C"/>
<stop offset="1" stop-color="#3C3C35"/>
</linearGradient>
<linearGradient id="paint11_linear_2312_6904" x1="32.9424" y1="73.3992" x2="32.9424" y2="77.2914" gradientUnits="userSpaceOnUse">
<stop stop-color="#FFBF69"/>
<stop offset="1" stop-color="#FF9300"/>
</linearGradient>
<linearGradient id="paint12_linear_2312_6904" x1="17.5488" y1="43.1667" x2="17.5488" y2="74.7206" gradientUnits="userSpaceOnUse">
<stop stop-color="#A169FF"/>
<stop offset="1" stop-color="#792AFF"/>
</linearGradient>
<linearGradient id="paint13_linear_2312_6904" x1="17.1442" y1="54.5828" x2="17.1442" y2="63.1319" gradientUnits="userSpaceOnUse">
<stop stop-color="#FFBF69"/>
<stop offset="1" stop-color="#FF9300"/>
</linearGradient>
<linearGradient id="paint14_linear_2312_6904" x1="74.9528" y1="52.1047" x2="74.9528" y2="77.2843" gradientUnits="userSpaceOnUse">
<stop stop-color="#FFBF69"/>
<stop offset="1" stop-color="#FF9300"/>
</linearGradient>
<linearGradient id="paint15_linear_2312_6904" x1="75.2253" y1="52.1638" x2="75.2253" y2="54.4263" gradientUnits="userSpaceOnUse">
<stop stop-color="#FFBF69"/>
<stop offset="1" stop-color="#FF9300"/>
</linearGradient>
<linearGradient id="paint16_linear_2312_6904" x1="35.3671" y1="20.1501" x2="24.524" y2="32.3581" gradientUnits="userSpaceOnUse">
<stop stop-color="#EEE5FF"/>
<stop offset="1" stop-color="#DECBFF"/>
</linearGradient>
<clipPath id="clip0_2312_6904">
<rect width="120" height="78" fill="white" transform="translate(0 0.5)"/>
</clipPath>
</defs>
</svg>
