<svg width="17" height="19" viewBox="0 0 17 19" fill="none" xmlns="http://www.w3.org/2000/svg">
<path fill-rule="evenodd" clip-rule="evenodd" d="M8.89794 17.6379C10.4203 16.851 15.7918 13.7029 15.7918 8.45841C15.7918 4.43134 12.5272 1.16675 8.50016 1.16675C4.47309 1.16675 1.2085 4.43134 1.2085 8.45841C1.2085 13.7029 6.58001 16.851 8.10239 17.6379C8.35543 17.7687 8.64489 17.7687 8.89794 17.6379ZM8.50016 11.5834C10.2261 11.5834 11.6252 10.1843 11.6252 8.45842C11.6252 6.73253 10.2261 5.33342 8.50016 5.33342C6.77427 5.33342 5.37516 6.73253 5.37516 8.45842C5.37516 10.1843 6.77427 11.5834 8.50016 11.5834Z" fill="#792AFF" fill-opacity="0.75"/>
<path d="M8.89794 17.6379L9.17345 18.1709H9.17345L8.89794 17.6379ZM8.10239 17.6379L7.82688 18.1709H7.82688L8.10239 17.6379ZM15.1918 8.45841C15.1918 10.8624 13.9623 12.8172 12.4904 14.2966C11.0192 15.7753 9.35677 16.7254 8.62243 17.1049L9.17345 18.1709C9.96148 17.7636 11.746 16.7462 13.3411 15.143C14.9356 13.5404 16.3918 11.2989 16.3918 8.45841H15.1918ZM8.50016 1.76675C12.1959 1.76675 15.1918 4.76271 15.1918 8.45841H16.3918C16.3918 4.09997 12.8586 0.566748 8.50016 0.566748V1.76675ZM1.8085 8.45841C1.8085 4.76271 4.80446 1.76675 8.50016 1.76675V0.566748C4.14172 0.566748 0.608496 4.09997 0.608496 8.45841H1.8085ZM8.37789 17.1049C7.64355 16.7254 5.98111 15.7753 4.50989 14.2966C3.03799 12.8172 1.8085 10.8624 1.8085 8.45841H0.608496C0.608496 11.2989 2.06476 13.5404 3.65921 15.143C5.25434 16.7462 7.03885 17.7636 7.82688 18.1709L8.37789 17.1049ZM8.62243 17.1049C8.5422 17.1464 8.45813 17.1464 8.37789 17.1049L7.82688 18.1709C8.25274 18.3911 8.74759 18.3911 9.17345 18.1709L8.62243 17.1049ZM11.0252 8.45842C11.0252 9.85293 9.89468 10.9834 8.50016 10.9834V12.1834C10.5574 12.1834 12.2252 10.5157 12.2252 8.45842H11.0252ZM8.50016 5.93341C9.89468 5.93341 11.0252 7.0639 11.0252 8.45842H12.2252C12.2252 6.40115 10.5574 4.73342 8.50016 4.73342V5.93341ZM5.97516 8.45842C5.97516 7.0639 7.10564 5.93341 8.50016 5.93341V4.73342C6.4429 4.73342 4.77516 6.40115 4.77516 8.45842H5.97516ZM8.50016 10.9834C7.10564 10.9834 5.97516 9.85293 5.97516 8.45842H4.77516C4.77516 10.5157 6.4429 12.1834 8.50016 12.1834V10.9834Z" fill="#1A1818"/>
</svg>
