<svg width="30" height="30" viewBox="0 0 30 30" fill="none" xmlns="http://www.w3.org/2000/svg">
<g clip-path="url(#clip0_2312_4931)">
<path d="M14.9343 19.4079C13.4869 19.4079 12.3027 20.5921 12.3027 22.0395V27.3684C12.3027 28.8158 13.4869 30 14.9343 30C16.3817 30 17.5659 28.8158 17.5659 27.3684V22.0395C17.5659 20.5921 16.3817 19.4079 14.9343 19.4079Z" fill="#995DFE"/>
<path d="M24.4737 3.28947H19.4079C18.8158 1.38158 17.0396 0 14.9342 0C12.8289 0 11.0527 1.38158 10.4606 3.28947H5.46056C4.73688 3.28947 4.14478 3.88158 4.14478 4.60526C4.14478 5.32895 4.73688 5.92105 5.46056 5.92105H10.5264C10.8553 7.03947 11.579 7.96053 12.5658 8.55263C9.0132 9.60526 6.38162 12.8947 6.38162 16.7763V23.6842C6.38162 24.8684 7.36846 25.8553 8.55267 25.8553H10.329V22.1053C10.329 19.5394 12.4342 17.4342 15 17.4342C17.5658 17.4342 19.6711 19.5395 19.6711 22.1053V25.8553H21.4474C22.6316 25.8553 23.6185 24.8684 23.6185 23.6842V16.8421C23.6185 12.9605 20.9869 9.60526 17.4342 8.61842C18.421 8.02631 19.1447 7.10526 19.4737 5.98684H24.5395C25.2631 5.98684 25.8553 5.39474 25.8553 4.67105C25.7895 3.88158 25.1974 3.28947 24.4737 3.28947ZM14.9342 7.30263C13.4869 7.30263 12.3027 6.11842 12.3027 4.67105C12.3027 3.22368 13.4869 2.03947 14.9342 2.03947C16.3816 2.03947 17.5658 3.22368 17.5658 4.67105C17.6316 6.11842 16.4474 7.30263 14.9342 7.30263Z" fill="#995DFE"/>
</g>
<defs>
<clipPath id="clip0_2312_4931">
<rect width="30" height="30" fill="white"/>
</clipPath>
</defs>
</svg>
