<svg width="120" height="78" viewBox="0 0 120 78" fill="none" xmlns="http://www.w3.org/2000/svg">
<g clip-path="url(#clip0_2312_8935)">
<path d="M34.9257 33.2832C33.7751 32.0436 33.1434 30.3941 33.1639 28.7143C33.169 27.9807 32.0134 27.9807 32.0082 28.7143C31.9877 30.6977 32.753 32.6305 34.109 34.0877C34.6124 34.629 35.429 33.8245 34.9257 33.2832Z" fill="#D77650"/>
<path d="M11.2938 19.0201C11.0678 18.8177 10.698 18.7873 10.4772 19.0201C9.8762 19.6424 9.28039 20.2647 8.67943 20.8871C8.46884 21.1046 8.44316 21.4791 8.67943 21.6916C8.90543 21.8939 9.27525 21.9243 9.49611 21.6916C10.0971 21.0692 10.6929 20.4469 11.2938 19.8245C11.5044 19.607 11.5301 19.2326 11.2938 19.0201Z" fill="#D77650"/>
<path d="M85.0887 40.382C84.8216 40.2504 84.5648 40.129 84.3183 40.0076C82.6335 44.0755 81.0926 48.2194 78.9148 52.0597C77.9594 53.7445 76.8859 55.3687 75.6275 56.8512C74.3178 58.3893 72.7152 59.8111 70.6453 60.1905C69.6488 60.3727 68.5907 60.2715 67.6867 59.7959C66.8598 59.3607 66.192 58.6878 65.5859 57.9946C64.1888 56.3907 62.9048 54.6755 61.672 52.9451C59.3093 49.6361 57.1931 46.1601 55.3286 42.5576C55.0769 42.6588 54.8098 42.7701 54.5273 42.8916C56.2172 46.1702 58.1125 49.3376 60.2133 52.3734C61.4717 54.1898 62.802 55.9607 64.1991 57.6759C65.4678 59.2343 66.8649 60.8129 68.9965 61.081C73.3316 61.6325 76.4648 57.5342 78.5193 54.3669C80.6868 51.0326 82.2329 47.3542 83.7276 43.691C84.1796 42.588 84.6264 41.4799 85.0836 40.3769L85.0887 40.382Z" fill="white"/>
<path d="M81.8002 15.3822C81.528 14.5676 80.9784 13.8896 80.208 13.4797C80.1771 13.4646 80.1412 13.4494 80.1104 13.4342C80.5624 13.5607 80.9887 13.7732 81.3482 14.0768C81.528 14.2286 81.7848 14.2488 81.9595 14.0768C82.1136 13.925 82.1392 13.6265 81.9595 13.4747C80.9373 12.6095 79.5556 12.2857 78.2664 12.5639C78.7081 10.621 78.6362 8.36443 77.0286 6.97303C76.2684 6.31527 75.3027 5.94592 74.3011 5.87508C73.8081 5.83967 73.2996 5.89026 72.8219 6.02181C72.5907 6.08759 72.3596 6.1736 72.1439 6.2748C72.0309 6.33045 71.8922 6.43165 71.7586 6.50754C71.7997 6.40129 71.8408 6.31527 71.9127 6.1989C72.2261 5.70812 72.7448 5.34888 73.2225 5.01494C73.4126 4.88339 73.505 4.64053 73.3766 4.43308C73.2636 4.24588 72.976 4.14468 72.7859 4.28129C72.1593 4.71642 71.4967 5.18191 71.1115 5.85485C71.0344 5.9864 70.9779 6.12807 70.9266 6.26974C70.8084 6.19384 70.6903 6.11289 70.567 6.04205C70.2896 5.88014 69.9866 5.72835 69.6681 5.6474C69.1802 5.52091 68.6871 5.55633 68.2505 5.77389C66.2473 3.91194 63.4223 3.13781 60.7052 3.49199C59.2413 3.68425 57.798 4.16492 56.5242 4.90363C55.3634 5.57656 54.4131 6.55308 54.1358 7.88883C53.9098 8.95641 54.0793 10.0797 54.5416 11.0663C54.1615 11.1169 53.7916 11.2586 53.4681 11.466C52.5435 12.063 51.7936 13.0547 51.6601 14.1476C51.6344 14.3753 51.8809 14.5726 52.0915 14.5726C52.3483 14.5726 52.4973 14.3753 52.523 14.1476C52.6154 13.3786 53.2626 12.6145 53.8995 12.2047C54.0896 12.0782 54.3104 11.977 54.5364 11.9264C53.8276 12.5285 53.201 13.2419 52.9801 14.1527C52.7541 15.0685 52.9493 16.0399 53.6067 16.7027C52.6822 18.6305 54.8549 21.2109 57.2587 20.2192C58.3681 19.7638 60.1453 28.426 61.3421 28.8206C61.8763 28.9977 62.3026 29.3063 62.7238 29.6656C63.1193 30.0046 63.5302 30.3233 64.0438 30.465C64.9941 30.723 65.9648 30.379 66.8842 30.1715C67.4184 30.0501 67.9731 29.9692 68.5022 30.1311C69.0415 30.298 69.4935 30.6623 69.9917 30.9103C71.0755 31.4567 72.3031 31.2796 73.4845 31.1683C73.4845 31.3403 73.5718 31.5073 73.7875 31.568C75.3849 32.0133 77.2135 31.5478 78.3383 30.3233C79.3964 29.1799 79.756 27.4899 79.2886 26.0226C80.9322 24.778 81.5331 22.4657 80.6908 20.5936C81.5537 18.9998 82.4063 17.1986 81.7951 15.3771L81.8002 15.3822Z" fill="#792AFF" fill-opacity="0.75"/>
<path d="M57.4915 41.6823C57.4915 48.4775 61.9447 62.437 64.9135 63.9701C70.1731 66.6821 76.4036 51.3766 77.3795 50.8858C78.5043 50.3192 81.3447 46.4131 81.7659 41.7684C81.8481 40.8677 81.4783 39.4864 81.4475 38.6314C79.2029 37.5486 77.2048 36.4709 76.871 36.1825C75.4585 34.9429 75.3095 33.6527 75.1041 32.1449C74.914 30.7687 74.4928 26.7361 74.4928 26.7361L64.0403 23.8015C64.0403 23.8015 64.6721 32.4889 64.1174 34.7456C63.3264 37.9787 57.4812 41.6621 57.4863 41.6925L57.4915 41.6823Z" fill="#FFB895"/>
<path d="M64.1155 34.7354C63.91 35.5803 63.3502 36.4556 62.6465 37.2905C64.7113 38.2468 68.5893 38.0646 69.9761 37.5384C71.0753 37.1185 72.1744 36.5417 72.9552 35.6663C73.5664 34.6139 73.9362 33.43 74.1468 32.2409C74.4755 30.4043 74.4139 28.5525 74.3677 26.7006L64.0333 23.7964C64.0333 23.7964 64.6651 32.4838 64.1104 34.7404L64.1155 34.7354Z" fill="#1A1A1A"/>
<path d="M69.967 43.4482C65.8938 43.9997 61.7282 44.2273 57.6191 43.8883C58.3588 51.1135 62.2419 62.5888 64.9179 63.9701C70.1775 66.6821 76.408 51.3766 77.3839 50.8858C78.5087 50.3192 81.3491 46.4131 81.7703 41.7684C81.796 41.4901 81.7703 41.1612 81.7344 40.8171C77.9026 42.0365 73.9528 42.9118 69.967 43.4532V43.4482Z" fill="white"/>
<path d="M119.943 67.8358C119.342 60.6511 107.893 55.2828 104.123 52.7328C100.353 50.1827 99.1203 47.4353 96.2953 45.9933C96.2131 45.9528 96.131 45.9275 96.0488 45.9174C93.6552 44.4805 81.4461 38.6265 81.4461 38.6265C81.4461 38.6265 75.9194 57.2005 70.557 57.3421C65.1946 57.4838 57.4901 41.6876 57.4901 41.6876C57.4901 41.6876 43.2521 47.3392 40.237 50.0512C40.237 50.0512 40.237 50.0512 40.2268 50.0663C39.9751 50.294 39.8056 50.5015 39.7285 50.6836C38.8554 51.8018 38.5472 53.1477 38.3109 55.0805C37.9925 57.6963 37.0217 61.2836 36.4926 62.1033C35.9636 62.9229 35.0955 55.9153 33.1951 55.2879C31.2895 54.6605 17.0566 64.6989 17.0566 64.6989C17.0566 64.6989 19.5118 73.0625 20.4672 77.348C21.4225 81.6335 24.3811 94.6014 32.1884 93.6603C39.0711 92.8305 42.0296 85.9949 43.9455 81.8056C44.7673 87.3864 45.2964 91.6921 44.9933 92.4663C44.0534 94.8797 42.6409 98.3 42.7128 100.8C42.7795 103.299 46.1182 105.004 46.1182 105.004C46.1182 105.004 67.5625 105.338 79.4121 104.043C91.2617 102.742 97.261 99.7471 97.261 99.7471C97.261 99.7471 102.341 95.9878 98.504 88.4843C96.583 84.725 96.2234 76.6498 96.3005 68.5341C100.975 73.4774 106.943 79.2353 109.116 78.8912C112.881 78.2992 120.565 75.0307 119.964 67.846L119.943 67.8358Z" fill="url(#paint0_linear_2312_8935)"/>
<path d="M98.8272 71.0384C96.1563 68.8223 94.4664 65.6549 91.6209 63.621C91.1689 63.2971 90.7374 64.0409 91.1843 64.3597C93.9631 66.343 95.6016 69.475 98.216 71.6456C98.6423 71.9997 99.2587 71.3976 98.8272 71.0435V71.0384Z" fill="white"/>
<path d="M41.0956 78.7847C40.2738 72.3387 38.5171 66.0698 36.5499 59.8819C35.99 58.1211 35.4096 56.3604 34.8344 54.6047C34.6649 54.0835 33.8276 54.3061 33.9971 54.8323C36.0055 60.9444 38.0189 67.0716 39.3184 73.376C39.6882 75.1671 39.9964 76.9683 40.2275 78.7847C40.2943 79.3211 41.1624 79.3312 41.0956 78.7847Z" fill="white"/>
<path d="M113.653 59.6544C109.004 56.735 104.269 53.9471 99.461 51.2958C98.0998 50.547 96.7335 49.8083 95.3621 49.0797C94.869 48.8166 94.4325 49.5553 94.9255 49.8184C99.7794 52.3988 104.556 55.1108 109.251 57.9543C110.576 58.7588 111.901 59.5734 113.216 60.3982C113.689 60.6967 114.125 59.958 113.653 59.6594V59.6544Z" fill="#792AFF"/>
<path d="M47.3456 73.5684C45.702 76.7357 44.2946 80.0144 43.1287 83.3791C42.9489 83.9002 43.7861 84.1228 43.9659 83.6067C45.1062 80.3129 46.4878 77.1 48.0955 73.9985C48.3472 73.5077 47.6024 73.0776 47.3456 73.5684Z" fill="#792AFF"/>
<path d="M40.2323 50.0408C40.2323 50.0408 40.2323 50.0408 40.222 50.056C40.2066 50.0712 40.1912 50.0864 40.1758 50.1015C42.8107 53.2082 45.2916 56.4413 47.5978 59.7908C48.3991 60.9545 49.1798 62.1334 49.9451 63.3224C50.1455 63.631 50.6437 63.3477 50.4434 63.034C47.7519 58.8294 44.8036 54.7817 41.6191 50.9263C41.2904 50.5265 40.9514 50.1319 40.6175 49.7322C40.4788 49.8384 40.3453 49.9447 40.2374 50.0459L40.2323 50.0408Z" fill="#792AFF"/>
<path d="M89.6906 55.1866C91.2983 51.8067 93.2707 48.6039 95.5563 45.6289C95.4022 45.5429 95.2327 45.4518 95.0478 45.3506C93.6713 47.1366 92.4026 49.0087 91.2675 50.9516C90.5176 52.2368 89.8242 53.5523 89.1872 54.8931C89.028 55.222 89.5262 55.5104 89.6855 55.1815L89.6906 55.1866Z" fill="#792AFF"/>
<path d="M85.0887 40.382C84.8216 40.2504 84.5648 40.129 84.3183 40.0076C82.6335 44.0755 81.0926 48.2194 78.9148 52.0597C77.9594 53.7445 76.8859 55.3687 75.6275 56.8512C74.3178 58.3893 72.7152 59.8111 70.6453 60.1905C69.6488 60.3727 68.5907 60.2715 67.6867 59.7959C66.8598 59.3607 66.192 58.6878 65.5859 57.9946C64.1888 56.3907 62.9048 54.6755 61.672 52.9451C59.3093 49.6361 57.1931 46.1601 55.3286 42.5576C55.0769 42.6588 54.8098 42.7701 54.5273 42.8916C56.2172 46.1702 58.1125 49.3376 60.2133 52.3734C61.4717 54.1898 62.802 55.9607 64.1991 57.6759C65.4678 59.2343 66.8649 60.8129 68.9965 61.081C73.3316 61.6325 76.4648 57.5342 78.5193 54.3669C80.6868 51.0326 82.2329 47.3542 83.7276 43.691C84.1796 42.588 84.6264 41.4799 85.0836 40.3769L85.0887 40.382Z" fill="#792AFF"/>
<path d="M92.9616 60.7724C92.9616 60.7724 91.9189 63.0493 90.0493 61.7186C88.1796 60.3879 86.9315 54.8577 88.3851 53.0109C89.8387 51.1692 92.9616 60.7674 92.9616 60.7674V60.7724Z" fill="#1A1A1A"/>
<path d="M92.9632 48.5433C92.9632 48.5433 94.7249 48.8924 94.6376 52.7934C94.5503 56.6944 93.523 59.9022 92.9632 60.7725C92.9632 60.7725 82.3514 53.9875 81.4731 54.0735C80.5948 54.1595 75.1811 54.0937 73.5066 53.3146C73.5066 53.3146 69.9985 53.7497 69.4643 53.1425C68.9301 52.5354 69.1047 51.3211 69.1047 51.3211C69.1047 51.3211 67.2556 50.9719 67.2556 49.8487V48.7204C67.2556 48.7204 66.3773 48.4623 66.0229 47.4201C65.6685 46.3778 68.4576 43.5848 70.0139 42.1226C70.0139 42.1226 63.9016 41.7279 61.6981 40.6148C60.2599 39.8913 61.0047 38.7832 62.5045 38.6972C63.9992 38.6112 65.8637 38.763 68.3292 38.8945C70.1731 38.9957 72.0119 39.0666 72.0119 39.0666C72.0119 39.0666 69.8238 38.4898 70.2553 37.0984C70.6919 35.712 71.7448 36.9213 73.7737 36.3141C75.8026 35.707 77.0301 37.3058 77.9136 38.2014C78.7919 39.0919 82.336 43.0839 82.9524 43.7063C83.5687 44.3286 92.9683 48.5484 92.9683 48.5484L92.9632 48.5433Z" fill="#FFB895"/>
<path d="M73.6752 49.1707C73.5108 49.0493 73.4697 48.9683 73.4903 48.7659C73.5159 48.518 73.6135 48.2751 73.6598 48.0323C73.7625 47.5415 73.8498 46.9698 73.7214 46.4739C73.5981 46.0034 73.1769 45.6795 73.1102 45.1938C73.0434 44.6929 73.2078 44.1869 73.2386 43.6911C73.2899 42.8816 72.9766 41.9708 72.124 41.7077C71.5898 41.5458 71.3638 42.3705 71.8928 42.5324C72.6119 42.75 72.3397 43.9238 72.2781 44.4298C72.2216 44.87 72.201 45.3254 72.3603 45.7504C72.5143 46.1653 72.8842 46.4587 72.9047 46.9141C72.9253 47.3897 72.8071 47.84 72.6993 48.2954C72.6119 48.6647 72.5503 49.0898 72.7455 49.4389C72.8431 49.621 72.992 49.7374 73.1564 49.8538C73.254 49.9246 73.2591 49.9044 73.2848 50.0106C73.3105 50.1067 73.2745 50.2788 73.2694 50.3749C73.2283 50.9011 73.105 51.4071 72.9355 51.9029C72.7558 52.4241 73.593 52.6467 73.7728 52.1306C73.9628 51.5791 74.0861 51.0175 74.1323 50.4407C74.1785 49.9044 74.1323 49.5046 73.67 49.1707H73.6752Z" fill="#D77650"/>
<path d="M81.3343 41.6216C80.0707 39.79 78.4733 38.0242 76.5934 36.7896C75.6226 36.1521 74.5389 36.1622 73.4191 36.228C72.8387 36.2634 72.2789 36.2482 71.6984 36.1976C71.2567 36.1572 70.7893 36.2128 70.4811 36.5619C70.1832 36.9009 70.1421 37.412 70.2962 37.8218C70.4092 38.1304 70.6249 38.3834 70.8715 38.5959C69.6028 38.6162 68.3393 38.5706 67.0757 38.4441C65.6735 38.3075 64.2404 38.0798 62.8434 38.3733C62.2938 38.4897 61.6106 38.6819 61.2254 39.1171C60.8967 39.4915 60.9069 40.0126 61.2562 40.3719C61.6569 40.7868 62.304 40.9335 62.8382 41.1106C63.547 41.3433 64.261 41.5508 64.9852 41.738C66.6289 42.163 68.3033 42.4615 69.988 42.6538C70.3579 42.6942 70.3527 42.1276 69.988 42.082C67.4096 41.7886 64.8619 41.2168 62.417 40.3719C62.0061 40.2302 61.1689 39.8507 61.7955 39.3852C62.2681 39.0311 62.9718 38.9046 63.547 38.8438C64.7746 38.7174 66.0022 38.9197 67.2195 39.0361C68.5447 39.1626 69.875 39.198 71.2054 39.1626C71.2464 39.1778 71.2927 39.1879 71.3389 39.193C72.7103 39.2942 74.056 39.6028 75.3401 40.0885C75.561 40.1695 75.8178 39.9974 75.8743 39.79C75.9411 39.5471 75.7921 39.3498 75.5713 39.2638C74.2564 38.7679 72.8798 38.4644 71.4776 38.348C71.1026 38.0849 70.7379 37.7307 70.7944 37.2501C70.8818 36.567 71.683 36.7795 72.1607 36.8149C73.3164 36.9009 74.5594 36.5366 75.6791 36.9515C76.2441 37.159 76.7218 37.5688 77.1789 37.9432C77.6309 38.3126 78.0675 38.7022 78.4836 39.1069C79.3568 39.962 80.1478 40.9031 80.8412 41.91C81.0466 42.2136 81.55 41.9252 81.3394 41.6216H81.3343Z" fill="#D77650"/>
<path d="M57.172 18.4384C57.1925 19.7691 56.0265 30.8042 58.5434 33.9462C59.8737 35.6058 65.3285 35.2719 67.1314 35.1757C72.6786 34.8722 74.2863 31.6542 74.7178 27.1865C74.7178 27.1865 80.4551 25.0767 77.5941 20.9024C75.6783 18.1095 73.1306 21.2364 73.1306 21.2364L72.2318 21.631C72.0828 21.1453 71.6154 18.4991 71.1891 18.1905C69.3811 16.88 69.0113 16.1919 68.5644 13.8392C65.349 14.0972 60.6544 15.9339 58.8105 13.146C58.8105 13.146 57.1411 16.2577 57.172 18.4435V18.4384Z" fill="#FFB895"/>
<path d="M58.4094 23.2399C58.3683 22.9667 58.1731 22.7238 57.8752 22.7188C57.7622 22.7188 57.644 22.7542 57.5464 22.8199C57.4437 22.8604 57.3513 22.9363 57.2896 23.0426C57.2383 23.1387 57.2126 23.25 57.2177 23.3613C57.1715 23.4726 57.1715 23.6244 57.2074 23.7408C57.2537 23.8825 57.3359 23.9938 57.4591 24.0798C57.6903 24.2468 58.0139 24.1911 58.2244 24.014C58.4556 23.8218 58.4504 23.503 58.4042 23.2348L58.4094 23.2399Z" fill="#1A1A1A"/>
<path d="M68.2978 23.0628C68.1899 22.8907 68.0101 22.7339 67.7996 22.6884C67.5736 22.6378 67.3373 22.7086 67.1781 22.8806C67.1421 22.9211 67.1061 22.9666 67.0805 23.0122C66.8339 23.2652 66.8031 23.6548 66.988 23.9482C66.9983 23.9836 67.0137 24.014 67.0342 24.0443C67.1421 24.2063 67.3167 24.2872 67.5068 24.2973C67.5325 24.2973 67.553 24.2973 67.5787 24.2973C67.5838 24.2973 67.5941 24.2973 67.5992 24.2973C67.7996 24.3125 67.9947 24.2265 68.1488 24.1C68.4519 23.847 68.5032 23.3917 68.2978 23.0628Z" fill="#1A1A1A"/>
<path d="M70.3871 20.4217C69.2879 19.9511 68.1579 19.5565 66.9971 19.2478C66.4578 19.1062 66.2266 19.9258 66.7659 20.0726C67.8497 20.361 68.9181 20.7202 69.9505 21.1604C70.1662 21.2515 70.4179 21.2211 70.5412 21.0086C70.649 20.8264 70.6028 20.5178 70.3871 20.4267V20.4217Z" fill="#3A1B23"/>
<path d="M58.8625 20.1787C58.7906 19.9561 58.5646 19.8195 58.3283 19.8802C57.6503 20.0573 56.9928 20.3052 56.3611 20.6088C56.1556 20.7049 56.0837 21.0085 56.207 21.1906C56.3405 21.3981 56.5819 21.4487 56.7977 21.3424C56.9466 21.2716 57.0904 21.2058 57.2394 21.14C57.2497 21.14 57.2548 21.135 57.2651 21.1299C57.2753 21.1299 57.2856 21.1198 57.301 21.1147C57.3318 21.0995 57.3678 21.0894 57.3986 21.0742C57.4757 21.0439 57.5527 21.0135 57.6246 20.9882C57.9328 20.8769 58.241 20.7808 58.5543 20.6998C58.7752 20.6442 58.9293 20.3912 58.8573 20.1736L58.8625 20.1787Z" fill="#3A1B23"/>
<path d="M64.1219 27.7582C64.0602 27.6621 63.9729 27.6013 63.8651 27.5609C63.5672 27.4546 63.2744 27.3433 62.9765 27.237C62.8737 27.2016 62.7299 27.2269 62.6426 27.2826C62.5553 27.3332 62.468 27.4344 62.4423 27.5356C62.4166 27.6469 62.4217 27.7683 62.4834 27.8644C62.545 27.9606 62.6323 28.0213 62.7402 28.0618C63.0381 28.168 63.3309 28.2793 63.6288 28.3856C63.7315 28.421 63.8753 28.3957 63.9627 28.3401C64.0551 28.2895 64.1373 28.1883 64.163 28.0871C64.1887 27.9758 64.1835 27.8543 64.1219 27.7582Z" fill="#D45C48"/>
<path d="M20.1963 67.5473C20.1963 67.5473 17.5305 67.2488 17.0015 64.7392C16.4725 62.2296 18.1829 60.7725 20.1963 60.4638C23.612 59.9376 20.1963 67.5473 20.1963 67.5473Z" fill="black"/>
<path d="M34.2071 58.0403C34.2071 58.0403 33.1131 49.8133 34.3356 44.9813C35.5631 40.1494 36.9397 35.6159 37.402 33.2025C37.8642 30.789 8.42773 36.2231 8.42773 36.2231C8.42773 36.2231 9.03896 44.6778 9.50123 48.7558C9.96351 52.8339 11.186 53.2842 13.1789 55.2474C15.1718 57.2105 20.0411 66.6316 20.19 67.5373C21.7823 67.6385 25.4959 67.6385 28.8396 66.6114C34.6797 64.8152 35.0803 62.1285 34.2071 58.0353V58.0403Z" fill="#FFB895"/>
<path d="M8.47494 22.3899C8.47494 22.3899 6.68749 20.4521 7.30899 17.8363C7.93562 15.2204 8.19244 11.0007 8.87558 10.1608C9.55871 9.3158 12.1526 8.80477 12.2296 13.2826C12.3015 17.7553 12.0704 20.2851 11.5414 21.1301C11.0174 21.9751 8.46981 22.395 8.46981 22.395L8.47494 22.3899Z" fill="#FFB895"/>
<path d="M13.2199 39.7242C12.9374 39.5775 12.5984 39.6584 12.4289 39.9266C12.1156 40.4275 11.8023 40.9284 11.489 41.4242C11.3298 41.6772 11.4273 42.0618 11.6944 42.2034C11.9769 42.3502 12.3159 42.2692 12.4854 42.001C12.7988 41.5001 13.1121 40.9992 13.4254 40.5034C13.5846 40.2504 13.487 39.8659 13.2199 39.7242Z" fill="#D77650"/>
<path d="M11.418 0.254012C11.418 0.254012 11.7621 38.6568 12.625 40.3568C13.4879 42.0569 31.9429 42.0569 32.8058 41.2069C33.6687 40.3568 32.6312 1.52905 32.287 0.851052C31.9429 0.173058 11.3974 -1.44603 11.418 0.254012Z" fill="#792AFF" fill-opacity="0.75"/>
<path d="M30.4373 2.32826C30.4373 2.32826 32.0296 31.0873 31.3773 39.0614C31.3773 39.0614 19.7434 39.1322 14.5403 38.5655C14.5403 38.5655 13.6722 5.60692 13.888 1.40234C13.888 1.40234 21.9829 1.40234 30.4373 2.32826Z" fill="white"/>
<path d="M30.4634 2.81413L13.8627 2.25757C13.8422 3.60344 13.8576 5.90558 13.8935 8.72381L30.787 9.28543C30.6381 6.16868 30.5148 3.79064 30.4634 2.80907V2.81413Z" fill="#792AFF" fill-opacity="0.5"/>
<path d="M19.0042 21.4973C19.0401 21.5631 20.6581 25.1048 21.0331 25.1909C21.408 25.2718 22.99 25.459 23.2211 25.3123C23.4523 25.1706 27.3251 17.6672 26.9553 17.3585C26.5855 17.0549 24.7826 16.64 24.6285 16.7109C24.4744 16.7817 22.0757 22.4586 21.9987 22.5295C21.9216 22.6003 20.9098 20.0047 20.617 20.116C19.7027 20.4651 18.6344 20.8902 18.9991 21.4923L19.0042 21.4973Z" fill="#792AFF" fill-opacity="0.5"/>
<path d="M27.3253 18.7144C27.2123 21.4213 27.1456 23.7589 26.9555 26.4658C24.0997 26.1825 21.1206 26.1471 18.2442 26.2887C18.2699 23.5869 18.2905 20.885 18.3162 18.1832C19.4256 18.1528 20.5351 18.1174 21.6445 18.087C21.9373 18.0769 21.9476 17.6317 21.6548 17.6418C20.4683 17.6772 19.2818 17.7126 18.0953 17.743C17.972 17.743 17.8642 17.834 17.8642 17.9605C17.8385 20.8142 17.8128 23.6628 17.7871 26.5164C17.7871 26.6277 17.8847 26.7542 18.008 26.7441C21.0282 26.567 24.1562 26.6429 27.1558 26.9313C27.2842 26.9414 27.3818 26.825 27.387 26.7137C27.5822 23.9309 27.6592 21.5124 27.7722 18.7245C27.7825 18.4361 27.3305 18.426 27.3202 18.7144H27.3253Z" fill="#7497C4"/>
<path d="M33.544 33.6931C33.544 33.6931 32.2599 30.6574 32.0904 27.2826C31.9209 23.9078 32.9481 22.4759 34.9154 22.3899C36.8877 22.3039 35.8553 25.0917 36.9699 27.7025C38.0845 30.3184 37.725 31.9223 37.3038 33.6931C36.8826 35.464 33.544 33.6931 33.544 33.6931Z" fill="#FFB895"/>
<path d="M9.12591 44.9307C9.12591 44.9307 7.246 38.8389 8.02159 36.1421C8.79205 33.4402 13.1631 31.0318 14.6013 33.086C15.5772 34.4825 15.4796 35.7019 14.4472 37.2198C13.4199 38.7377 9.12591 44.9307 9.12591 44.9307Z" fill="#FFB895"/>
<path d="M8.42729 36.228C8.42729 36.228 5.96183 32.5142 7.50274 29.9844C9.04365 27.4546 13.2401 24.3328 14.6988 25.0917C16.1524 25.8507 16.7122 28.3501 13.7999 31.8919C10.8876 35.4337 8.42729 36.228 8.42729 36.228Z" fill="#FFB895"/>
<path d="M8.79157 29.3065C8.79157 29.3065 7.07603 27.2219 7.33284 24.9754C7.58966 22.7289 10.4403 20.0271 11.4111 19.1012C12.3819 18.1753 13.8458 19.6071 13.8458 22.3899C13.8458 25.1728 12.9828 26.2707 12.9828 26.2707L8.78644 29.3065H8.79157Z" fill="#FFB895"/>
</g>
<defs>
<linearGradient id="paint0_linear_2312_8935" x1="68.5268" y1="38.6265" x2="68.5268" y2="105.043" gradientUnits="userSpaceOnUse">
<stop stop-color="#FFBF69"/>
<stop offset="1" stop-color="#FF9300"/>
</linearGradient>
<clipPath id="clip0_2312_8935">
<rect width="120" height="78" fill="white"/>
</clipPath>
</defs>
</svg>
