<svg width="26" height="26" viewBox="0 0 26 26" fill="none" xmlns="http://www.w3.org/2000/svg">
<rect width="26" height="26" rx="13" fill="#1A1818"/>
<mask id="mask0_2312_3171" style="mask-type:luminance" maskUnits="userSpaceOnUse" x="6" y="6" width="14" height="14">
<path d="M20 6H6V19.998H20V6Z" fill="white"/>
</mask>
<g mask="url(#mask0_2312_3171)">
<path d="M19.3515 15.5225C19.1793 15.5238 19.0146 15.593 18.8931 15.7152C18.7717 15.8373 18.7035 16.0025 18.7032 16.1747V17.9321C18.703 18.1339 18.6227 18.3274 18.4799 18.4701C18.3372 18.6128 18.1437 18.6931 17.9419 18.6934H16.1737C16.0008 18.6934 15.8348 18.7621 15.7125 18.8844C15.5902 19.0067 15.5215 19.1727 15.5215 19.3456C15.5215 19.5186 15.5902 19.6845 15.7125 19.8069C15.8348 19.9292 16.0008 19.9979 16.1737 19.9979H17.9419C18.489 19.9979 19.0137 19.7806 19.4006 19.3937C19.7874 19.0068 20.0048 18.4821 20.0048 17.935V16.1747C20.0045 16.0025 19.9363 15.8373 19.8148 15.7152C19.6934 15.593 19.5287 15.5238 19.3565 15.5225" fill="white"/>
<path d="M9.82613 18.6993H8.06778C7.86595 18.699 7.67246 18.6187 7.52975 18.476C7.38703 18.3333 7.30674 18.1398 7.30648 17.938V16.1757C7.30622 16.0028 7.23742 15.837 7.11515 15.7148C6.99289 15.5925 6.82713 15.5237 6.65422 15.5234C6.56849 15.5232 6.48354 15.5398 6.40424 15.5724C6.32494 15.605 6.25285 15.653 6.19208 15.7134C6.13132 15.7739 6.08308 15.8458 6.05012 15.925C6.01716 16.0041 6.00013 16.089 6 16.1747V17.937C6.00052 18.4838 6.21809 19.008 6.60489 19.3944C6.9917 19.7808 7.5161 19.9979 8.06287 19.9979H9.84185C10.0023 19.9795 10.1502 19.9023 10.257 19.7811C10.3637 19.6599 10.4217 19.5035 10.4198 19.342C10.4178 19.1805 10.356 19.0255 10.2464 18.9069C10.1367 18.7884 9.98697 18.7138 9.82613 18.6993Z" fill="white"/>
<path d="M8.82227 12.9992C8.82253 13.1721 8.89133 13.3378 9.0136 13.4601C9.13586 13.5824 9.30161 13.6512 9.47452 13.6514H16.5256C16.6986 13.6514 16.8645 13.5827 16.9868 13.4604C17.1091 13.3381 17.1779 13.1722 17.1779 12.9992C17.1779 12.8262 17.1091 12.6603 16.9868 12.538C16.8645 12.4156 16.6986 12.3469 16.5256 12.3469H9.47452C9.30161 12.3472 9.13586 12.416 9.0136 12.5383C8.89133 12.6605 8.82253 12.8263 8.82227 12.9992Z" fill="white"/>
<path d="M6.00026 9.92927C6.01427 10.0919 6.08872 10.2433 6.20893 10.3537C6.32914 10.4641 6.48637 10.5254 6.64957 10.5255H6.70556C6.79101 10.5187 6.87422 10.4949 6.95031 10.4554C7.02639 10.4159 7.09381 10.3616 7.14859 10.2957C7.20369 10.2322 7.24568 10.1585 7.27215 10.0788C7.29862 9.99903 7.30904 9.91483 7.30281 9.83104V8.06287C7.3041 7.86189 7.38472 7.66956 7.52711 7.52772C7.6695 7.38588 7.86214 7.30601 8.06312 7.3055H9.8313C10 7.29895 10.1597 7.22732 10.2768 7.10562C10.3938 6.98392 10.4592 6.82162 10.4592 6.65275C10.4592 6.48389 10.3938 6.32158 10.2768 6.19988C10.1597 6.07818 10 6.00655 9.8313 6H8.06312C7.51602 6 6.99132 6.21734 6.60446 6.6042C6.21759 6.99106 6.00026 7.51576 6.00026 8.06287V9.81631C5.99731 9.8539 5.99731 9.89168 6.00026 9.92927Z" fill="white"/>
<path d="M17.938 6H16.1698C15.9969 6.00026 15.8312 6.06906 15.7089 6.19133C15.5866 6.3136 15.5178 6.47935 15.5176 6.65226C15.5204 6.82364 15.5903 6.98709 15.7122 7.10756C15.8341 7.22803 15.9984 7.29591 16.1698 7.29666H17.9302C18.132 7.29692 18.3255 7.37721 18.4682 7.51993C18.6109 7.66264 18.6912 7.85613 18.6914 8.05796V9.83104C18.6914 9.9167 18.7083 10.0015 18.7411 10.0807C18.7739 10.1598 18.8219 10.2317 18.8825 10.2923C18.9431 10.3528 19.015 10.4009 19.0941 10.4337C19.1732 10.4664 19.2581 10.4833 19.3437 10.4833C19.4294 10.4833 19.5142 10.4664 19.5933 10.4337C19.6725 10.4009 19.7444 10.3528 19.8049 10.2923C19.8655 10.2317 19.9135 10.1598 19.9463 10.0807C19.9791 10.0015 19.996 9.9167 19.996 9.83104V8.06287C19.996 7.51576 19.7786 6.99106 19.3918 6.6042C19.0049 6.21734 18.4802 6 17.9331 6" fill="white"/>
</g>
</svg>
