<svg width="25" height="24" viewBox="0 0 25 24" fill="none" xmlns="http://www.w3.org/2000/svg">
<path d="M20.7402 10.1144L20.7402 9.12586C20.7402 8.20653 20.7402 7.74687 20.6421 7.36973C20.3758 6.3463 19.5995 5.54691 18.6056 5.27268C18.2394 5.17163 17.793 5.17163 16.9002 5.17163" stroke="white" stroke-opacity="0.9" stroke-width="1.5" stroke-linecap="round" stroke-linejoin="round"/>
<path d="M3.45996 10.1144L3.45996 9.12586C3.45996 8.20653 3.45996 7.74687 3.55809 7.36973C3.8244 6.3463 4.6007 5.54691 5.59456 5.27268C5.9608 5.17163 6.40719 5.17163 7.29996 5.17163" stroke="white" stroke-opacity="0.9" stroke-width="1.5" stroke-linecap="round" stroke-linejoin="round"/>
<path d="M20.7402 14.0686L20.7402 15.0572C20.7402 15.9765 20.7402 16.4362 20.6421 16.8133C20.3758 17.8367 19.5995 18.6361 18.6056 18.9103C18.2394 19.0114 17.793 19.0114 16.9002 19.0114" stroke="white" stroke-opacity="0.9" stroke-width="1.5" stroke-linecap="round" stroke-linejoin="round"/>
<path d="M3.45996 14.0686L3.45996 15.0572C3.45996 15.9765 3.45996 16.4362 3.55809 16.8133C3.8244 17.8367 4.6007 18.6361 5.59456 18.9103C5.9608 19.0114 6.40719 19.0114 7.29996 19.0114" stroke="white" stroke-opacity="0.9" stroke-width="1.5" stroke-linecap="round" stroke-linejoin="round"/>
<path d="M12.1001 15.0573L12.1001 9.12598" stroke="white" stroke-opacity="0.9" stroke-width="1.5" stroke-linecap="round" stroke-linejoin="round"/>
<path d="M8.25977 14.0687L8.25977 10.1145" stroke="white" stroke-opacity="0.9" stroke-width="1.5" stroke-linecap="round" stroke-linejoin="round"/>
<path d="M15.9399 14.0687L15.9399 10.1145" stroke="white" stroke-opacity="0.9" stroke-width="1.5" stroke-linecap="round" stroke-linejoin="round"/>
</svg>
