<svg width="36" height="36" viewBox="0 0 36 36" fill="none" xmlns="http://www.w3.org/2000/svg">
<path fill-rule="evenodd" clip-rule="evenodd" d="M8 0.5C8.69 0.5 9.25 1.06 9.25 1.75C9.25 2.44 8.69 3 8 3H4.25C3.91875 3 3.6 3.13125 3.36625 3.36625C3.13125 3.6 3 3.91875 3 4.25V7.375C3 8.065 2.44 8.625 1.75 8.625C1.06 8.625 0.5 8.065 0.5 7.375V4.25C0.5 3.255 0.894997 2.30125 1.59875 1.59875C2.30125 0.894997 3.255 0.5 4.25 0.5H8Z" fill="#1A1818"/>
<path fill-rule="evenodd" clip-rule="evenodd" d="M28 3C27.31 3 26.75 2.44 26.75 1.75C26.75 1.06 27.31 0.5 28 0.5H31.75C32.745 0.5 33.6988 0.894997 34.4013 1.59875C35.105 2.30125 35.5 3.255 35.5 4.25V7.375C35.5 8.065 34.94 8.625 34.25 8.625C33.56 8.625 33 8.065 33 7.375V4.25C33 3.91875 32.8688 3.6 32.6338 3.36625C32.4 3.13125 32.0812 3 31.75 3H28Z" fill="#1A1818"/>
<path fill-rule="evenodd" clip-rule="evenodd" d="M24.25 6.75C23.56 6.75 23 6.19 23 5.5C23 4.81 23.56 4.25 24.25 4.25H28C28.995 4.25 29.9488 4.645 30.6513 5.34875C31.355 6.05125 31.75 7.005 31.75 8V15.5C31.75 16.19 31.19 16.75 30.5 16.75C29.81 16.75 29.25 16.19 29.25 15.5V8C29.25 7.66875 29.1188 7.35 28.8838 7.11625C28.65 6.88125 28.3312 6.75 28 6.75H24.25Z" fill="#792AFF"/>
<path fill-rule="evenodd" clip-rule="evenodd" d="M15.5 19.25C16.19 19.25 16.75 19.81 16.75 20.5C16.75 21.19 16.19 21.75 15.5 21.75H8C7.31 21.75 6.75 22.31 6.75 23V30.5C6.75 31.19 6.19 31.75 5.5 31.75C4.81 31.75 4.25 31.19 4.25 30.5V23C4.25 20.9288 5.92875 19.25 8 19.25H15.5Z" fill="#792AFF"/>
<path fill-rule="evenodd" clip-rule="evenodd" d="M26.75 9.25C27.44 9.25 28 9.81 28 10.5C28 11.19 27.44 11.75 26.75 11.75H23C22.6688 11.75 22.35 11.8812 22.1162 12.1162C21.8812 12.35 21.75 12.6688 21.75 13V15.5C21.75 16.19 21.19 16.75 20.5 16.75C19.81 16.75 19.25 16.19 19.25 15.5V13C19.25 12.005 19.645 11.0512 20.3487 10.3487C21.0512 9.645 22.005 9.25 23 9.25H26.75Z" fill="#792AFF"/>
<path fill-rule="evenodd" clip-rule="evenodd" d="M9.25 31.75C8.56 31.75 8 31.19 8 30.5C8 29.81 8.56 29.25 9.25 29.25H15.5C16.19 29.25 16.75 29.81 16.75 30.5C16.75 31.19 16.19 31.75 15.5 31.75H9.25Z" fill="#792AFF"/>
<path fill-rule="evenodd" clip-rule="evenodd" d="M8 33C8.69 33 9.25 33.56 9.25 34.25C9.25 34.94 8.69 35.5 8 35.5H4.25C3.255 35.5 2.30125 35.105 1.59875 34.4013C0.894997 33.6988 0.5 32.745 0.5 31.75V28.625C0.5 27.935 1.06 27.375 1.75 27.375C2.44 27.375 3 27.935 3 28.625V31.75C3 32.0812 3.13125 32.4 3.36625 32.6338C3.6 32.8688 3.91875 33 4.25 33H8Z" fill="#1A1818"/>
<path fill-rule="evenodd" clip-rule="evenodd" d="M28 35.5C27.31 35.5 26.75 34.94 26.75 34.25C26.75 33.56 27.31 33 28 33H31.75C32.0812 33 32.4 32.8688 32.6338 32.6338C32.8688 32.4 33 32.0812 33 31.75V28.625C33 27.935 33.56 27.375 34.25 27.375C34.94 27.375 35.5 27.935 35.5 28.625V31.75C35.5 32.745 35.105 33.6988 34.4013 34.4013C33.6988 35.105 32.745 35.5 31.75 35.5H28Z" fill="#1A1818"/>
<path fill-rule="evenodd" clip-rule="evenodd" d="M16.6985 7.96684V12.9656C16.6985 15.0367 15.0206 16.7147 12.9495 16.7147H7.95072C5.87957 16.7147 4.20166 15.0367 4.20166 12.9656V7.96684C4.20166 5.89569 5.87957 4.21777 7.95072 4.21777H12.9495C15.0206 4.21777 16.6985 5.89569 16.6985 7.96684ZM14.1992 7.96684C14.1992 7.27701 13.6393 6.71715 12.9495 6.71715H7.95072C7.2609 6.71715 6.70104 7.27701 6.70104 7.96684V12.9656C6.70104 13.6554 7.2609 14.2153 7.95072 14.2153H12.9495C13.6393 14.2153 14.1992 13.6554 14.1992 12.9656V7.96684Z" fill="#1A1818"/>
<path fill-rule="evenodd" clip-rule="evenodd" d="M31.6985 22.9668V27.9656C31.6985 30.0367 30.0206 31.7147 27.9495 31.7147H22.9507C20.8796 31.7147 19.2017 30.0367 19.2017 27.9656V22.9668C19.2017 20.8957 20.8796 19.2178 22.9507 19.2178H27.9495C30.0206 19.2178 31.6985 20.8957 31.6985 22.9668ZM29.1992 22.9668C29.1992 22.277 28.6393 21.7171 27.9495 21.7171H22.9507C22.2609 21.7171 21.701 22.277 21.701 22.9668V27.9656C21.701 28.6554 22.2609 29.2153 22.9507 29.2153H27.9495C28.6393 29.2153 29.1992 28.6554 29.1992 27.9656V22.9668Z" fill="#1A1818"/>
<path d="M12.375 28C13.7557 28 14.875 26.8807 14.875 25.5C14.875 24.1193 13.7557 23 12.375 23C10.9943 23 9.875 24.1193 9.875 25.5C9.875 26.8807 10.9943 28 12.375 28Z" fill="#792AFF"/>
</svg>
