<svg width="24" height="24" viewBox="0 0 24 24" fill="none" xmlns="http://www.w3.org/2000/svg">
<path d="M19.6441 12.8093C19.4902 12.6837 19.4024 12.5001 19.4024 12.3068V12C19.4024 12 19.4024 11.9994 19.4024 11.9988V11.692C19.4024 11.4987 19.4908 11.3151 19.6447 11.1888L20.3621 10.6C21.0306 10.0509 21.1953 9.12563 20.7533 8.39843L19.66 6.60036C19.218 5.87316 18.2913 5.54641 17.4569 5.82122L16.5557 6.11899C16.3617 6.18301 16.1499 6.16308 15.9725 6.06523L15.416 5.75659C15.2417 5.65996 15.1202 5.49628 15.0821 5.30783L14.904 4.42178C14.7386 3.59795 13.9767 3 13.0933 3H10.9067C10.0233 3 9.26138 3.59795 9.09539 4.42239L8.91731 5.30783C8.87915 5.49628 8.75767 5.65996 8.58341 5.75659L8.02755 6.06463C7.85074 6.16308 7.63832 6.18301 7.44497 6.11899L6.54249 5.82182C5.70806 5.54641 4.78141 5.87377 4.34002 6.60036L3.24674 8.39903C2.80472 9.12563 2.96944 10.0515 3.63788 10.6006L4.35529 11.1895C4.5092 11.3157 4.5976 11.4993 4.5976 11.6926V12.0006V12.3074C4.5976 12.5007 4.50983 12.6843 4.35529 12.8105L3.63788 13.3994C2.96944 13.9485 2.80472 14.8738 3.24674 15.601L4.34002 17.399C4.78204 18.1262 5.70996 18.453 6.54312 18.1782L7.44433 17.8804C7.63768 17.8164 7.8501 17.8363 8.02755 17.9342L8.58405 18.2428C8.75831 18.3394 8.87979 18.5031 8.91795 18.6916L9.09603 19.5776C9.26202 20.4021 10.0239 21 10.9074 21H13.0939C13.9773 21 14.7392 20.4021 14.9052 19.5776L15.0833 18.6922C15.1215 18.5037 15.243 18.34 15.4172 18.2434L15.9731 17.9354C16.1493 17.8369 16.3623 17.8164 16.5557 17.881L17.4569 18.1788C18.2913 18.4542 19.218 18.1274 19.6593 17.4002L20.7526 15.6016C21.1946 14.875 21.0299 13.9491 20.3615 13.4L19.6441 12.8093ZM19.7624 15.0562L18.6685 16.8548C18.5012 17.1303 18.1488 17.2541 17.8334 17.1502L16.9322 16.8524C16.4221 16.6839 15.8618 16.7365 15.3956 16.995L14.8397 17.303C14.3799 17.5579 14.0587 17.9891 13.9589 18.4862L13.7808 19.3717C13.7172 19.6845 13.4285 19.9116 13.0933 19.9116H10.9067C10.5715 19.9116 10.2828 19.6845 10.2192 19.3717L10.0411 18.4862C9.94127 17.9891 9.62009 17.5579 9.16026 17.303L8.6044 16.9944C8.3182 16.8361 7.99702 16.7552 7.67393 16.7552C7.46978 16.7552 7.26498 16.7872 7.06782 16.8524L6.16661 17.1502C5.84925 17.2541 5.49881 17.1303 5.33091 16.8548L4.23763 15.0562C4.06972 14.7808 4.13269 14.4292 4.38581 14.2215L5.10322 13.6326C5.50962 13.2998 5.7424 12.816 5.74176 12.3056V12V11.6932C5.7424 11.1828 5.50962 10.699 5.10322 10.3662L4.38581 9.77733C4.13269 9.56956 4.06972 9.21804 4.23763 8.94262L5.33154 7.14395C5.49881 6.86853 5.85179 6.74532 6.16661 6.8486L7.06782 7.14637C7.57853 7.31488 8.13821 7.26294 8.6044 7.00383L9.16026 6.69579C9.62009 6.44091 9.94127 6.00966 10.0411 5.51258L10.2192 4.62714C10.2828 4.31427 10.5715 4.08718 10.9067 4.08718H13.0933C13.4285 4.08718 13.7172 4.31427 13.7808 4.62714L13.9589 5.51258C14.0587 6.00966 14.3799 6.44091 14.8397 6.69579L15.3956 7.00443C15.8618 7.26233 16.4215 7.31488 16.9322 7.14637L17.8334 6.8486C18.1501 6.74472 18.5012 6.86853 18.6691 7.14395L19.7624 8.94262C19.9303 9.21804 19.8673 9.56956 19.6142 9.77733L18.8968 10.3662C18.4904 10.6996 18.2576 11.1834 18.2582 11.6932V11.9994V12.3056C18.2576 12.816 18.4904 13.2998 18.8968 13.6326L19.6142 14.2215C19.8673 14.4292 19.9296 14.7808 19.7624 15.0562Z" fill="black"/>
<circle cx="12.0049" cy="12.0049" r="3.375" fill="#792AFF" fill-opacity="0.5"/>
</svg>
