<svg width="30" height="30" viewBox="0 0 30 30" fill="none" xmlns="http://www.w3.org/2000/svg">
<g clip-path="url(#clip0_2312_4915)">
<path d="M7.66936 25.496C9.15741 25.0451 9.99817 23.4732 9.54725 21.9852C9.09632 20.4971 7.52446 19.6564 6.03641 20.1073C4.54835 20.5582 3.70759 22.1301 4.15852 23.6181C4.60944 25.1062 6.1813 25.947 7.66936 25.496Z" fill="#995DFE"/>
<path d="M22.9946 25.6207C24.5495 25.6207 25.8101 24.3602 25.8101 22.8053C25.8101 21.2504 24.5495 19.9899 22.9946 19.9899C21.4397 19.9899 20.1792 21.2504 20.1792 22.8053C20.1792 24.3602 21.4397 25.6207 22.9946 25.6207Z" fill="#995DFE"/>
<path d="M29.6045 13.4677C28.7766 12.0143 27.8344 10.6291 26.7867 9.32517C26.297 8.7193 25.6803 8.22826 24.9801 7.88668C24.2799 7.54509 23.5133 7.36129 22.7344 7.34822C21.7969 7.33298 20.8729 7.32419 20.1785 7.32419H20.1715C20.0246 6.58517 19.6422 5.91367 19.0814 5.41039C18.5207 4.90711 17.8119 4.59919 17.0613 4.53279C16.0506 4.44373 12.0867 4.37927 10.1883 4.37927C8.28984 4.37927 4.32891 4.44373 3.31523 4.53279C2.50027 4.60474 1.73662 4.96121 1.15811 5.53972C0.579595 6.11823 0.223128 6.88188 0.151172 7.69685C0.0644531 8.70759 0 11.5676 0 13.4654C0 15.3633 0.0644531 18.2226 0.154102 19.234C0.215105 19.9234 0.480018 20.579 0.915069 21.1172C1.35012 21.6555 1.9356 22.052 2.59687 22.2562C2.73262 21.197 3.25884 20.2266 4.0725 19.535C4.88617 18.8433 5.92868 18.4803 6.99594 18.517C8.0632 18.5536 9.07835 18.9873 9.84265 19.7331C10.607 20.4789 11.0654 21.4832 11.1281 22.5492C12.3996 22.5398 14.0502 22.5135 15.3252 22.4765C16.3418 22.5082 17.6057 22.5316 18.7154 22.5439C18.7811 21.4755 19.2441 20.4703 20.0134 19.726C20.7827 18.9816 21.8026 18.552 22.8726 18.5215C23.9426 18.491 24.9853 18.8619 25.7957 19.5613C26.6061 20.2606 27.1255 21.2378 27.252 22.3008C27.9485 22.1206 28.5722 21.7292 29.0373 21.1803C29.5025 20.6313 29.7861 19.9518 29.8494 19.2351C29.9268 18.3633 29.9854 16.6629 30 14.9935C30.0049 14.459 29.8684 13.9326 29.6045 13.4677ZM26.7516 14.3654H20.3777C20.3777 14.0502 20.3818 13.7472 20.3818 13.4654C20.3818 12.1576 20.3508 10.3927 20.3027 9.09138C20.9701 9.09138 21.8373 9.10076 22.708 9.11482C23.2283 9.1236 23.7403 9.24661 24.2077 9.47513C24.6752 9.70366 25.0868 10.0321 25.4133 10.4373C26.1254 11.3223 26.7853 12.2481 27.3896 13.2099C27.4616 13.324 27.5016 13.4552 27.5055 13.59C27.5094 13.7248 27.4771 13.8581 27.4119 13.9762C27.3467 14.0942 27.2511 14.1926 27.1349 14.261C27.0188 14.3295 26.8864 14.3655 26.7516 14.3654Z" fill="#995DFE"/>
</g>
<defs>
<clipPath id="clip0_2312_4915">
<rect width="30" height="30" fill="white"/>
</clipPath>
</defs>
</svg>
